<svg width="42" height="42" viewBox="0 0 42 42" fill="none" xmlns="http://www.w3.org/2000/svg">
<circle cx="21" cy="21" r="21" fill="#6E3F52"/>
<path d="M30.2862 18.0327C28.9966 18.0043 27.7468 18.3621 27.7468 18.3621C27.6437 18.3862 27.5467 18.4303 27.4615 18.4919C27.3763 18.5535 27.3047 18.6312 27.251 18.7205C27.1973 18.8097 27.1626 18.9086 27.1489 19.0113C27.1353 19.1139 27.143 19.2182 27.1716 19.3179C27.2002 19.4176 27.2491 19.5106 27.3154 19.5914C27.3817 19.6722 27.4639 19.7391 27.5573 19.788C27.6507 19.837 27.7532 19.8671 27.8588 19.8765C27.9643 19.8859 28.0707 19.8743 28.1716 19.8426C28.1716 19.8426 29.2976 19.55 30.2507 19.571C30.7273 19.5815 31.1217 19.6918 31.2708 19.801C31.4199 19.9102 31.5018 19.9521 31.4057 20.4598C31.2464 21.3009 30.6266 21.8698 29.6957 22.309C28.7648 22.7482 27.5766 22.9848 26.6273 23.0822C26.5245 23.0929 26.4247 23.1232 26.3339 23.1714C26.243 23.2197 26.1627 23.285 26.0977 23.3635C26.0326 23.4421 25.984 23.5324 25.9547 23.6293C25.9254 23.7262 25.9159 23.8278 25.9268 23.9283C25.9377 24.0287 25.9687 24.1261 26.0181 24.2149C26.0675 24.3037 26.1344 24.3821 26.2148 24.4456C26.2952 24.5091 26.3877 24.5566 26.4869 24.5852C26.5861 24.6138 26.6901 24.6231 26.793 24.6125C27.8597 24.503 29.189 24.2571 30.3809 23.6948C31.5728 23.1325 32.6817 22.181 32.9547 20.7395C33.1234 19.8484 32.8089 19.004 32.2163 18.5701C31.6236 18.1362 30.931 18.0469 30.2862 18.0327Z" fill="#DBDCE8"/>
<path d="M13.7881 17.063C13.6846 17.063 13.5821 17.0828 13.4864 17.1215C13.3908 17.1602 13.3039 17.2169 13.2307 17.2883C13.1575 17.3598 13.0995 17.4447 13.0599 17.5381C13.0203 17.6315 12.9999 17.7316 13 17.8327C13 19.7961 13.2283 22.0057 14.3597 23.8139C15.491 25.6221 17.5991 26.9114 20.8456 26.9114C24.092 26.9114 26.2013 25.6221 27.3326 23.8139C28.464 22.0057 28.6923 19.7961 28.6923 17.8327C28.6924 17.7316 28.672 17.6315 28.6324 17.5381C28.5928 17.4447 28.5348 17.3598 28.4616 17.2883C28.3884 17.2169 28.3015 17.1602 28.2059 17.1215C28.1102 17.0828 28.0077 17.063 27.9042 17.063H13.7881ZM14.6413 18.6013H27.051C26.9839 20.1967 26.7404 21.8086 25.9884 23.0106C25.1143 24.4075 23.6942 25.373 20.8456 25.373C17.9969 25.373 16.5768 24.4075 15.7028 23.0106C14.9507 21.8086 14.7084 20.1967 14.6413 18.6013Z" fill="#DBDCE8"/>
<path d="M18.6587 27.4615C18.5538 27.4592 18.4495 27.4774 18.3519 27.515C18.2543 27.5526 18.1654 27.6089 18.0904 27.6806C18.0154 27.7522 17.9558 27.8378 17.9151 27.9323C17.8744 28.0267 17.8534 28.1282 17.8534 28.2306C17.8534 28.3331 17.8744 28.4346 17.9151 28.529C17.9558 28.6235 18.0154 28.7091 18.0904 28.7807C18.1654 28.8524 18.2543 28.9086 18.3519 28.9463C18.4495 28.9839 18.5538 29.0021 18.6587 28.9998H23.0335C23.1384 29.0021 23.2428 28.9839 23.3404 28.9463C23.438 28.9086 23.5269 28.8524 23.6019 28.7807C23.6769 28.7091 23.7365 28.6235 23.7772 28.529C23.8179 28.4346 23.8389 28.3331 23.8389 28.2306C23.8389 28.1282 23.8179 28.0267 23.7772 27.9323C23.7365 27.8378 23.6769 27.7522 23.6019 27.6806C23.5269 27.6089 23.438 27.5526 23.3404 27.515C23.2428 27.4774 23.1384 27.4592 23.0335 27.4615H18.6587Z" fill="#DBDCE8"/>
<path d="M21.1047 14.0002C20.9635 14.0031 20.8258 14.0431 20.7059 14.1159C20.586 14.1887 20.4883 14.2916 20.4231 14.4139L19.8823 15.3917C19.7831 15.5713 19.7611 15.7821 19.821 15.9776C19.8809 16.1731 20.0179 16.3374 20.2018 16.4342C20.3857 16.5311 20.6015 16.5526 20.8017 16.4941C21.0018 16.4356 21.17 16.3018 21.2692 16.1222L21.8088 15.1444C21.8764 15.0261 21.9108 14.8925 21.9086 14.757C21.9064 14.6216 21.8676 14.4891 21.7961 14.373C21.7247 14.2569 21.6231 14.1613 21.5017 14.0958C21.3803 14.0304 21.2433 13.9974 21.1047 14.0002Z" fill="#DBDCE8"/>
<path d="M24.4809 14.0002C24.3395 14.0029 24.2015 14.0428 24.0814 14.1156C23.9612 14.1884 23.8634 14.2915 23.7981 14.4139L23.2585 15.3917C23.2093 15.4807 23.1786 15.5782 23.1681 15.6787C23.1576 15.7792 23.1674 15.8808 23.1971 15.9776C23.2268 16.0744 23.2757 16.1646 23.341 16.2429C23.4064 16.3213 23.4869 16.3863 23.5779 16.4343C23.669 16.4822 23.7689 16.5122 23.8718 16.5225C23.9747 16.5328 24.0787 16.5231 24.1778 16.4942C24.2769 16.4652 24.3692 16.4174 24.4495 16.3536C24.5297 16.2898 24.5962 16.2111 24.6453 16.1222L25.1849 15.1444C25.2525 15.0261 25.287 14.8925 25.2848 14.7571C25.2825 14.6216 25.2438 14.4891 25.1723 14.373C25.1009 14.2569 24.9993 14.1613 24.8779 14.0958C24.7565 14.0304 24.6195 13.9974 24.4809 14.0002Z" fill="#DBDCE8"/>
<path d="M17.7297 14.0002C17.5883 14.0029 17.4503 14.0428 17.3302 14.1156C17.21 14.1884 17.1122 14.2915 17.0469 14.4139L16.5073 15.3917C16.4542 15.4808 16.42 15.5795 16.4068 15.6817C16.3935 15.784 16.4014 15.8878 16.4301 15.9871C16.4587 16.0863 16.5074 16.1789 16.5734 16.2593C16.6394 16.3398 16.7212 16.4065 16.8141 16.4555C16.907 16.5044 17.009 16.5347 17.1141 16.5444C17.2192 16.5541 17.3252 16.543 17.4258 16.512C17.5264 16.4809 17.6196 16.4303 17.6999 16.3634C17.7801 16.2964 17.8458 16.2144 17.893 16.1222L18.4337 15.1444C18.5014 15.0261 18.5358 14.8925 18.5336 14.7571C18.5313 14.6216 18.4926 14.4891 18.4211 14.373C18.3497 14.2569 18.2481 14.1613 18.1267 14.0958C18.0053 14.0304 17.8683 13.9974 17.7297 14.0002Z" fill="#DBDCE8"/>
</svg>
