<svg width="42" height="42" viewBox="0 0 42 42" fill="none" xmlns="http://www.w3.org/2000/svg">
<circle cx="21" cy="21" r="21" fill="#3F6E5B"/>
<path d="M14.3287 18.5223C14.1103 18.5259 13.9022 18.6179 13.75 18.7782C13.5979 18.9385 13.5142 19.154 13.5173 19.3773V24.5897C13.5174 24.7008 13.539 24.8109 13.5809 24.9135C13.6228 25.0161 13.6841 25.1092 13.7613 25.1875C13.7613 25.1875 14.3457 25.7602 15.4387 26.2528C16.5317 26.7454 18.1916 27.2167 20.4994 27.2167C22.8071 27.2167 24.4671 26.7454 25.56 26.2528C26.653 25.7602 27.2387 25.1875 27.2387 25.1875C27.3159 25.1092 27.3772 25.0161 27.4191 24.9135C27.461 24.8109 27.4826 24.7008 27.4827 24.5897V19.3773C27.4852 19.265 27.4657 19.1534 27.4253 19.0489C27.385 18.9444 27.3247 18.8492 27.2479 18.7689C27.1711 18.6886 27.0794 18.6248 26.9781 18.5813C26.8769 18.5377 26.7681 18.5153 26.6583 18.5153C26.5484 18.5153 26.4397 18.5377 26.3384 18.5813C26.2372 18.6248 26.1455 18.6886 26.0687 18.7689C25.9919 18.8492 25.9315 18.9444 25.8912 19.0489C25.8509 19.1534 25.8314 19.265 25.8338 19.3773V24.1387C25.7271 24.2353 25.5987 24.3927 24.8948 24.71C24.008 25.1097 22.5889 25.5308 20.4994 25.5308C18.4098 25.5308 16.9908 25.1097 16.104 24.71C15.4002 24.3928 15.2729 24.2354 15.1662 24.1387V19.3773C15.1677 19.2645 15.1471 19.1525 15.1056 19.0479C15.064 18.9434 15.0024 18.8485 14.9243 18.7687C14.8462 18.689 14.7532 18.6261 14.6509 18.5838C14.5486 18.5414 14.4391 18.5205 14.3287 18.5223Z" fill="#DBDCE8"/>
<path d="M20.5192 14.0003C20.4233 13.9977 20.3277 14.0123 20.2367 14.0434L10.5602 17.3696C10.3969 17.4262 10.255 17.5336 10.1545 17.6769C10.054 17.8201 10 17.992 10 18.1683C10 18.3446 10.054 18.5164 10.1545 18.6597C10.255 18.8029 10.3969 18.9104 10.5602 18.9669L20.2367 22.2932C20.4072 22.3517 20.5916 22.3517 20.762 22.2932L30.4398 18.9669C30.6031 18.9104 30.745 18.8029 30.8455 18.6597C30.946 18.5164 31 18.3446 31 18.1683C31 17.992 30.946 17.8201 30.8455 17.6769C30.745 17.5336 30.6031 17.4262 30.4398 17.3696L20.762 14.0434C20.6836 14.0166 20.6018 14.0021 20.5192 14.0003ZM20.4994 15.7318L27.5905 18.1676L20.4994 20.6047L13.4095 18.1676L20.4994 15.7318Z" fill="#DBDCE8"/>
<path d="M19.9828 17.2962C19.8532 17.2944 19.725 17.3239 19.6087 17.3823C18.5956 17.8727 17.7959 18.0873 17.1235 18.3513C16.7874 18.4833 16.463 18.6243 16.1659 18.9124C15.8688 19.2005 15.6716 19.679 15.6716 20.1183V26.2553L15.3879 26.4947C15.3016 26.5644 15.2297 26.6509 15.1766 26.7494C15.1234 26.8478 15.0901 26.9561 15.0785 27.0679C15.0669 27.1797 15.0773 27.2928 15.1091 27.4004C15.1408 27.508 15.1933 27.6081 15.2635 27.6947C15.3336 27.7813 15.42 27.8526 15.5175 27.9046C15.615 27.9565 15.7217 27.988 15.8313 27.9972C15.9409 28.0064 16.0512 27.993 16.1557 27.958C16.2602 27.9229 16.3567 27.8668 16.4397 27.7931L17.022 27.3003C17.1154 27.2212 17.1906 27.1219 17.2423 27.0095C17.2939 26.8972 17.3206 26.7746 17.3205 26.6505V20.1246C17.3461 20.1037 17.4668 20.023 17.7145 19.9258C18.2347 19.7214 19.1674 19.4628 20.3148 18.9074C20.4858 18.8282 20.6253 18.6916 20.7102 18.5204C20.795 18.3491 20.8202 18.1533 20.7815 17.9655C20.7428 17.7776 20.6425 17.6089 20.4973 17.4872C20.3521 17.3655 20.1705 17.2981 19.9828 17.2962Z" fill="#DBDCE8"/>
</svg>
