<svg width="42" height="42" viewBox="0 0 42 42" fill="none" xmlns="http://www.w3.org/2000/svg">
<circle cx="21" cy="21" r="21" fill="#6E3F52"/>
<path d="M29 15.3726C29 12.8253 26.9558 10 25.0883 10C23.2208 10 21.1514 12.8253 21.1514 15.3726C21.1514 17.4105 22.2618 18.6379 23.8265 19.0779L23.6246 30.6568C23.6246 31.3979 24.2555 32 25.0631 32C25.8707 32 26.5268 31.3979 26.5016 30.6568L26.2997 19.0779C27.8896 18.6611 29 17.4105 29 15.3726Z" fill="#EDEEF3"/>
<path d="M18.6278 10.5789C18.2744 10.5789 17.9968 10.8337 17.9968 11.1579V15.9747C17.9968 16.1137 17.8707 16.2295 17.7192 16.2295H17.0379C16.8864 16.2295 16.7603 16.1137 16.7603 15.9747V11.1347C16.735 10.8337 16.4574 10.5789 16.1293 10.5789C15.776 10.5789 15.4984 10.8337 15.4984 11.1579V15.9747C15.4984 16.1137 15.3722 16.2295 15.2208 16.2295H14.5394C14.388 16.2295 14.2618 16.1137 14.2618 15.9747V11.1347C14.2618 10.8105 13.9842 10.5558 13.6309 10.5558C13.2776 10.5558 13 10.8105 13 11.1347V16.9937C13 17.9895 13.8328 18.8 14.8675 18.8926L14.6656 30.6337C14.6656 31.3747 15.2965 31.9768 16.1041 31.9768C16.9117 31.9768 17.5678 31.3747 17.5426 30.6337L17.3659 18.9158C18.4259 18.8232 19.2334 17.9895 19.2334 17.0168V11.1347C19.2334 10.8337 18.9558 10.5789 18.6278 10.5789Z" fill="#EDEEF3"/>
</svg>
