<svg width="42" height="42" viewBox="0 0 42 42" fill="none" xmlns="http://www.w3.org/2000/svg">
<circle cx="21" cy="21" r="21" fill="#463848"/>
<path d="M26.9234 13.6941C26.7363 13.6936 26.5537 13.7513 26.4009 13.8592C26.2481 13.9672 26.1327 14.1201 26.0707 14.2966C26.0087 14.4732 26.0031 14.6647 26.0548 14.8445C26.1066 15.0244 26.213 15.1837 26.3593 15.3003L29.2315 17.6607C29.323 17.7359 29.4284 17.7924 29.5416 17.8269C29.6549 17.8613 29.7738 17.8731 29.8916 17.8616C30.0095 17.8501 30.1239 17.8155 30.2283 17.7597C30.3328 17.704 30.4252 17.6282 30.5004 17.5367C30.5755 17.4452 30.6319 17.3398 30.6664 17.2265C30.7008 17.1132 30.7126 16.9942 30.7011 16.8764C30.6895 16.7585 30.6549 16.6441 30.5991 16.5396C30.5434 16.4352 30.4676 16.3427 30.3761 16.2675L27.5025 13.9071C27.3405 13.7702 27.1355 13.6947 26.9234 13.6941Z" fill="#DBDCE8"/>
<path d="M26.9288 13.6914C26.7728 13.691 26.6193 13.7311 26.4834 13.8079C26.3475 13.8846 26.2339 13.9953 26.1536 14.1292C26.0734 14.2631 26.0293 14.4155 26.0256 14.5716C26.022 14.7277 26.0589 14.882 26.1328 15.0195C29.6666 21.7974 29.4528 24.9418 28.7691 26.2098C28.4273 26.8438 27.9624 27.1158 27.5676 27.257C27.3781 27.3248 27.2139 27.3526 27.1146 27.3628C26.9971 27.3397 26.876 27.3403 26.7587 27.3645C26.6413 27.3887 26.53 27.4361 26.4311 27.5039C26.3906 27.531 26.2865 27.6229 26.286 27.6233C26.2856 27.6237 26.1113 27.8766 26.1111 27.877C26.1109 27.8774 26.0283 28.3134 26.0284 28.3138C26.0284 28.3142 26.157 28.7231 26.1572 28.7235C26.1575 28.7239 26.2856 28.895 26.3416 28.9432C26.3977 28.9914 26.4457 29.021 26.4854 29.0436C26.5647 29.0889 26.6161 29.1061 26.6576 29.1196C26.8236 29.1737 26.8637 29.1659 26.9221 29.1698C27.0388 29.1776 27.1386 29.173 27.2611 29.1616C27.5061 29.139 27.8177 29.0815 28.1738 28.9541C28.8858 28.6993 29.7788 28.1358 30.3558 27.0658C31.5097 24.9257 31.3804 21.1877 27.7303 14.1866C27.6554 14.0381 27.5409 13.9133 27.3994 13.8259C27.258 13.7385 27.0951 13.6919 26.9288 13.6914Z" fill="#DBDCE8"/>
<path d="M17.756 11C15.7758 11 14.1541 12.6221 14.1541 14.603V29.0979C14.1544 29.3373 14.2496 29.5668 14.419 29.736C14.5884 29.9052 14.818 30.0001 15.0573 30H26.9316C27.1707 29.9998 27.3999 29.9046 27.569 29.7355C27.7381 29.5664 27.8331 29.3371 27.8334 29.0979V14.603C27.8334 12.6221 26.2117 11 24.2315 11H17.756ZM17.756 12.8056H24.2315C25.2426 12.8056 26.0284 13.5912 26.0284 14.603V28.1944H15.9591V14.603C15.9591 13.5912 16.7449 12.8056 17.756 12.8056Z" fill="#DBDCE8"/>
<path d="M18.6605 14.5854C18.4215 14.5854 18.1923 14.6804 18.0233 14.8494C17.8543 15.0185 17.7594 15.2478 17.7594 15.4868C17.7594 15.7259 17.8543 15.9552 18.0233 16.1242C18.1923 16.2933 18.4215 16.3883 18.6605 16.3883H23.327C23.566 16.3883 23.7952 16.2933 23.9642 16.1242C24.1332 15.9552 24.2281 15.7259 24.2281 15.4868C24.2281 15.2478 24.1332 15.0185 23.9642 14.8494C23.7952 14.6804 23.566 14.5854 23.327 14.5854H18.6605Z" fill="#DBDCE8"/>
<path d="M13.9317 28.1971C13.8109 28.193 13.6904 28.2133 13.5776 28.2567C13.4648 28.3001 13.3618 28.3658 13.2749 28.4498C13.1879 28.5339 13.1188 28.6346 13.0716 28.7459C13.0243 28.8572 13 28.9769 13 29.0979C13 29.2188 13.0243 29.3385 13.0716 29.4499C13.1188 29.5612 13.1879 29.6619 13.2749 29.746C13.3618 29.83 13.4648 29.8957 13.5776 29.9391C13.6904 29.9825 13.8109 30.0028 13.9317 29.9986H15.4709C15.5918 30.0028 15.7122 29.9825 15.825 29.9391C15.9379 29.8957 16.0408 29.83 16.1278 29.746C16.2147 29.6619 16.2839 29.5612 16.3311 29.4499C16.3783 29.3385 16.4026 29.2188 16.4026 29.0979C16.4026 28.9769 16.3783 28.8572 16.3311 28.7459C16.2839 28.6346 16.2147 28.5339 16.1278 28.4498C16.0408 28.3658 15.9379 28.3001 15.825 28.2567C15.7122 28.2133 15.5918 28.193 15.4709 28.1971H13.9317Z" fill="#DBDCE8"/>
<path d="M26.5166 28.1971C26.3957 28.193 26.2753 28.2133 26.1625 28.2567C26.0496 28.3001 25.9467 28.3658 25.8597 28.4498C25.7728 28.5339 25.7036 28.6346 25.6564 28.7459C25.6092 28.8572 25.5849 28.9769 25.5849 29.0979C25.5849 29.2188 25.6092 29.3385 25.6564 29.4499C25.7036 29.5612 25.7728 29.6619 25.8597 29.746C25.9467 29.83 26.0496 29.8957 26.1625 29.9391C26.2753 29.9825 26.3957 30.0028 26.5166 29.9986H28.0571C28.178 30.0028 28.2984 29.9825 28.4113 29.9391C28.5241 29.8957 28.6271 29.83 28.714 29.746C28.8009 29.6619 28.8701 29.5612 28.9173 29.4499C28.9645 29.3385 28.9889 29.2188 28.9889 29.0979C28.9889 28.9769 28.9645 28.8572 28.9173 28.7459C28.8701 28.6346 28.8009 28.5339 28.714 28.4498C28.6271 28.3658 28.5241 28.3001 28.4113 28.2567C28.2984 28.2133 28.178 28.193 28.0571 28.1971H26.5166Z" fill="#DBDCE8"/>
</svg>
