<svg width="42" height="42" viewBox="0 0 42 42" fill="none" xmlns="http://www.w3.org/2000/svg">
<circle cx="21" cy="21" r="21" fill="#6E3F52"/>
<path d="M10.7515 16.6625V25.3372C10.7515 25.958 11.2304 26.4642 11.8216 26.4717V15.528C11.2304 15.5355 10.7515 16.0418 10.7515 16.6625Z" fill="#EDEEF3"/>
<path d="M26.0237 19.6618H15.9763V22.3382H26.0237V19.6618Z" fill="#EDEEF3"/>
<path d="M13.94 14H13.8587C13.0867 14 12.4587 14.6576 12.4587 15.466V15.7452L12.4576 15.7441V26.2559L12.4587 26.2548V26.5343C12.4587 27.3424 13.0867 28 13.8587 28H13.94C14.712 28 15.34 27.3424 15.34 26.5343V15.466C15.34 14.6573 14.7123 14 13.94 14Z" fill="#EDEEF3"/>
<path d="M28.1411 14H28.0597C27.2877 14 26.6597 14.6576 26.6597 15.466V26.5343C26.6597 27.3424 27.2877 28 28.0597 28H28.1411C28.9131 28 29.5411 27.3424 29.5411 26.5343V15.466C29.5411 14.6573 28.9133 14 28.1411 14Z" fill="#EDEEF3"/>
<path d="M30.1755 15.528L30.1773 26.4715C30.7693 26.4645 31.2485 25.9582 31.2485 25.3369V16.6625C31.2485 16.0406 30.7683 15.5341 30.1755 15.528Z" fill="#EDEEF3"/>
<path d="M9 20.9999C9 21.5734 9.27973 22.1003 9.74853 22.4092L10.1384 22.6661V19.3337L9.74853 19.5906C9.27973 19.8994 9 20.4263 9 20.9999Z" fill="#EDEEF3"/>
<path d="M32.2515 19.5906L31.8616 19.3337V22.6658L32.2515 22.4089C32.7203 22.1003 33 21.5734 33 20.9999C33 20.4263 32.7203 19.8994 32.2515 19.5906Z" fill="#EDEEF3"/>
</svg>
