<svg width="42" height="42" viewBox="0 0 42 42" fill="none" xmlns="http://www.w3.org/2000/svg">
<circle cx="21" cy="21" r="21" fill="#3F6E5B"/>
<path d="M20.9858 18.4388C20.7349 18.4428 20.4958 18.5456 20.321 18.7247C20.1463 18.9038 20.0501 19.1446 20.0536 19.3941V23.6059C20.0508 23.7314 20.0732 23.8561 20.1196 23.9728C20.1659 24.0896 20.2352 24.1959 20.3234 24.2856C20.4116 24.3754 20.517 24.4466 20.6333 24.4953C20.7496 24.544 20.8745 24.5691 21.0007 24.5691C21.1269 24.5691 21.2518 24.544 21.3681 24.4953C21.4844 24.4466 21.5898 24.3754 21.678 24.2856C21.7662 24.1959 21.8355 24.0896 21.8819 23.9728C21.9282 23.8561 21.9506 23.7314 21.9478 23.6059V19.3941C21.9496 19.268 21.9259 19.1429 21.8782 19.0261C21.8304 18.9093 21.7596 18.8032 21.6699 18.7141C21.5802 18.625 21.4734 18.5548 21.3559 18.5075C21.2384 18.4602 21.1125 18.4368 20.9858 18.4388Z" fill="#DBDCE8"/>
<path d="M18.8825 20.5574C18.6311 20.5574 18.39 20.6567 18.2123 20.8335C18.0345 21.0103 17.9347 21.25 17.9347 21.5C17.9347 21.75 18.0345 21.9897 18.2123 22.1665C18.39 22.3433 18.6311 22.4426 18.8825 22.4426H23.1175C23.3689 22.4426 23.61 22.3433 23.7877 22.1665C23.9655 21.9897 24.0653 21.75 24.0653 21.5C24.0653 21.25 23.9655 21.0103 23.7877 20.8335C23.61 20.6567 23.3689 20.5574 23.1175 20.5574H18.8825Z" fill="#DBDCE8"/>
<path d="M17.2772 13C13.7725 13 11 16.0767 11 19.7493C11 20.8546 11.4795 21.944 12.1584 23.0483C12.8373 24.1526 13.7447 25.2624 14.7441 26.2694C15.7435 27.2764 16.832 28.1779 17.8906 28.8494C18.9491 29.5209 19.953 30 21 30C22.047 30 23.0523 29.5209 24.1109 28.8494C25.1694 28.1779 26.2565 27.2764 27.2559 26.2694C28.2553 25.2624 29.1642 24.1526 29.843 23.0483C30.5219 21.944 31 20.8546 31 19.7493C31 16.0767 28.2275 13 24.7228 13C23.3444 13.0007 22.0739 13.5865 20.9972 14.4605C19.9223 13.588 18.6559 13.0025 17.2801 13C17.2791 13 17.2782 13 17.2772 13ZM17.2758 14.8795H17.2772C18.3976 14.8819 19.4793 15.3576 20.3055 16.2381C20.394 16.3325 20.5011 16.4078 20.6201 16.4592C20.739 16.5107 20.8674 16.5373 20.9972 16.5373C21.1269 16.5373 21.2553 16.5107 21.3743 16.4592C21.4932 16.4078 21.6003 16.3325 21.6888 16.2381C22.5166 15.3559 23.6002 14.88 24.7228 14.8795C27.108 14.8795 29.1101 17.0042 29.1101 19.7493C29.1101 20.2485 28.8085 21.1253 28.2293 22.0675C27.65 23.0097 26.8222 24.028 25.9096 24.9476C24.9971 25.8671 23.9964 26.6915 23.0934 27.2643C22.1903 27.8372 21.36 28.1205 21 28.1205C20.64 28.1205 19.8097 27.8372 18.9066 27.2643C18.0036 26.6915 17.0029 25.8671 16.0904 24.9476C15.1778 24.028 14.35 23.0097 13.7707 22.0675C13.1915 21.1253 12.8913 20.2485 12.8913 19.7493C12.8913 17.0047 14.8912 14.8803 17.2758 14.8795Z" fill="#DBDCE8"/>
</svg>
