<svg width="64" height="100" viewBox="0 0 64 100" fill="none" xmlns="http://www.w3.org/2000/svg">
<path fill-rule="evenodd" clip-rule="evenodd" d="M24.8078 67.6806C24.4788 68.3184 24.0662 69.0252 23.7872 69.7507L40.1572 69.7288L34.382 56.786C34.0632 56.0544 33.742 55.3672 33.4246 54.644L32.5615 52.7418C32.4356 52.5627 32.4988 52.6345 32.3467 52.5062L24.8078 67.6806Z" fill="#463848"/>
<path fill-rule="evenodd" clip-rule="evenodd" d="M10.9183 58.0159C11.2784 57.756 17.5763 49.9649 18.4827 48.813C18.9235 48.2531 20.8048 46.0491 20.9948 45.6576C20.7362 45.4631 20.4855 45.3156 20.1992 45.1075C19.5942 44.6676 18.5308 43.9145 18.1158 43.3295C17.2896 43.4769 15.403 43.3761 14.4626 43.3761H10.9436C8.55447 43.3761 6.1639 43.3668 3.77527 43.3761C3.90308 43.7433 4.08241 43.9859 4.23598 44.3517L10.9183 58.0159Z" fill="#463848"/>
<path fill-rule="evenodd" clip-rule="evenodd" d="M43.9003 45.7349C44.0369 46.0526 44.2225 46.2355 44.4262 46.4996C44.6298 46.7636 44.7664 46.9829 44.9977 47.2731C46.581 49.2537 49.2515 52.8798 50.7702 54.957C51.0783 55.3769 52.8648 57.8385 53.12 57.9864C53.2215 57.6598 53.4183 57.406 53.5671 57.0654C53.7279 56.6972 53.8198 56.5083 54.0006 56.1598C54.1658 55.8406 54.261 55.5668 54.4268 55.2458L55.7744 52.4861C55.9226 52.1982 56.05 51.8702 56.2021 51.5749L57.5463 48.8147C57.7251 48.475 57.8058 48.2455 57.974 47.9007L60.1667 43.3913C57.954 43.3685 55.7302 43.389 53.5165 43.389H50.1691C49.3215 43.389 47.6001 43.4823 46.8644 43.3344C46.442 43.8868 46.0333 44.1892 45.4647 44.6147L43.9003 45.7349Z" fill="#463848"/>
<path fill-rule="evenodd" clip-rule="evenodd" d="M3.73475 43.2306C3.94956 42.7813 4.46374 42.1356 4.76068 41.6998C5.11643 41.181 5.46052 40.6948 5.82987 40.1601C6.53505 39.1337 7.23537 38.118 7.96242 37.0808L11.1258 32.5206C11.3658 32.1749 11.9364 31.2007 12.2892 30.9786L12.1804 28.6127H0.0115356C0.0329194 32.1063 -0.000128236 33.2046 0.940759 36.7612C1.2552 37.9528 1.71398 39.0698 2.18831 40.1177L3.3061 42.436C3.47425 42.778 3.43197 42.8685 3.68615 43.1793C3.69635 43.1919 3.71725 43.2138 3.73475 43.2306Z" fill="#463848"/>
<path fill-rule="evenodd" clip-rule="evenodd" d="M0.0116708 28.6111H12.1804L12.523 26.3119C12.3286 26.1831 12.2056 25.8845 12.0297 25.592L7.66213 18.4592C7.65241 18.4433 7.63977 18.4223 7.62956 18.4069L6.54192 16.6424L6.50984 16.5901L5.03681 14.269C4.87449 14.3698 4.99598 14.2662 4.8706 14.3861C4.59407 14.6497 3.29453 17.0035 3.17935 17.2321C1.90946 19.7515 1.23005 21.677 0.584167 24.3528C0.374219 25.2225 -0.0782373 27.6336 0.0116708 28.6111Z" fill="#976775"/>
<path fill-rule="evenodd" clip-rule="evenodd" d="M52.2983 25.0635C52.2288 25.6135 52.4581 26.2499 52.5485 26.7972C52.6088 27.1602 52.6943 28.3942 52.8343 28.5846H63.8945C64.0796 28.3812 63.9684 28.1983 63.9509 27.5311C63.8959 25.4754 63.1704 22.3406 62.5556 20.4749C61.8441 18.318 60.9601 16.5912 59.8102 14.7562L59.4734 14.1674C59.2912 13.9598 59.5288 14.1208 59.2504 13.9976L54.0546 22.3411C53.7591 22.8305 52.5967 24.7896 52.2983 25.0635Z" fill="#976775"/>
<path fill-rule="evenodd" clip-rule="evenodd" d="M52.5604 32.6836L52.7426 32.3976L58.2937 40.4873C58.6091 40.9613 59.9247 42.9815 60.2333 43.1901C60.8587 42.2486 61.9508 39.6624 62.3478 38.5347C62.5753 37.8895 62.7172 37.4341 62.914 36.7585C63.5035 34.7355 64.1674 30.8332 63.8943 28.5853H52.834C52.7752 29.1381 52.8461 29.1988 52.8855 29.6178C52.9341 30.1086 52.8243 30.285 52.8029 30.6829C52.6989 32.6299 52.6386 31.9464 52.5599 32.6845" fill="#463848"/>
<path fill-rule="evenodd" clip-rule="evenodd" d="M41.3975 12.4744C41.4635 12.7119 41.5253 12.7115 41.9213 12.8906C42.6537 13.2228 43.3307 13.7668 43.8993 13.7818L59.2017 13.7738C58.9718 13.1566 57.3092 11.2213 56.814 10.6922C55.926 9.72723 54.9778 8.81483 53.9749 7.95997C52.9256 7.0595 48.6674 4.06603 47.1851 3.578L42.8598 10.2965C42.5434 10.7771 41.7153 12.1852 41.3955 12.4758" fill="#976775"/>
<path fill-rule="evenodd" clip-rule="evenodd" d="M5.33739 13.9518L21.2072 13.9261C21.3977 13.7227 21.5659 13.7255 21.8531 13.5529C22.0776 13.4171 22.2827 13.3196 22.4897 13.1488C22.3464 12.8012 22.3391 12.8148 22.1495 12.511L21.5489 11.5126C21.4847 11.4085 21.508 11.4482 21.4517 11.3577L20.0457 9.06778C19.913 8.84663 19.8158 8.72765 19.6569 8.45844L19.4995 8.19344C19.4679 8.14165 19.4358 8.08753 19.4023 8.03434L17.3611 4.69981C17.2746 4.55704 17.2425 4.49358 17.1692 4.38348C17.0269 4.1764 16.9036 3.95785 16.8008 3.73029C15.7151 4.11193 14.2912 5.11785 13.3882 5.70805C11.4506 6.97477 9.15139 9.07244 7.64047 10.7726L5.53518 13.3723C5.34662 13.648 5.36412 13.5962 5.33447 13.9532" fill="#976775"/>
<path fill-rule="evenodd" clip-rule="evenodd" d="M10.9186 58.0155L10.9813 58.2488L20.6894 58.246C20.9611 58.0127 22.9177 53.893 23.3138 53.1367C23.7099 52.3804 25.8293 48.3778 25.9241 47.8622C25.0507 47.5756 24.1961 47.2389 23.3648 46.854C22.9629 46.6641 21.3659 45.6596 20.9942 45.6573C20.8041 46.0487 18.9229 48.2523 18.4821 48.8126C17.5757 49.9646 11.2777 57.7557 10.9176 58.0155" fill="#976775"/>
<path fill-rule="evenodd" clip-rule="evenodd" d="M16.8031 3.7281C16.906 3.95566 17.0292 4.17421 17.1715 4.38129C17.2449 4.4914 17.2769 4.55485 17.3635 4.69762L19.4046 8.03215C19.4367 8.08534 19.4688 8.13946 19.5018 8.19125L19.6593 8.45626C19.8158 8.72547 19.913 8.84444 20.0481 9.06559L21.4541 11.3555C21.509 11.446 21.4857 11.4063 21.5513 11.5104L22.152 12.5088C22.342 12.8126 22.3493 12.799 22.4922 13.1466C22.7449 13.1 22.8188 13.0109 23.0525 12.8914C23.1784 12.8275 23.2469 12.7981 23.3441 12.7515C23.5098 12.667 23.5055 12.702 23.6095 12.5784C23.6206 12.5546 23.6367 12.4934 23.643 12.507C23.73 12.6885 23.6158 12.5144 23.8321 12.1389L24.4153 11.2207L24.4468 11.167L30.0625 2.00741L30.1242 1.90196L30.3143 1.5875C30.4815 1.30756 30.6263 1.05562 30.8003 0.804605C30.8771 0.692163 30.9461 0.593718 31.0262 0.456548C31.1307 0.281586 31.1944 0.206469 31.2396 0.00724648C27.2851 -0.122925 21.1231 1.53618 17.5161 3.30726C17.3703 3.37817 17.2731 3.43743 17.1326 3.51721C16.9868 3.60119 16.9139 3.61332 16.8031 3.7281Z" fill="#463848"/>
<path fill-rule="evenodd" clip-rule="evenodd" d="M39.7372 11.9291C40.1338 12.112 39.6322 11.889 40.1586 12.0313C40.6178 12.1549 40.9182 12.3952 41.3969 12.474C41.7167 12.1834 42.5448 10.7753 42.8607 10.2947L47.186 3.57627L44.0164 2.23491C40.7495 0.969131 38.2374 0.531498 34.7378 0.162915C34.1197 0.0975969 33.1613 0.12979 32.5698 0.00848389C32.7642 0.615012 39.6599 11.3482 39.7372 11.9291Z" fill="#463848"/>
<path fill-rule="evenodd" clip-rule="evenodd" d="M23.6063 12.5786C24.1244 12.4825 24.8611 12.091 25.3797 11.9123C29.4086 10.5224 33.7766 10.3591 37.9105 11.3921C38.484 11.5353 39.2256 11.8531 39.7373 11.9291C39.66 11.3482 32.7624 0.615946 32.5694 0.00848389H31.2373C31.1921 0.207705 31.1285 0.282822 31.0235 0.457782C30.9414 0.594951 30.8748 0.693395 30.798 0.805837C30.6265 1.05685 30.4816 1.30926 30.312 1.58873L30.122 1.90272C30.1089 1.92418 30.0734 1.9867 30.0603 2.00816L24.4456 11.1672L24.414 11.2209L23.8309 12.1386C23.6146 12.5147 23.7288 12.6887 23.6418 12.5072C23.6355 12.4937 23.6194 12.5538 23.6083 12.5786" fill="#976775"/>
<path fill-rule="evenodd" clip-rule="evenodd" d="M43.7926 58.2709L53.0366 58.2826C53.1221 58.1487 53.0901 58.2234 53.1192 57.9863C52.8641 57.8384 51.0781 55.3783 50.7695 54.9569C49.2507 52.8798 46.5802 49.2537 44.9969 47.2731C44.765 46.9829 44.628 46.7599 44.4253 46.4996C44.2227 46.2392 44.0365 46.0526 43.8995 45.7349C43.4383 45.7489 43.0286 46.1044 42.6801 46.3134L40.3187 47.4229C39.9129 47.5848 39.1096 47.7541 39.1305 48.0089C39.165 48.4288 43.31 57.3975 43.7926 58.2733" fill="#976775"/>
<path fill-rule="evenodd" clip-rule="evenodd" d="M38.9155 86.9684L25.6271 86.9722L27.294 90.2927C27.9146 91.4059 28.4419 92.493 28.9838 93.547C29.8818 95.3016 30.6998 97.1268 31.6475 98.8682C31.9269 99.3816 32.6444 99.3752 32.9171 98.8581C33.7899 97.2033 34.9301 94.8638 35.6137 93.5148C36.1483 92.4623 36.7675 91.2207 37.3147 90.2722L38.9155 86.9684Z" fill="#463848"/>
<path fill-rule="evenodd" clip-rule="evenodd" d="M5.03662 14.269L6.51208 16.5902L6.54416 16.6424L7.62986 18.4065L7.66193 18.4592L12.0295 25.5916C12.2059 25.8841 12.3265 26.1827 12.5228 26.3115C13.2105 23.3894 14.1834 21.1284 15.724 19.0578C17.2349 17.0269 19.0117 15.3053 21.2065 13.9257L5.33648 13.9513C5.04488 13.8323 5.05946 14.0815 5.03662 14.2695" fill="#463848"/>
<path fill-rule="evenodd" clip-rule="evenodd" d="M3.73434 43.2305C3.62645 43.4987 3.69351 43.3182 3.77467 43.3784C6.16332 43.3681 8.55391 43.3784 10.943 43.3784H14.4621C15.4025 43.3784 17.2911 43.4778 18.1153 43.3317C17.6108 42.4765 14.519 40.3061 12.939 34.907C12.696 34.0751 12.1847 32.0143 12.2887 30.979C11.9359 31.2011 11.3654 32.1753 11.1253 32.521L7.95954 37.0835C7.23055 38.1188 6.53219 39.1364 5.82701 40.1628C5.46009 40.6966 5.11601 41.1827 4.75783 41.7025C4.45895 42.1383 3.94671 42.784 3.73191 43.2333" fill="#976775"/>
<path fill-rule="evenodd" clip-rule="evenodd" d="M52.2996 25.0636C52.598 24.7897 53.7605 22.8306 54.056 22.3412L59.2516 13.9981L59.203 13.7728L43.9003 13.7807C44.0529 14.0751 43.9975 13.9207 44.5569 14.3191L45.6261 15.1095C48.7748 17.6634 50.6711 20.3312 51.9823 24.1197L52.2996 25.0636Z" fill="#463848"/>
<path fill-rule="evenodd" clip-rule="evenodd" d="M52.5608 32.6838C52.0865 36.2619 50.2329 39.6356 47.9045 42.2558C47.5643 42.6384 47.1123 42.8941 46.862 43.3322C47.5993 43.481 49.3207 43.3868 50.1668 43.3868H53.5143C55.7281 43.3868 57.952 43.3663 60.1647 43.3891L60.2323 43.1904C59.9237 42.9818 58.6081 40.9616 58.2927 40.4876L52.7431 32.3978L52.5608 32.6838Z" fill="#976775"/>
<path fill-rule="evenodd" clip-rule="evenodd" d="M20.6894 58.2462L10.9812 58.249C10.9555 58.5411 14.3215 64.9675 14.6208 65.5741L15.8499 67.9391L18.3328 63.0892C18.5272 62.6804 20.7322 58.5635 20.6894 58.2471" fill="#463848"/>
<path fill-rule="evenodd" clip-rule="evenodd" d="M53.0364 58.2828L43.7923 58.2712L48.1619 67.895C48.245 68.055 48.1803 67.9384 48.2707 68.0685L48.3679 68.1772C48.4763 68.076 48.3985 68.1772 48.5093 68.0214L49.6111 65.6737C50.0115 64.8418 50.3522 64.1219 50.7614 63.2163C51.1181 62.4259 52.9533 58.7256 53.0383 58.2828" fill="#463848"/>
<path fill-rule="evenodd" clip-rule="evenodd" d="M25.6275 86.9698L38.9159 86.9661L43.717 77.1262L20.5587 77.1584L25.6275 86.9698Z" fill="#463848"/>
</svg>
