<svg width="42" height="42" viewBox="0 0 42 42" fill="none" xmlns="http://www.w3.org/2000/svg">
<circle cx="21" cy="21" r="21" fill="#463848"/>
<path d="M15.6735 15.5938C15.5733 15.5916 15.4736 15.609 15.3803 15.6451C15.2871 15.6812 15.2021 15.7352 15.1304 15.8039C15.0587 15.8726 15.0017 15.9547 14.9628 16.0453C14.9239 16.1359 14.9039 16.2332 14.9039 16.3315C14.9039 16.4297 14.9239 16.527 14.9628 16.6176C15.0017 16.7082 15.0587 16.7903 15.1304 16.859C15.2021 16.9277 15.2871 16.9817 15.3803 17.0178C15.4736 17.0539 15.5733 17.0713 15.6735 17.0691H26.3265C26.4267 17.0713 26.5264 17.0539 26.6197 17.0178C26.7129 16.9817 26.7979 16.9277 26.8696 16.859C26.9413 16.7903 26.9983 16.7082 27.0372 16.6176C27.0761 16.527 27.0961 16.4297 27.0961 16.3315C27.0961 16.2332 27.0761 16.1359 27.0372 16.0453C26.9983 15.9547 26.9413 15.8726 26.8696 15.8039C26.7979 15.7352 26.7129 15.6812 26.6197 15.6451C26.5264 15.609 26.4267 15.5916 26.3265 15.5938H15.6735Z" fill="#DBDCE8"/>
<path d="M10.9815 24.6787C10.8826 24.6787 10.7847 24.6978 10.6933 24.7349C10.6019 24.772 10.5189 24.8263 10.4489 24.8949C10.379 24.9634 10.3235 25.0448 10.2857 25.1344C10.2478 25.224 10.2283 25.32 10.2283 25.4169C10.2283 25.5138 10.2478 25.6098 10.2857 25.6994C10.3235 25.789 10.379 25.8704 10.4489 25.9389C10.5189 26.0075 10.6019 26.0618 10.6933 26.0989C10.7847 26.136 10.8826 26.1551 10.9815 26.1551H31.0196C31.2194 26.1551 31.411 26.0774 31.5522 25.9389C31.6934 25.8005 31.7728 25.6127 31.7728 25.4169C31.7728 25.2211 31.6934 25.0333 31.5522 24.8949C31.411 24.7565 31.2194 24.6787 31.0196 24.6787H10.9815Z" fill="#DBDCE8"/>
<path d="M21 13C18.9577 13 17.2137 13.8888 15.8149 15.1493C14.4161 16.4097 13.3264 18.0425 12.4754 19.6563C10.7734 22.8838 10.0214 26.0875 10.0214 26.0875C9.99781 26.1824 9.99368 26.2809 10.0092 26.3773C10.0248 26.4737 10.0597 26.5661 10.1119 26.6492C10.1642 26.7324 10.2327 26.8045 10.3136 26.8614C10.3945 26.9184 10.4861 26.959 10.5831 26.981C10.6802 27.003 10.7807 27.0059 10.8789 26.9896C10.9771 26.9732 11.071 26.9379 11.1552 26.8858C11.2393 26.8336 11.3121 26.7656 11.3693 26.6856C11.4264 26.6057 11.4668 26.5154 11.4881 26.4201C11.4881 26.4201 12.214 23.3653 13.8121 20.3346C14.6112 18.8193 15.6282 17.323 16.8338 16.2367C18.0395 15.1503 19.3972 14.4754 21 14.4754C22.6028 14.4754 23.9617 15.1503 25.1673 16.2367C26.3729 17.323 27.3888 18.8193 28.1879 20.3346C29.786 23.3653 30.5119 26.4201 30.5119 26.4201C30.5332 26.5154 30.5736 26.6057 30.6307 26.6856C30.6879 26.7655 30.7607 26.8336 30.8449 26.8857C30.929 26.9379 31.0229 26.9732 31.1211 26.9896C31.2193 27.0059 31.3198 27.003 31.4168 26.981C31.5139 26.959 31.6055 26.9184 31.6864 26.8614C31.7673 26.8045 31.8358 26.7323 31.8881 26.6492C31.9403 26.5661 31.9752 26.4737 31.9908 26.3773C32.0063 26.2808 32.0022 26.1824 31.9786 26.0875C31.9786 26.0875 31.2277 22.8838 29.5257 19.6563C28.6748 18.0425 27.5851 16.4097 26.1862 15.1493C24.7874 13.8888 23.0423 13 21 13Z" fill="#DBDCE8"/>
<path d="M21 17.7342C18.7947 17.7342 17.4623 19.1622 16.8282 20.461C16.194 21.7599 16.1033 23.0304 16.1033 23.0304C16.0953 23.1318 16.1088 23.2338 16.1429 23.3298C16.177 23.4259 16.231 23.514 16.3015 23.5887C16.372 23.6633 16.4575 23.7228 16.5526 23.7635C16.6477 23.8042 16.7504 23.8252 16.8542 23.8252H25.147C25.2507 23.8252 25.3534 23.8042 25.4485 23.7635C25.5436 23.7228 25.6291 23.6633 25.6996 23.5887C25.7702 23.514 25.8242 23.4259 25.8583 23.3298C25.8924 23.2338 25.9059 23.1318 25.8979 23.0304C25.8979 23.0304 25.8071 21.7599 25.173 20.461C24.5388 19.1622 23.2053 17.7342 21 17.7342ZM21 19.2096C22.5814 19.2096 23.3224 20.0899 23.8148 21.0984C24.0346 21.5487 24.1518 21.982 24.2389 22.3487H17.7612C17.8482 21.982 17.9665 21.5487 18.1864 21.0984C18.6788 20.0899 19.4186 19.2096 21 19.2096Z" fill="#DBDCE8"/>
</svg>
