<svg width="42" height="42" viewBox="0 0 42 42" fill="none" xmlns="http://www.w3.org/2000/svg">
<circle cx="21" cy="21" r="21" fill="#3F6E5B"/>
<path d="M20.9994 19.8602C19.8518 19.8602 18.7499 20.5153 17.8618 21.4923C16.9736 22.4694 16.3054 23.8302 16.3054 25.3826C16.3053 25.6085 16.3922 25.8253 16.5471 25.9851C16.702 26.145 16.9122 26.2349 17.1314 26.2352H24.8674C24.9761 26.2352 25.0837 26.2132 25.1841 26.1704C25.2845 26.1276 25.3757 26.0648 25.4525 25.9856C25.5293 25.9064 25.5903 25.8124 25.6318 25.7089C25.6734 25.6055 25.6947 25.4946 25.6947 25.3826C25.6947 23.8302 25.0252 22.4694 24.137 21.4923C23.2489 20.5153 22.147 19.8602 20.9994 19.8602ZM20.9994 21.564C21.453 21.564 22.2854 21.9471 22.9309 22.6572C23.3916 23.164 23.6892 23.8273 23.8625 24.5313H18.1375C18.3108 23.8273 18.6084 23.164 19.0691 22.6572C19.7147 21.9471 20.5459 21.564 20.9994 21.564Z" fill="#DBDCE8"/>
<path d="M20.9994 15.1621C19.2954 15.1621 17.899 16.6055 17.899 18.3624C17.899 20.1193 19.2954 21.564 20.9994 21.564C22.7034 21.564 24.101 20.1193 24.101 18.3624C24.101 16.6055 22.7034 15.1621 20.9994 15.1621ZM20.9994 16.866C21.8077 16.866 22.4477 17.5244 22.4477 18.3624C22.4477 19.2005 21.8077 19.8602 20.9994 19.8602C20.1911 19.8602 19.5523 19.2005 19.5523 18.3624C19.5523 17.5244 20.1911 16.866 20.9994 16.866Z" fill="#DBDCE8"/>
<path d="M16.8606 13C16.666 13.0004 16.4777 13.0716 16.329 13.201L13.6931 15.4873L11.5269 16.3552C11.3588 16.4226 11.2168 16.5448 11.1224 16.7031C11.028 16.8614 10.9864 17.0471 11.0039 17.2321C11.0039 17.2321 11.294 20.344 12.6485 23.4931C13.3257 25.0677 14.2725 26.6725 15.6334 27.9108C16.9943 29.1492 18.7933 30 20.9994 30C23.2055 30 25.0045 29.1492 26.3654 27.9108C27.7263 26.6725 28.6743 25.0677 29.3515 23.4931C30.706 20.344 30.9961 17.2321 30.9961 17.2321C31.0136 17.047 30.9718 16.8611 30.8771 16.7028C30.7825 16.5445 30.6402 16.4224 30.4719 16.3552L28.3069 15.4873L25.6711 13.201C25.522 13.0713 25.3333 13.0001 25.1382 13H16.8606ZM17.1624 14.7051H24.8376L27.3467 16.8826C27.4165 16.9429 27.4954 16.9909 27.5802 17.0247L29.2472 17.6916C29.1491 18.4482 28.8525 20.4488 27.8399 22.8032C27.2269 24.2282 26.3825 25.6232 25.2711 26.6346C24.1597 27.6459 22.8057 28.2949 20.9994 28.2949C19.1931 28.2949 17.8391 27.6459 16.7277 26.6346C15.6163 25.6232 14.7731 24.2282 14.1602 22.8032C13.1476 20.4488 12.851 18.4482 12.7528 17.6916L14.4198 17.0247C14.5043 16.9908 14.5827 16.9428 14.6521 16.8826L17.1624 14.7051Z" fill="#DBDCE8"/>
</svg>
