<svg width="42" height="42" viewBox="0 0 42 42" fill="none" xmlns="http://www.w3.org/2000/svg">
<circle cx="21" cy="21" r="21" fill="#463848"/>
<path d="M25.8535 13.0455C25.6599 13.0482 25.4755 13.1191 25.3406 13.2426C25.2058 13.3661 25.1316 13.5322 25.1344 13.7042V15.4961C25.1322 15.5826 25.1495 15.6686 25.1852 15.7491C25.2209 15.8296 25.2744 15.9029 25.3425 15.9648C25.4106 16.0267 25.4918 16.0758 25.5816 16.1094C25.6713 16.143 25.7677 16.1603 25.865 16.1603C25.9624 16.1603 26.0588 16.143 26.1485 16.1094C26.2382 16.0758 26.3195 16.0267 26.3876 15.9648C26.4557 15.9029 26.5091 15.8296 26.5449 15.7491C26.5806 15.6686 26.5979 15.5826 26.5957 15.4961V13.7042C26.5971 13.6173 26.5788 13.531 26.542 13.4505C26.5052 13.3699 26.4506 13.2968 26.3813 13.2353C26.3121 13.1739 26.2297 13.1255 26.1391 13.0928C26.0484 13.0602 25.9513 13.0441 25.8535 13.0455Z" fill="#DBDCE8"/>
<path d="M23.5542 15.1898C23.3604 15.19 23.1747 15.2716 23.0378 15.4168C22.9009 15.5619 22.824 15.7587 22.8241 15.9638V27.2091C22.8219 27.3121 22.8392 27.4145 22.8749 27.5104C22.9107 27.6062 22.9642 27.6936 23.0322 27.7673C23.1003 27.8409 23.1816 27.8995 23.2713 27.9394C23.361 27.9794 23.4574 28 23.5548 28C23.6521 28 23.7485 27.9794 23.8382 27.9394C23.928 27.8995 24.0093 27.8409 24.0773 27.7673C24.1454 27.6936 24.1989 27.6062 24.2346 27.5104C24.2703 27.4145 24.2876 27.3121 24.2855 27.2091V16.7366H27.4849L28.0492 27.2532C28.0529 27.3559 28.0759 27.4568 28.1169 27.55C28.1579 27.6432 28.2159 27.7268 28.2878 27.7959C28.3596 27.8651 28.4437 27.9184 28.5352 27.9528C28.6267 27.9871 28.7238 28.0018 28.8207 27.996C28.9177 27.9902 29.0125 27.9641 29.0998 27.919C29.1871 27.874 29.265 27.811 29.329 27.7337C29.3931 27.6565 29.4419 27.5665 29.4727 27.469C29.5035 27.3715 29.5156 27.2685 29.5084 27.1661L28.9045 15.9196C28.894 15.7224 28.8126 15.537 28.677 15.4013C28.5415 15.2656 28.362 15.1899 28.1755 15.1898H23.5542Z" fill="#DBDCE8"/>
<path d="M23.0812 26.4361C22.9839 26.4338 22.8871 26.4521 22.7966 26.49C22.706 26.5278 22.6235 26.5844 22.5539 26.6565C22.4843 26.7285 22.429 26.8145 22.3912 26.9095C22.3535 27.0045 22.334 27.1065 22.334 27.2096C22.334 27.3126 22.3535 27.4146 22.3912 27.5096C22.429 27.6046 22.4843 27.6906 22.5539 27.7627C22.6235 27.8347 22.706 27.8913 22.7966 27.9292C22.8871 27.967 22.9839 27.9853 23.0812 27.983H29.2528C29.3501 27.9853 29.4469 27.967 29.5375 27.9292C29.628 27.8913 29.7105 27.8347 29.7801 27.7627C29.8497 27.6906 29.905 27.6046 29.9428 27.5096C29.9805 27.4146 30 27.3126 30 27.2096C30 27.1065 29.9805 27.0045 29.9428 26.9095C29.905 26.8145 29.8497 26.7285 29.7801 26.6565C29.7105 26.5844 29.628 26.5278 29.5375 26.49C29.4469 26.4521 29.3501 26.4338 29.2528 26.4361H23.0812Z" fill="#DBDCE8"/>
<path d="M24.4031 13.0002C24.3058 12.9979 24.209 13.0162 24.1185 13.054C24.0279 13.0919 23.9454 13.1485 23.8758 13.2205C23.8062 13.2926 23.7509 13.3786 23.7131 13.4736C23.6754 13.5686 23.6559 13.6706 23.6559 13.7736C23.6559 13.8767 23.6754 13.9787 23.7131 14.0737C23.7509 14.1687 23.8062 14.2547 23.8758 14.3267C23.9454 14.3988 24.0279 14.4554 24.1185 14.4932C24.209 14.5311 24.3058 14.5494 24.4031 14.5471H27.327C27.4243 14.5494 27.5211 14.5311 27.6116 14.4932C27.7022 14.4554 27.7847 14.3988 27.8543 14.3267C27.9239 14.2547 27.9792 14.1687 28.017 14.0737C28.0547 13.9787 28.0742 13.8767 28.0742 13.7736C28.0742 13.6706 28.0547 13.5686 28.017 13.4736C27.9792 13.3786 27.9239 13.2926 27.8543 13.2205C27.7847 13.1485 27.7022 13.0919 27.6116 13.054C27.5211 13.0162 27.4243 12.9979 27.327 13.0002H24.4031Z" fill="#DBDCE8"/>
<path d="M16.1234 13.0455C15.9296 13.048 15.7448 13.1191 15.6098 13.2432C15.4747 13.3673 15.4004 13.5342 15.4031 13.7073V15.5073C15.4031 15.6805 15.4801 15.8466 15.6173 15.969C15.7544 16.0915 15.9404 16.1603 16.1343 16.1603C16.3283 16.1603 16.5143 16.0915 16.6514 15.969C16.7885 15.8466 16.8656 15.6805 16.8656 15.5073V13.7073C16.867 13.6199 16.8487 13.5332 16.8119 13.4523C16.775 13.3714 16.7204 13.2979 16.6512 13.2362C16.582 13.1745 16.4996 13.1258 16.4089 13.0931C16.3183 13.0603 16.2212 13.0441 16.1234 13.0455Z" fill="#DBDCE8"/>
<path d="M13.8242 15.1898C13.6374 15.1896 13.4577 15.2652 13.3219 15.4009C13.1862 15.5366 13.1046 15.7222 13.0941 15.9196L12.4913 27.1661C12.4841 27.2685 12.4962 27.3715 12.527 27.469C12.5578 27.5665 12.6066 27.6565 12.6706 27.7337C12.7347 27.811 12.8126 27.874 12.8999 27.919C12.9871 27.9641 13.082 27.9902 13.1789 27.996C13.2759 28.0018 13.3729 27.9871 13.4644 27.9528C13.556 27.9184 13.6401 27.8651 13.7119 27.7959C13.7837 27.7268 13.8418 27.6432 13.8828 27.55C13.9237 27.4568 13.9467 27.3559 13.9505 27.2532L14.5148 16.7366H17.7131V27.2091C17.7131 27.4143 17.7902 27.6112 17.9273 27.7564C18.0644 27.9015 18.2504 27.9831 18.4443 27.9831C18.6383 27.9831 18.8243 27.9015 18.9614 27.7564C19.0985 27.6112 19.1756 27.4143 19.1756 27.2091V15.9638C19.1756 15.8621 19.1567 15.7614 19.12 15.6675C19.0833 15.5736 19.0294 15.4882 18.9615 15.4163C18.8936 15.3445 18.813 15.2874 18.7242 15.2486C18.6355 15.2097 18.5404 15.1897 18.4443 15.1898H13.8242Z" fill="#DBDCE8"/>
<path d="M12.7472 26.4361C12.6499 26.4338 12.5531 26.4521 12.4625 26.49C12.372 26.5278 12.2895 26.5844 12.2199 26.6565C12.1503 26.7285 12.095 26.8145 12.0572 26.9095C12.0195 27.0045 12 27.1065 12 27.2096C12 27.3126 12.0195 27.4146 12.0572 27.5096C12.095 27.6046 12.1503 27.6906 12.2199 27.7627C12.2895 27.8347 12.372 27.8913 12.4625 27.9292C12.5531 27.967 12.6499 27.9853 12.7472 27.983H18.9188C19.0161 27.9853 19.1129 27.967 19.2034 27.9292C19.294 27.8913 19.3765 27.8347 19.4461 27.7627C19.5157 27.6906 19.571 27.6046 19.6088 27.5096C19.6465 27.4146 19.666 27.3126 19.666 27.2096C19.666 27.1065 19.6465 27.0045 19.6088 26.9095C19.571 26.8145 19.5157 26.7285 19.4461 26.6565C19.3765 26.5844 19.294 26.5278 19.2034 26.49C19.1129 26.4521 19.0161 26.4338 18.9188 26.4361H12.7472Z" fill="#DBDCE8"/>
<path d="M14.6731 13.0002C14.5757 12.9979 14.4789 13.0162 14.3884 13.054C14.2978 13.0919 14.2153 13.1485 14.1457 13.2205C14.0761 13.2926 14.0208 13.3786 13.9831 13.4736C13.9453 13.5686 13.9258 13.6706 13.9258 13.7736C13.9258 13.8767 13.9453 13.9787 13.9831 14.0737C14.0208 14.1687 14.0761 14.2547 14.1457 14.3267C14.2153 14.3988 14.2978 14.4554 14.3884 14.4932C14.4789 14.5311 14.5757 14.5494 14.6731 14.5471H17.5958C17.6931 14.5494 17.7899 14.5311 17.8805 14.4932C17.971 14.4554 18.0535 14.3988 18.1231 14.3267C18.1927 14.2547 18.248 14.1687 18.2858 14.0737C18.3235 13.9787 18.343 13.8767 18.343 13.7736C18.343 13.6706 18.3235 13.5686 18.2858 13.4736C18.248 13.3786 18.1927 13.2926 18.1231 13.2205C18.0535 13.1485 17.971 13.0919 17.8805 13.054C17.7899 13.0162 17.6931 12.9979 17.5958 13.0002H14.6731Z" fill="#DBDCE8"/>
<path d="M13.4972 22.6777C13.3999 22.6754 13.3031 22.6937 13.2125 22.7316C13.122 22.7694 13.0395 22.826 12.9699 22.898C12.9003 22.9701 12.845 23.0561 12.8072 23.1511C12.7694 23.2461 12.75 23.3481 12.75 23.4512C12.75 23.5542 12.7694 23.6562 12.8072 23.7512C12.845 23.8462 12.9003 23.9322 12.9699 24.0043C13.0395 24.0763 13.122 24.1329 13.2125 24.1708C13.3031 24.2086 13.3999 24.2269 13.4972 24.2246H18.2689C18.3662 24.2269 18.463 24.2086 18.5536 24.1708C18.6441 24.1329 18.7266 24.0763 18.7962 24.0043C18.8658 23.9322 18.9212 23.8462 18.9589 23.7512C18.9967 23.6562 19.0161 23.5542 19.0161 23.4512C19.0161 23.3481 18.9967 23.2461 18.9589 23.1511C18.9212 23.0561 18.8658 22.9701 18.7962 22.898C18.7266 22.826 18.6441 22.7694 18.5536 22.7316C18.463 22.6937 18.3662 22.6754 18.2689 22.6777H13.4972Z" fill="#DBDCE8"/>
<path d="M23.7354 22.6777C23.6381 22.6754 23.5413 22.6937 23.4507 22.7316C23.3602 22.7694 23.2777 22.826 23.2081 22.898C23.1385 22.9701 23.0831 23.0561 23.0454 23.1511C23.0076 23.2461 22.9882 23.3481 22.9882 23.4512C22.9882 23.5542 23.0076 23.6562 23.0454 23.7512C23.0831 23.8462 23.1385 23.9322 23.2081 24.0043C23.2777 24.0763 23.3602 24.1329 23.4507 24.1708C23.5413 24.2086 23.6381 24.2269 23.7354 24.2246H28.5071C28.6044 24.2269 28.7012 24.2086 28.7917 24.1708C28.8823 24.1329 28.9648 24.0763 29.0344 24.0043C29.104 23.9322 29.1593 23.8462 29.1971 23.7512C29.2348 23.6562 29.2543 23.5542 29.2543 23.4512C29.2543 23.3481 29.2348 23.2461 29.1971 23.1511C29.1593 23.0561 29.104 22.9701 29.0344 22.898C28.9648 22.826 28.8823 22.7694 28.7917 22.7316C28.7012 22.6937 28.6044 22.6754 28.5071 22.6777H23.7354Z" fill="#DBDCE8"/>
<path d="M18.6212 16.7377C18.5306 16.7354 18.4405 16.7537 18.3562 16.7916C18.272 16.8294 18.1952 16.886 18.1304 16.958C18.0656 17.0301 18.0141 17.1161 17.9789 17.2111C17.9438 17.3061 17.9257 17.4081 17.9257 17.5112C17.9257 17.6142 17.9438 17.7162 17.9789 17.8112C18.0141 17.9062 18.0656 17.9922 18.1304 18.0643C18.1952 18.1363 18.272 18.1929 18.3562 18.2308C18.4405 18.2686 18.5306 18.2869 18.6212 18.2846H23.3777C23.4683 18.2869 23.5584 18.2686 23.6427 18.2308C23.727 18.1929 23.8037 18.1363 23.8685 18.0643C23.9333 17.9922 23.9848 17.9062 24.02 17.8112C24.0551 17.7162 24.0732 17.6142 24.0732 17.5112C24.0732 17.4081 24.0551 17.3061 24.02 17.2111C23.9848 17.1161 23.9333 17.0301 23.8685 16.958C23.8037 16.886 23.727 16.8294 23.6427 16.7916C23.5584 16.7537 23.4683 16.7354 23.3777 16.7377H18.6212Z" fill="#DBDCE8"/>
<path d="M18.6212 20.5637C18.5306 20.5614 18.4405 20.5797 18.3563 20.6175C18.272 20.6553 18.1952 20.7119 18.1304 20.784C18.0656 20.856 18.0141 20.9421 17.9789 21.0371C17.9438 21.1321 17.9257 21.2341 17.9257 21.3371C17.9257 21.4402 17.9438 21.5422 17.9789 21.6372C18.0141 21.7321 18.0656 21.8182 18.1304 21.8902C18.1952 21.9623 18.272 22.0189 18.3563 22.0567C18.4405 22.0946 18.5306 22.1129 18.6212 22.1105H23.3777C23.4683 22.1129 23.5584 22.0946 23.6427 22.0567C23.727 22.0189 23.8038 21.9623 23.8686 21.8902C23.9334 21.8182 23.9848 21.7321 24.02 21.6372C24.0551 21.5422 24.0732 21.4402 24.0732 21.3371C24.0732 21.2341 24.0551 21.1321 24.02 21.0371C23.9848 20.9421 23.9334 20.856 23.8686 20.784C23.8038 20.7119 23.727 20.6553 23.6427 20.6175C23.5584 20.5797 23.4683 20.5614 23.3777 20.5637H18.6212Z" fill="#DBDCE8"/>
</svg>
