<svg width="42" height="42" viewBox="0 0 42 42" fill="none" xmlns="http://www.w3.org/2000/svg">
<circle cx="21" cy="21" r="21" fill="#AAA3B4"/>
<path d="M26.9767 23.4663C26.8499 23.4633 26.7237 23.4868 26.6057 23.5355C26.4877 23.5841 26.3801 23.6569 26.2894 23.7495C26.1987 23.8422 26.1266 23.9528 26.0774 24.0749C26.0282 24.197 26.0028 24.3282 26.0028 24.4606C26.0028 24.5931 26.0282 24.7243 26.0774 24.8464C26.1266 24.9685 26.1987 25.0791 26.2894 25.1718C26.3801 25.2644 26.4877 25.3372 26.6057 25.3858C26.7237 25.4344 26.8499 25.458 26.9767 25.455H28.9287C29.0556 25.458 29.1817 25.4344 29.2997 25.3858C29.4178 25.3372 29.5253 25.2644 29.616 25.1718C29.7068 25.0791 29.7788 24.9685 29.8281 24.8464C29.8773 24.7243 29.9026 24.5931 29.9026 24.4606C29.9026 24.3282 29.8773 24.197 29.8281 24.0749C29.7788 23.9528 29.7068 23.8422 29.616 23.7495C29.5253 23.6569 29.4178 23.5841 29.2997 23.5355C29.1817 23.4868 29.0556 23.4633 28.9287 23.4663H26.9767Z" fill="#EDEEF3"/>
<path d="M14.0728 23.4663C13.9459 23.4633 13.8197 23.4868 13.7017 23.5355C13.5837 23.5841 13.4762 23.6569 13.3854 23.7495C13.2947 23.8422 13.2226 23.9528 13.1734 24.0749C13.1242 24.197 13.0988 24.3282 13.0988 24.4606C13.0988 24.5931 13.1242 24.7243 13.1734 24.8464C13.2226 24.9685 13.2947 25.0791 13.3854 25.1718C13.4762 25.2644 13.5837 25.3372 13.7017 25.3858C13.8197 25.4344 13.9459 25.458 14.0728 25.455H16.0233C16.1502 25.458 16.2763 25.4344 16.3943 25.3858C16.5124 25.3372 16.6199 25.2644 16.7106 25.1718C16.8014 25.0791 16.8734 24.9685 16.9227 24.8464C16.9719 24.7243 16.9972 24.5931 16.9972 24.4606C16.9972 24.3282 16.9719 24.197 16.9227 24.0749C16.8734 23.9528 16.8014 23.8422 16.7106 23.7495C16.6199 23.6569 16.5124 23.5841 16.3943 23.5355C16.2763 23.4868 16.1502 23.4633 16.0233 23.4663H14.0728Z" fill="#EDEEF3"/>
<path d="M21.4857 12.0001C21.2334 12.0043 20.993 12.1129 20.8172 12.302C20.6415 12.4911 20.5448 12.7452 20.5483 13.0087V22.1036C20.5455 22.2361 20.568 22.3678 20.6146 22.491C20.6612 22.6143 20.7309 22.7265 20.8196 22.8213C20.9083 22.916 21.0143 22.9912 21.1313 23.0426C21.2482 23.094 21.3738 23.1205 21.5007 23.1205C21.6276 23.1205 21.7532 23.094 21.8702 23.0426C21.9872 22.9912 22.0931 22.916 22.1818 22.8213C22.2705 22.7265 22.3402 22.6143 22.3868 22.491C22.4334 22.3678 22.4559 22.2361 22.4531 22.1036V13.0087C22.4549 12.8756 22.4311 12.7435 22.3831 12.6202C22.3351 12.4968 22.2639 12.3848 22.1737 12.2908C22.0835 12.1967 21.9761 12.1226 21.8579 12.0726C21.7397 12.0227 21.6132 11.998 21.4857 12.0001Z" fill="#EDEEF3"/>
<path d="M14.1171 21.1085C13.8643 21.1085 13.6219 21.2134 13.4431 21.4C13.2644 21.5866 13.164 21.8397 13.164 22.1036C13.164 22.3676 13.2644 22.6207 13.4431 22.8073C13.6219 22.9939 13.8643 23.0987 14.1171 23.0987H28.8843C29.1371 23.0987 29.3795 22.9939 29.5582 22.8073C29.737 22.6207 29.8374 22.3676 29.8374 22.1036C29.8374 21.8397 29.737 21.5866 29.5582 21.4C29.3795 21.2134 29.1371 21.1085 28.8843 21.1085H14.1171Z" fill="#EDEEF3"/>
<path d="M16.7645 12.0136C14.7933 12.0136 13.3147 13.8418 13.2799 15.9283L13.0738 26.9208C13.0713 27.053 13.094 27.1844 13.1407 27.3073C13.1874 27.4302 13.257 27.5422 13.3457 27.6367C13.4343 27.7311 13.54 27.8062 13.6568 27.8575C13.7735 27.9088 13.8988 27.9352 14.0255 27.9353H28.9745C29.1012 27.9354 29.2267 27.9091 29.3436 27.8579C29.4605 27.8067 29.5664 27.7317 29.6552 27.6372C29.744 27.5427 29.8138 27.4307 29.8605 27.3077C29.9073 27.1846 29.9301 27.0531 29.9275 26.9208L29.7215 15.9268C29.6824 13.8434 28.2069 12.0136 26.2354 12.0136H16.7645ZM16.7645 14.0038H26.2354C27.0706 14.0038 27.7948 14.7967 27.8167 15.9656L28.0042 25.9466H14.9972L15.1846 15.9656C15.1846 15.9646 15.1846 15.9636 15.1846 15.9627C15.2041 14.7957 15.9291 14.0038 16.7645 14.0038Z" fill="#EDEEF3"/>
<path d="M16.1206 25.9317C15.8683 25.9358 15.6279 26.0444 15.4521 26.2335C15.2764 26.4226 15.1797 26.6768 15.1833 26.9402V27.9831C15.1804 28.1156 15.203 28.2473 15.2495 28.3705C15.2961 28.4938 15.3658 28.606 15.4545 28.7008C15.5433 28.7955 15.6492 28.8707 15.7662 28.9221C15.8831 28.9735 16.0087 29 16.1356 29C16.2625 29 16.3881 28.9735 16.5051 28.9221C16.6221 28.8707 16.728 28.7955 16.8167 28.7008C16.9054 28.606 16.9751 28.4938 17.0217 28.3705C17.0683 28.2473 17.0909 28.1156 17.088 27.9831V26.9402C17.0898 26.8071 17.066 26.675 17.018 26.5517C16.97 26.4284 16.8988 26.3164 16.8086 26.2223C16.7184 26.1283 16.611 26.0541 16.4928 26.0042C16.3747 25.9542 16.2481 25.9296 16.1206 25.9317Z" fill="#EDEEF3"/>
<path d="M26.5918 25.9317C26.3394 25.9358 26.099 26.0444 25.9233 26.2335C25.7475 26.4226 25.6508 26.6768 25.6544 26.9402V27.9831C25.6516 28.1156 25.6741 28.2473 25.7207 28.3705C25.7673 28.4938 25.837 28.606 25.9257 28.7008C26.0144 28.7955 26.1204 28.8708 26.2373 28.9221C26.3543 28.9735 26.4799 29 26.6068 29C26.7337 29 26.8593 28.9735 26.9763 28.9221C27.0932 28.8708 27.1992 28.7955 27.2879 28.7008C27.3766 28.606 27.4463 28.4938 27.4929 28.3705C27.5395 28.2473 27.562 28.1156 27.5592 27.9831V26.9402C27.561 26.8071 27.5372 26.675 27.4892 26.5517C27.4412 26.4284 27.37 26.3164 27.2798 26.2223C27.1895 26.1283 27.0822 26.0541 26.964 26.0042C26.8458 25.9542 26.7192 25.9296 26.5918 25.9317Z" fill="#EDEEF3"/>
<path d="M28.5709 14.9735C28.446 14.9978 28.327 15.048 28.2209 15.121C28.1149 15.1941 28.0239 15.2886 27.9533 15.3989C27.8827 15.5092 27.834 15.6332 27.81 15.7635C27.7861 15.8938 27.7873 16.0277 27.8136 16.1575C27.84 16.2873 27.8909 16.4103 27.9635 16.5192C28.036 16.6281 28.1287 16.7208 28.2361 16.7917C28.3435 16.8627 28.4634 16.9105 28.5887 16.9323C28.714 16.9541 28.8423 16.9496 28.9659 16.9189C29.4001 16.8228 29.8441 16.8463 30.095 16.9114V17.778C30.0922 17.9105 30.1147 18.0422 30.1613 18.1654C30.2079 18.2887 30.2776 18.4009 30.3663 18.4957C30.455 18.5904 30.561 18.6656 30.6779 18.717C30.7949 18.7684 30.9205 18.7949 31.0474 18.7949C31.1743 18.7949 31.2999 18.7684 31.4169 18.717C31.5338 18.6656 31.6398 18.5904 31.7285 18.4957C31.8172 18.4009 31.8869 18.2887 31.9335 18.1654C31.9801 18.0422 32.0026 17.9105 31.9998 17.778V16.5274C31.9998 16.0212 31.7066 15.6129 31.4345 15.3948C31.1624 15.1768 30.8789 15.0656 30.5787 14.9854C29.9783 14.825 29.2913 14.8142 28.5709 14.9735Z" fill="#EDEEF3"/>
<path d="M14.4291 14.9735C13.7087 14.8141 13.0217 14.825 12.4213 14.9854C12.1211 15.0656 11.8376 15.1768 11.5655 15.3948C11.2934 15.6129 11.0002 16.0212 11.0002 16.5274V17.778C10.9974 17.9105 11.0199 18.0422 11.0665 18.1654C11.1131 18.2887 11.1828 18.4009 11.2715 18.4957C11.3602 18.5904 11.4662 18.6656 11.5831 18.717C11.7001 18.7684 11.8257 18.7949 11.9526 18.7949C12.0795 18.7949 12.2051 18.7684 12.3221 18.717C12.439 18.6656 12.545 18.5904 12.6337 18.4957C12.7224 18.4009 12.7921 18.2887 12.8387 18.1654C12.8853 18.0422 12.9078 17.9105 12.905 17.778V16.9114C13.1559 16.8463 13.5999 16.8228 14.0341 16.9189C14.1577 16.9496 14.286 16.9541 14.4113 16.9323C14.5367 16.9105 14.6565 16.8627 14.7639 16.7917C14.8713 16.7208 14.964 16.6281 15.0365 16.5192C15.1091 16.4103 15.16 16.2873 15.1864 16.1575C15.2127 16.0277 15.2139 15.8938 15.19 15.7635C15.166 15.6332 15.1172 15.5092 15.0467 15.3989C14.9761 15.2886 14.8851 15.1941 14.7791 15.121C14.673 15.048 14.554 14.9978 14.4291 14.9735Z" fill="#EDEEF3"/>
</svg>
