<svg width="42" height="42" viewBox="0 0 42 42" fill="none" xmlns="http://www.w3.org/2000/svg">
<circle cx="21" cy="21" r="21" fill="#6E3F52"/>
<path d="M20.9875 12.7309C20.7756 12.7343 20.5737 12.823 20.4261 12.9775C20.2785 13.132 20.1973 13.3396 20.2003 13.5548V27.5867C20.1979 27.6949 20.2168 27.8025 20.2559 27.9032C20.2951 28.0038 20.3536 28.0956 20.4281 28.173C20.5026 28.2503 20.5916 28.3118 20.6898 28.3538C20.788 28.3958 20.8935 28.4174 21.0001 28.4174C21.1066 28.4174 21.2121 28.3958 21.3103 28.3538C21.4086 28.3118 21.4975 28.2503 21.572 28.173C21.6465 28.0956 21.7051 28.0038 21.7442 27.9032C21.7833 27.8025 21.8022 27.6949 21.7999 27.5867V13.5548C21.8014 13.4461 21.7814 13.3382 21.7411 13.2374C21.7008 13.1367 21.641 13.0452 21.5652 12.9683C21.4894 12.8915 21.3993 12.8309 21.3 12.7901C21.2008 12.7493 21.0945 12.7292 20.9875 12.7309Z" fill="#DBDCE8"/>
<path d="M17.906 10.0002C17.7078 10.0003 17.5167 10.0752 17.3697 10.2103C17.2227 10.3454 17.1303 10.5311 17.1105 10.7314L17.0023 11.8166C16.9913 11.9281 16.9576 12.0057 16.8281 12.1413C16.6985 12.277 16.4709 12.4391 16.1815 12.5991C15.6027 12.9191 14.8067 13.2161 14.1036 13.6782C14.0955 13.6833 14.0875 13.6886 14.0796 13.694C12.7152 14.6641 12.1441 15.8532 12.0342 17.0912C11.9243 18.3293 12.122 19.6074 12.039 21.3587C12.0383 21.3718 12.0379 21.3848 12.0378 21.3978V28.1665C12.0378 29.1399 12.7982 30 13.778 30H15.4364C16.4161 30 17.1766 29.1399 17.1766 28.1665V18.1898C17.179 18.0816 17.16 17.974 17.1209 17.8733C17.0818 17.7727 17.0233 17.6809 16.9488 17.6035C16.8743 17.5261 16.7853 17.4647 16.6871 17.4227C16.5888 17.3807 16.4834 17.3591 16.3768 17.3591C16.2702 17.3591 16.1647 17.3807 16.0665 17.4227C15.9683 17.4647 15.8793 17.5261 15.8048 17.6035C15.7303 17.6809 15.6718 17.7727 15.6327 17.8733C15.5935 17.974 15.5746 18.0816 15.577 18.1898V28.1665C15.577 28.3241 15.4982 28.3753 15.4364 28.3753H13.778C13.7162 28.3753 13.6373 28.3241 13.6373 28.1665V21.3978L13.6361 21.4369C13.7263 19.5342 13.5451 18.168 13.6277 17.2377C13.71 16.3106 13.9058 15.8069 14.9905 15.0331C15.4669 14.7235 16.2268 14.4249 16.9458 14.0273C17.3084 13.8268 17.6665 13.5966 17.9757 13.2729C18.285 12.9492 18.543 12.5003 18.5946 11.979L18.6295 11.625H23.3981L23.433 11.979C23.5356 13.0156 24.345 13.623 25.0638 14.0248C25.7765 14.4233 26.5308 14.722 27.0095 15.0331C28.0942 15.8069 28.29 16.3106 28.3723 17.2377C28.4549 18.168 28.2725 19.5342 28.3627 21.4369L28.3614 21.3978V28.1665C28.3614 28.324 28.2837 28.3753 28.222 28.3753H26.5624C26.5006 28.3753 26.423 28.3241 26.423 28.1665V18.1898C26.423 17.9742 26.3386 17.7674 26.1885 17.615C26.0384 17.4625 25.8349 17.3769 25.6226 17.3769C25.4103 17.3769 25.2067 17.4625 25.0566 17.615C24.9065 17.7674 24.8222 17.9742 24.8222 18.1898V28.1665C24.8223 29.1399 25.5827 30 26.5624 30H28.2221C29.2018 30 29.9622 29.1399 29.9622 28.1665V21.3978C29.9621 21.3848 29.9617 21.3718 29.961 21.3587C29.878 19.6074 30.0757 18.3293 29.9658 17.0912C29.8559 15.8532 29.2836 14.6641 27.9192 13.694C27.9113 13.6886 27.9033 13.6833 27.8952 13.6782C27.1946 13.2177 26.4064 12.9208 25.8354 12.6015C25.2643 12.2823 25.048 12.0454 25.0254 11.8166L24.9172 10.7314C24.8973 10.5311 24.805 10.3454 24.658 10.2103C24.511 10.0752 24.3199 10.0003 24.1216 10.0002H17.906Z" fill="#DBDCE8"/>
<path d="M17.6008 10.0002C17.4942 9.99778 17.3883 10.017 17.2892 10.0567C17.1901 10.0965 17.0998 10.1559 17.0236 10.2316C16.9474 10.3073 16.8868 10.3977 16.8455 10.4974C16.8042 10.5972 16.7829 10.7043 16.7829 10.8126C16.7829 10.9208 16.8042 11.028 16.8455 11.1277C16.8868 11.2275 16.9474 11.3179 17.0236 11.3935C17.0998 11.4692 17.1901 11.5287 17.2892 11.5684C17.3883 11.6081 17.4942 11.6274 17.6008 11.6249H24.3992C24.5058 11.6274 24.6117 11.6081 24.7108 11.5684C24.8099 11.5287 24.9002 11.4692 24.9764 11.3935C25.0526 11.3179 25.1132 11.2275 25.1545 11.1277C25.1958 11.028 25.2171 10.9208 25.2171 10.8126C25.2171 10.7043 25.1958 10.5972 25.1545 10.4974C25.1132 10.3977 25.0526 10.3073 24.9764 10.2316C24.9002 10.1559 24.8099 10.0965 24.7108 10.0567C24.6117 10.017 24.5058 9.99778 24.3992 10.0002H17.6008Z" fill="#DBDCE8"/>
<path d="M16.3775 26.7737C16.2709 26.7713 16.165 26.7905 16.0659 26.8303C15.9668 26.87 15.8765 26.9294 15.8003 27.0051C15.7241 27.0808 15.6635 27.1712 15.6222 27.2709C15.5809 27.3707 15.5596 27.4778 15.5596 27.5861C15.5596 27.6943 15.5809 27.8015 15.6222 27.9012C15.6635 28.001 15.7241 28.0914 15.8003 28.1671C15.8765 28.2427 15.9668 28.3022 16.0659 28.3419C16.165 28.3817 16.2709 28.4009 16.3775 28.3985H25.6227C25.7293 28.4009 25.8352 28.3817 25.9343 28.3419C26.0334 28.3022 26.1237 28.2427 26.1999 28.1671C26.2761 28.0914 26.3367 28.001 26.378 27.9012C26.4193 27.8015 26.4406 27.6943 26.4406 27.5861C26.4406 27.4778 26.4193 27.3707 26.378 27.2709C26.3367 27.1712 26.2761 27.0808 26.1999 27.0051C26.1237 26.9294 26.0334 26.87 25.9343 26.8303C25.8352 26.7905 25.7293 26.7713 25.6227 26.7737H16.3775Z" fill="#DBDCE8"/>
<path d="M17.6008 10.0002C17.4942 9.99778 17.3883 10.017 17.2892 10.0567C17.1901 10.0965 17.0998 10.1559 17.0236 10.2316C16.9474 10.3073 16.8868 10.3977 16.8455 10.4974C16.8042 10.5972 16.7829 10.7043 16.7829 10.8126C16.7829 10.9208 16.8042 11.028 16.8455 11.1277C16.8868 11.2275 16.9474 11.3179 17.0236 11.3935C17.0998 11.4692 17.1901 11.5287 17.2892 11.5684C17.3883 11.6081 17.4942 11.6274 17.6008 11.6249H24.3992C24.5058 11.6274 24.6117 11.6081 24.7108 11.5684C24.8099 11.5287 24.9002 11.4692 24.9764 11.3935C25.0526 11.3179 25.1132 11.2275 25.1545 11.1277C25.1958 11.028 25.2171 10.9208 25.2171 10.8126C25.2171 10.7043 25.1958 10.5972 25.1545 10.4974C25.1132 10.3977 25.0526 10.3073 24.9764 10.2316C24.9002 10.1559 24.8099 10.0965 24.7108 10.0567C24.6117 10.017 24.5058 9.99778 24.3992 10.0002H17.6008Z" fill="#DBDCE8"/>
</svg>
