<?xml version="1.0" encoding="utf-8"?><svg xmlns="http://www.w3.org/2000/svg" xmlns:xlink="http://www.w3.org/1999/xlink"><symbol viewBox="0 0 20 12" id="dropdown" xmlns="http://www.w3.org/2000/svg"><path d="M18 2l-7.84 8L2 2"/></symbol><symbol viewBox="0 0 8 17" id="fb" xmlns="http://www.w3.org/2000/svg"><path d="M7.017 8.47H4.875v7.844H1.631V8.47H.088V5.713h1.543V3.929c0-1.276.606-3.274 3.273-3.274l2.403.01v2.676H5.564c-.286 0-.688.143-.688.752v1.622H7.3L7.017 8.47z" fill="#DBDCE8"/></symbol><symbol viewBox="0 0 16 16" id="in" xmlns="http://www.w3.org/2000/svg"><path d="M11.585 0h-7.17A4.42 4.42 0 000 4.415v7.17A4.42 4.42 0 004.415 16h7.17A4.42 4.42 0 0016 11.585v-7.17A4.42 4.42 0 0011.585 0zm2.995 11.585a3 3 0 01-2.995 2.995h-7.17a3 3 0 01-2.995-2.995v-7.17A3 3 0 014.415 1.42h7.17a3 3 0 012.995 2.995v7.17z" fill="#DBDCE8"/><path d="M8 3.877A4.127 4.127 0 003.877 8 4.127 4.127 0 008 12.123 4.127 4.127 0 0012.123 8 4.127 4.127 0 008 3.877zm0 6.826A2.706 2.706 0 015.297 8 2.706 2.706 0 018 5.297 2.706 2.706 0 0110.703 8 2.706 2.706 0 018 10.703zM12.296 2.674a1.045 1.045 0 00-1.041 1.04c0 .274.111.543.305.737.193.193.462.305.736.305.274 0 .542-.112.736-.305a1.046 1.046 0 000-1.473 1.046 1.046 0 00-.736-.304z" fill="#DBDCE8"/></symbol><symbol viewBox="0 0 14 11" id="video" xmlns="http://www.w3.org/2000/svg"><path d="M14 9.306V1.694a.409.409 0 00-.043-.183.348.348 0 00-.118-.135.292.292 0 00-.322 0L9.939 3.73V2.338c0-.488-.17-.955-.472-1.3A1.518 1.518 0 008.327.5H1.612C1.184.5.774.694.472 1.038A1.976 1.976 0 000 2.338v6.324c0 .488.17.955.472 1.3.302.344.712.538 1.14.538h6.716c.211 0 .421-.047.616-.14.196-.092.374-.228.523-.398.15-.17.269-.373.35-.596.08-.223.122-.462.122-.704V7.27l3.578 2.355a.292.292 0 00.322 0 .348.348 0 00.118-.134.409.409 0 00.043-.184v-.001z"/></symbol><symbol viewBox="0 0 17 10" id="vk" xmlns="http://www.w3.org/2000/svg"><path fill-rule="evenodd" clip-rule="evenodd" d="M8.317 9.958h1.017s.307-.035.463-.209c.144-.16.14-.46.14-.46s-.02-1.406.613-1.613c.624-.204 1.425 1.359 2.274 1.96.642.454 1.13.355 1.13.355l2.27-.033s1.188-.075.625-1.038c-.047-.079-.329-.712-1.688-2.014-1.424-1.362-1.233-1.142.481-3.499 1.045-1.435 1.462-2.311 1.332-2.686-.125-.358-.893-.263-.893-.263l-2.556.016s-.19-.026-.33.06c-.137.085-.226.283-.226.283s-.404 1.11-.944 2.055c-1.138 1.993-1.593 2.098-1.78 1.975-.432-.289-.324-1.16-.324-1.777 0-1.932.284-2.737-.553-2.945C9.09.055 8.886.01 8.175.002c-.912-.01-1.684.003-2.121.224-.29.147-.515.474-.379.493.17.023.552.106.755.391.262.367.253 1.193.253 1.193s.15 2.273-.352 2.556c-.345.193-.817-.202-1.832-2.01-.52-.926-.912-1.95-.912-1.95S3.51.708 3.376.605a1.04 1.04 0 00-.393-.163L.554.458S.189.468.055.632c-.119.146-.009.446-.009.446s1.902 4.588 4.055 6.9c1.974 2.12 4.216 1.98 4.216 1.98z" fill="#DBDCE8"/></symbol></svg>