<svg width="74" height="74" viewBox="0 0 74 74" fill="none" xmlns="http://www.w3.org/2000/svg">
<circle cx="37.7992" cy="37.8" r="29.6" stroke="#463848" stroke-width="0.4"/>
<rect x="1" y="29.8" width="14.4" height="14.4" rx="7.2" fill="#EDEEF3"/>
<path d="M11.4366 34.2L10.1326 38.168L8.85261 34.2H7.65261L6.33261 38.136L5.06861 34.2H3.72461L5.56461 39.8H6.94861L8.22061 36.008L9.45261 39.8H10.8446L12.6766 34.2H11.4366Z" fill="#463848"/>
<rect x="1" y="29.8" width="14.4" height="14.4" rx="7.2" stroke="#463848" stroke-width="0.4"/>
<rect x="58.5996" y="29.8" width="14.4" height="14.4" rx="7.2" fill="#EDEEF3"/>
<path d="M64.9189 38.76V37.464H67.5189V36.456H64.9189V35.24H67.8629V34.2H63.6309V39.8H67.9669V38.76H64.9189Z" fill="#463848"/>
<rect x="58.5996" y="29.8" width="14.4" height="14.4" rx="7.2" stroke="#463848" stroke-width="0.4"/>
<rect x="29.8008" y="1" width="14.4" height="14.4" rx="7.2" fill="#463848"/>
<path d="M38.2896 5.4V8.8L35.5056 5.4H34.4336V11H35.7136V7.6L38.5056 11H39.5696V5.4H38.2896Z" fill="#EDEEF3"/>
<rect x="29.8008" y="1" width="14.4" height="14.4" rx="7.2" stroke="#463848" stroke-width="0.4"/>
<rect x="29.8008" y="58.6" width="14.4" height="14.4" rx="7.2" fill="#EDEEF3"/>
<path d="M36.9519 68.696C38.5519 68.696 39.3279 67.896 39.3279 66.96C39.3279 64.904 36.0719 65.616 36.0719 64.584C36.0719 64.232 36.3679 63.944 37.1359 63.944C37.6319 63.944 38.1679 64.088 38.6879 64.384L39.0879 63.4C38.5679 63.072 37.8479 62.904 37.1439 62.904C35.5519 62.904 34.7839 63.696 34.7839 64.648C34.7839 66.728 38.0399 66.008 38.0399 67.056C38.0399 67.4 37.7279 67.656 36.9599 67.656C36.2879 67.656 35.5839 67.416 35.1119 67.072L34.6719 68.048C35.1679 68.432 36.0639 68.696 36.9519 68.696Z" fill="#463848"/>
<rect x="29.8008" y="58.6" width="14.4" height="14.4" rx="7.2" stroke="#463848" stroke-width="0.4"/>
<path d="M40.3577 35.2923L33.8432 39.0534L46.9098 54.5569C47.0537 54.7277 47.3267 54.57 47.2508 54.3601L40.3577 35.2923Z" fill="#EDEEF3" stroke="#463848" stroke-width="0.4"/>
<path d="M33.5359 38.9997L26.5616 19.7074C26.4098 19.2874 26.9558 18.9721 27.2436 19.3136L40.4641 34.9997L33.5359 38.9997Z" fill="#463848"/>
<circle cx="16.5996" cy="17.4" r="1.8" fill="#EDEEF3" stroke="#463848" stroke-width="0.4"/>
<circle cx="59" cy="17.4" r="1.8" fill="#EDEEF3" stroke="#463848" stroke-width="0.4"/>
<circle cx="16.5996" cy="58.2" r="1.8" fill="#EDEEF3" stroke="#463848" stroke-width="0.4"/>
<circle cx="59" cy="58.2" r="1.8" fill="#EDEEF3" stroke="#463848" stroke-width="0.4"/>
</svg>
