<svg width="64" height="62" viewBox="0 0 64 62" fill="none" xmlns="http://www.w3.org/2000/svg">
<path d="M1.52047 36.8236C1.22224 36.5362 0.747445 36.5449 0.459994 36.8432C0.172544 37.1414 0.181288 37.6162 0.479525 37.9036L1.52047 36.8236ZM14.6765 50.5455L14.156 51.0855C14.2958 51.2202 14.4823 51.2955 14.6765 51.2955V50.5455ZM23.2646 44.7129C23.5579 45.0054 24.0328 45.0047 24.3252 44.7114C24.6177 44.418 24.617 43.9432 24.3237 43.6507L23.2646 44.7129ZM18.3235 44.1818L18.2558 43.4349C18.0219 43.4561 17.8114 43.5857 17.6871 43.785L18.3235 44.1818ZM7.20179 60.6032C6.98265 60.9547 7.08995 61.4173 7.44145 61.6364C7.79294 61.8556 8.25554 61.7483 8.47468 61.3968L7.20179 60.6032ZM35.1912 51.2955C35.6054 51.2955 35.9412 50.9597 35.9412 50.5455C35.9412 50.1312 35.6054 49.7955 35.1912 49.7955V51.2955ZM34.551 61.3908C34.7669 61.7443 35.2284 61.856 35.582 61.6401C35.9355 61.4243 36.0471 60.9627 35.8313 60.6092L34.551 61.3908ZM45.9706 15.0835C45.9664 14.6693 45.6273 14.3368 45.2131 14.3409C44.7989 14.3451 44.4665 14.6842 44.4706 15.0984L45.9706 15.0835ZM49.8556 15.6195C50.1475 15.3257 50.146 14.8508 49.8521 14.5589C49.5583 14.2669 49.0834 14.2685 48.7915 14.5623L49.8556 15.6195ZM45.2206 60.25C44.8064 60.25 44.4706 60.5858 44.4706 61C44.4706 61.4142 44.8064 61.75 45.2206 61.75V60.25ZM39.3638 19.1013C39.0684 18.8111 38.5935 18.8153 38.3032 19.1108C38.0129 19.4062 38.0172 19.8811 38.3126 20.1714L39.3638 19.1013ZM34.412 14.5146L34.6583 15.223L35.4464 14.9489L35.0902 14.1944L34.412 14.5146ZM46.1209 30.5679L46.4927 29.9165L45.9249 29.5925L45.5264 30.1107L46.1209 30.5679ZM52.5563 9.65471L51.8092 9.72002L51.8648 10.3566L52.5021 10.4027L52.5563 9.65471ZM0.479525 37.9036L13.9559 50.8926L14.9968 49.8126L1.52047 36.8236L0.479525 37.9036ZM13.9559 50.8926L14.156 51.0855L15.1969 50.0054L14.9968 49.8126L13.9559 50.8926ZM24.3237 43.6507C24.1997 43.5271 24.0607 43.4606 23.9714 43.4246C23.8735 43.3852 23.7731 43.3581 23.6822 43.3383C23.5005 43.2988 23.2902 43.2746 23.0746 43.2591C22.6398 43.2276 22.0962 43.2254 21.531 43.2388C20.3959 43.2659 19.1018 43.3582 18.2558 43.4349L18.3912 44.9288C19.2169 44.8539 20.4757 44.7644 21.5668 44.7384C22.1147 44.7254 22.6026 44.7288 22.9664 44.7551C23.1503 44.7684 23.2812 44.7862 23.3636 44.8041C23.4048 44.813 23.4172 44.8185 23.4105 44.8158C23.4062 44.8141 23.3904 44.8075 23.3676 44.794C23.3456 44.7808 23.3071 44.7554 23.2646 44.7129L24.3237 43.6507ZM17.6871 43.785L13.8399 49.9558L15.1128 50.7494L18.96 44.5786L17.6871 43.785ZM13.8399 49.9558L7.20179 60.6032L8.47468 61.3968L15.1128 50.7494L13.8399 49.9558ZM14.6765 51.2955H28.8088V49.7955H14.6765V51.2955ZM28.8088 51.2955H35.1912V49.7955H28.8088V51.2955ZM28.1687 50.9363L34.551 61.3908L35.8313 60.6092L29.449 50.1547L28.1687 50.9363ZM46.0092 19.1751C45.9961 17.7236 45.9831 16.3511 45.9706 15.0835L44.4706 15.0984C44.4832 16.3655 44.4962 17.7376 44.5093 19.1886L46.0092 19.1751ZM45.7913 19.7104L49.8556 15.6195L48.7915 14.5623L44.7272 18.6532L45.7913 19.7104ZM45.2206 61.75C45.5054 61.75 45.6913 61.5976 45.7727 61.5113C45.8533 61.4259 45.8958 61.3413 45.914 61.3021C45.9525 61.2193 45.9707 61.1431 45.9784 61.1087C45.9967 61.0277 46.0082 60.9371 46.0167 60.8572C46.0344 60.6885 46.0492 60.4546 46.0621 60.1711C46.0881 59.5992 46.1086 58.7722 46.1246 57.7403C46.1566 55.674 46.1706 52.7594 46.1719 49.3602C46.1744 42.5605 46.1256 33.8081 46.0659 25.9943L44.566 26.0057C44.6257 33.8183 44.6744 42.5659 44.6719 49.3596C44.6706 52.7571 44.6566 55.6625 44.6248 57.7171C44.6089 58.7456 44.5886 59.5543 44.5637 60.103C44.5511 60.3797 44.5379 60.5773 44.5249 60.7C44.518 60.7658 44.5135 60.7859 44.5151 60.7792C44.5159 60.7754 44.5184 60.7648 44.523 60.7495C44.5272 60.7359 44.5367 60.7066 44.5538 60.6697C44.5677 60.6399 44.6058 60.5623 44.682 60.4816C44.7589 60.4001 44.9403 60.25 45.2206 60.25V61.75ZM46.0659 25.9943C46.0477 23.6062 46.0284 21.3056 46.0092 19.1751L44.5093 19.1886C44.5284 21.3185 44.5477 23.6184 44.566 26.0057L46.0659 25.9943ZM45.8415 25.465L39.3638 19.1013L38.3126 20.1714L44.7903 26.535L45.8415 25.465ZM43.0524 0.25C37.3732 0.25 32.7622 4.82941 32.7622 10.4872H34.2622C34.2622 5.6657 38.1937 1.75 43.0524 1.75V0.25ZM26.6912 24.2867C26.6912 30.4208 31.6905 35.3864 37.8486 35.3864V33.8864C32.511 33.8864 28.1912 29.5845 28.1912 24.2867H26.6912ZM51.7253 32.799C58.3624 32.799 63.75 27.4473 63.75 20.8368H62.25C62.25 26.611 57.5419 31.299 51.7253 31.299V32.799ZM34.1656 13.8062C29.8164 15.3187 26.6912 19.4371 26.6912 24.2867H28.1912C28.1912 20.0996 30.8892 16.5337 34.6583 15.223L34.1656 13.8062ZM32.7622 10.4872C32.7622 12.0402 33.1103 13.5144 33.7338 14.8348L35.0902 14.1944C34.5592 13.0698 34.2622 11.814 34.2622 10.4872H32.7622ZM45.7492 31.2193C47.5104 32.2246 49.5516 32.799 51.7253 32.799V31.299C49.8189 31.299 48.0332 30.7958 46.4927 29.9165L45.7492 31.2193ZM37.8486 35.3864C41.463 35.3864 44.6772 33.6757 46.7155 31.0251L45.5264 30.1107C43.7611 32.4064 40.9794 33.8864 37.8486 33.8864V35.3864ZM63.75 20.8368C63.75 14.5229 58.8351 9.35765 52.6105 8.90667L52.5021 10.4027C57.9552 10.7978 62.25 15.3221 62.25 20.8368H63.75ZM53.3035 9.58939C52.8456 4.35217 48.4281 0.25 43.0524 0.25V1.75C47.6503 1.75 51.4191 5.25772 51.8092 9.72002L53.3035 9.58939Z" fill="#3F6E5B"/>
</svg>
