<svg width="60" height="64" viewBox="0 0 60 64" fill="none" xmlns="http://www.w3.org/2000/svg">
<path d="M47.7115 35.7838L48.3402 36.1926L47.7115 35.7838ZM49.4836 35.7369L50.0901 35.2957L49.4836 35.7369ZM47.8374 60.5612C48.2398 60.6594 48.6456 60.4127 48.7438 60.0103C48.842 59.6079 48.5953 59.2021 48.1929 59.1039L47.8374 60.5612ZM43.2361 54.322C43.1083 53.928 42.6852 53.7123 42.2912 53.8401C41.8972 53.968 41.6815 54.391 41.8093 54.785L43.2361 54.322ZM33.4901 28.7021L33.0951 28.0645C32.7892 28.254 32.661 28.6341 32.7896 28.9702C32.9182 29.3063 33.2674 29.5037 33.6217 29.4405L33.4901 28.7021ZM29.0957 28.7021L28.9849 29.4439C29.3501 29.4985 29.7006 29.2791 29.8113 28.9268C29.9219 28.5745 29.7596 28.1941 29.4288 28.0302L29.0957 28.7021ZM26.1661 24.3464L25.4161 24.3466L26.1661 24.3464ZM27.6309 19.9907L28.2725 19.6023C28.1535 19.4057 27.9509 19.2745 27.7228 19.2464C27.4947 19.2182 27.2663 19.2962 27.103 19.458L27.6309 19.9907ZM30.5605 20.9587L30.0325 20.426H30.0325L30.5605 20.9587ZM31.537 15.1511L31.87 14.4791C31.6242 14.3572 31.3314 14.3794 31.1066 14.5368C30.8819 14.6943 30.7611 14.9619 30.7917 15.2346L31.537 15.1511ZM36.9084 21.9266L36.1631 22.0101L36.9084 21.9266ZM13.0049 32.6596L13.7445 32.784C13.8033 32.434 13.6089 32.0907 13.2784 31.9613C12.948 31.8318 12.5721 31.9517 12.3776 32.2485L13.0049 32.6596ZM1 50.9783L0.3727 50.5672C0.221674 50.7977 0.209174 51.0924 0.340145 51.3348C0.471116 51.5772 0.724465 51.7283 1 51.7283L1 50.9783ZM10.8864 50.9783L11.6165 51.1499C11.6689 50.9269 11.6165 50.6921 11.4742 50.5126C11.332 50.333 11.1154 50.2283 10.8864 50.2283V50.9783ZM8.06169 63L7.33157 62.8284C7.24967 63.177 7.4256 63.5349 7.75165 63.6829C8.0777 63.8309 8.46291 63.7278 8.67142 63.4367L8.06169 63ZM20.7727 45.2537L21.3825 45.6904C21.5462 45.4619 21.5683 45.161 21.4398 44.911C21.3114 44.6609 21.0538 44.5037 20.7727 44.5037V45.2537ZM10.8864 45.2537L10.1468 45.1293C10.1102 45.3469 10.1712 45.5696 10.3137 45.7381C10.4562 45.9065 10.6657 46.0037 10.8864 46.0037V45.2537ZM58.25 53.4977C58.25 58.3037 54.1878 62.25 49.1136 62.25V63.75C54.9597 63.75 59.75 59.1876 59.75 53.4977H58.25ZM49.1136 62.25C44.0395 62.25 39.9773 58.3037 39.9773 53.4977H38.4773C38.4773 59.1876 43.2676 63.75 49.1136 63.75V62.25ZM39.9773 53.4977C39.9773 52.5761 40.3195 51.265 40.9279 49.6987C41.5286 48.1527 42.3583 46.4327 43.2676 44.7204C45.0854 41.2971 47.1928 37.9572 48.3402 36.1926L47.0828 35.3749C45.9256 37.1542 43.7909 40.5366 41.9428 44.0169C41.019 45.7565 40.1598 47.5337 39.5298 49.1555C38.9075 50.7572 38.4773 52.2846 38.4773 53.4977H39.9773ZM48.8771 36.1782C50.146 37.9223 52.5095 41.2688 54.5527 44.706C55.5748 46.4253 56.5081 48.153 57.1837 49.7053C57.8695 51.281 58.25 52.5887 58.25 53.4977H59.75C59.75 52.2626 59.2595 50.7159 58.5591 49.1067C57.8486 47.4741 56.8806 45.6865 55.8421 43.9395C53.7642 40.444 51.3695 37.0543 50.0901 35.2957L48.8771 36.1782ZM48.3402 36.1926C48.4618 36.0057 48.7466 35.9987 48.8771 36.1782L50.0901 35.2957C49.3394 34.264 47.7762 34.3086 47.0828 35.3749L48.3402 36.1926ZM48.1929 59.1039C45.9016 58.545 44.0174 56.7297 43.2361 54.322L41.8093 54.785C42.7373 57.6446 44.9985 59.8687 47.8374 60.5612L48.1929 59.1039ZM21.5227 19.4628C21.5227 18.0983 21.9861 16.8032 22.7232 15.4957C23.4661 14.1778 24.4503 12.9071 25.4587 11.5621C27.4177 8.94931 29.5186 6.02042 29.0397 2.45329L27.5531 2.65288C27.9384 5.52346 26.2775 7.96963 24.2586 10.6623C23.2781 11.9701 22.2193 13.3348 21.4165 14.7591C20.6078 16.1937 20.0227 17.7474 20.0227 19.4628H21.5227ZM29.0397 2.45329C28.9914 2.09322 29.0011 1.8675 29.0267 1.7408C29.0516 1.61758 29.074 1.66301 28.9946 1.7167C28.9152 1.77033 28.8733 1.73821 28.9695 1.75599C29.0689 1.77439 29.2353 1.8337 29.4742 1.96992C30.4538 2.52845 31.9388 3.95459 33.5154 5.88908C35.073 7.80017 36.6558 10.1277 37.8451 12.4072C39.0472 14.7113 39.7955 16.8692 39.7955 18.47H41.2955C41.2955 16.4946 40.4045 14.0701 39.1749 11.7133C37.9325 9.332 36.2909 6.92023 34.6782 4.94143C33.0845 2.98603 31.4533 1.37166 30.2172 0.666858C29.9022 0.487254 29.5709 0.341804 29.2423 0.281014C28.9103 0.219611 28.5098 0.233882 28.1546 0.473957C27.7993 0.714101 27.6286 1.08606 27.5564 1.44392C27.4848 1.79831 27.4934 2.20824 27.5531 2.65288L29.0397 2.45329ZM39.7955 18.47C39.7955 21.9206 38.9298 24.1373 37.7405 25.5548C36.5503 26.9733 34.9638 27.6775 33.3584 27.9638L33.6217 29.4405C35.4757 29.1099 37.4169 28.2742 38.8896 26.5189C40.3632 24.7626 41.2955 22.1717 41.2955 18.47H39.7955ZM29.2065 27.9604C27.2387 27.6664 25.3176 26.9403 23.898 25.6131C22.4987 24.3048 21.5227 22.3542 21.5227 19.4628H20.0227C20.0227 22.7309 21.1438 25.0915 22.8736 26.7088C24.5833 28.3072 26.8237 29.121 28.9849 29.4439L29.2065 27.9604ZM29.0957 28.7021C29.4288 28.0302 29.429 28.0303 29.4293 28.0304C29.4293 28.0304 29.4296 28.0305 29.4297 28.0306C29.43 28.0307 29.4302 28.0308 29.4304 28.0309C29.4307 28.0311 29.4309 28.0312 29.4309 28.0312C29.4309 28.0312 29.4302 28.0309 29.4289 28.0302C29.4263 28.0289 29.421 28.0261 29.4134 28.0221C29.398 28.014 29.3729 28.0004 29.3395 27.9815C29.2726 27.9436 29.173 27.8845 29.0515 27.8042C28.8074 27.6428 28.4822 27.4008 28.1591 27.0806C27.5085 26.4356 26.9163 25.5268 26.9161 24.3463L25.4161 24.3466C25.4164 26.0699 26.2891 27.3389 27.1031 28.1458C27.5123 28.5515 27.9195 28.854 28.2245 29.0556C28.3777 29.1568 28.5069 29.2338 28.6002 29.2866C28.6469 29.3131 28.6847 29.3336 28.7122 29.3481C28.726 29.3554 28.7372 29.3612 28.7457 29.3655C28.7499 29.3677 28.7534 29.3695 28.7563 29.3709C28.7577 29.3716 28.7589 29.3723 28.76 29.3728C28.7605 29.3731 28.761 29.3733 28.7614 29.3735C28.7616 29.3736 28.7619 29.3738 28.7621 29.3738C28.7623 29.374 28.7626 29.3741 29.0957 28.7021ZM26.9161 24.3463C26.9159 23.0253 27.2481 22.0513 27.5679 21.4175C27.7285 21.0993 27.8867 20.8653 28 20.7156C28.0566 20.6408 28.1018 20.5873 28.1301 20.5552C28.1443 20.5392 28.1542 20.5285 28.1593 20.5232C28.1618 20.5205 28.163 20.5192 28.163 20.5193C28.163 20.5193 28.1626 20.5197 28.1619 20.5204C28.1616 20.5207 28.1611 20.5212 28.1606 20.5217C28.1604 20.5219 28.1601 20.5222 28.1598 20.5225C28.1596 20.5227 28.1594 20.5229 28.1593 20.523C28.1591 20.5232 28.1588 20.5235 27.6309 19.9907C27.103 19.458 27.1028 19.4582 27.1025 19.4585C27.1024 19.4586 27.1021 19.4589 27.1019 19.4591C27.1015 19.4595 27.1011 19.4599 27.1007 19.4603C27.0998 19.4612 27.0988 19.4622 27.0978 19.4632C27.0957 19.4653 27.0932 19.4678 27.0904 19.4707C27.0848 19.4764 27.0779 19.4836 27.0697 19.4923C27.0532 19.5097 27.0317 19.533 27.0058 19.5624C26.954 19.621 26.8847 19.7036 26.8039 19.8103C26.6425 20.0236 26.4345 20.3341 26.2287 20.7418C25.816 21.5599 25.4158 22.7638 25.4161 24.3466L26.9161 24.3463ZM27.6309 19.9907C26.9893 20.3791 26.9894 20.3793 26.9896 20.3796C26.9896 20.3797 26.9898 20.3799 26.9899 20.3801C26.9901 20.3805 26.9904 20.3809 26.9907 20.3813C26.9912 20.3822 26.9918 20.3833 26.9926 20.3845C26.994 20.3868 26.9959 20.3898 26.998 20.3933C27.0024 20.4004 27.0083 20.4097 27.0155 20.4211C27.03 20.4438 27.0502 20.4748 27.0758 20.5126C27.1269 20.5879 27.2001 20.6912 27.2926 20.8091C27.4743 21.0406 27.7467 21.3496 28.0885 21.6131C28.4245 21.8722 28.8856 22.132 29.4353 22.1683C30.0211 22.207 30.5907 21.9847 31.0885 21.4913L30.0325 20.426C29.7979 20.6585 29.6351 20.6782 29.5342 20.6716C29.3974 20.6625 29.2176 20.5896 29.0043 20.4252C28.7968 20.2652 28.6115 20.06 28.4727 19.8832C28.4051 19.797 28.3524 19.7225 28.3176 19.6712C28.3003 19.6456 28.2876 19.6261 28.2799 19.614C28.2761 19.608 28.2735 19.6039 28.2723 19.6019C28.2716 19.6009 28.2713 19.6004 28.2714 19.6005C28.2714 19.6005 28.2715 19.6007 28.2717 19.601C28.2718 19.6012 28.2719 19.6013 28.272 19.6016C28.2721 19.6017 28.2722 19.6019 28.2723 19.6019C28.2724 19.6021 28.2725 19.6023 27.6309 19.9907ZM31.0885 21.4913C31.5927 20.9915 31.8818 20.2968 32.0566 19.6285C32.2348 18.9472 32.3153 18.2102 32.3472 17.5464C32.3792 16.8789 32.3631 16.2626 32.3394 15.8146C32.3274 15.5899 32.3135 15.4058 32.3024 15.2768C32.2968 15.2122 32.292 15.1613 32.2884 15.1259C32.2867 15.1081 32.2852 15.0943 32.2842 15.0845C32.2837 15.0796 32.2832 15.0757 32.2829 15.0729C32.2828 15.0714 32.2826 15.0703 32.2825 15.0694C32.2825 15.0689 32.2825 15.0686 32.2824 15.0683C32.2824 15.0681 32.2824 15.0679 32.2824 15.0678C32.2824 15.0677 32.2823 15.0675 31.537 15.1511C30.7917 15.2346 30.7917 15.2345 30.7917 15.2344C30.7916 15.2344 30.7916 15.2343 30.7916 15.2343C30.7916 15.2342 30.7916 15.2342 30.7916 15.2343C30.7917 15.2345 30.7917 15.2349 30.7918 15.2356C30.7919 15.237 30.7922 15.2394 30.7925 15.2427C30.7933 15.2495 30.7944 15.2603 30.7958 15.2748C30.7987 15.3039 30.8029 15.348 30.8079 15.4053C30.8178 15.5202 30.8305 15.6878 30.8415 15.8941C30.8635 16.3081 30.8779 16.8715 30.8489 17.4744C30.8198 18.081 30.7477 18.7051 30.6054 19.2489C30.4598 19.8056 30.2606 20.1999 30.0325 20.426L31.0885 21.4913ZM31.537 15.1511C31.204 15.8231 31.2038 15.823 31.2036 15.8229C31.2036 15.8229 31.2034 15.8228 31.2033 15.8227C31.2032 15.8227 31.2031 15.8226 31.2031 15.8226C31.2031 15.8226 31.2034 15.8228 31.2039 15.8231C31.2051 15.8236 31.2074 15.8248 31.2108 15.8265C31.2175 15.83 31.2287 15.8357 31.2441 15.8438C31.2748 15.8598 31.3221 15.885 31.3837 15.9192C31.5069 15.9877 31.687 16.0919 31.9062 16.2307C32.3457 16.5092 32.9361 16.9233 33.5389 17.4638C34.7583 18.5573 35.9484 20.095 36.1631 22.0101L37.6537 21.843C37.3801 19.4025 35.8845 17.5524 34.5403 16.3471C33.8613 15.7382 33.2004 15.275 32.7091 14.9637C32.4628 14.8077 32.2576 14.6888 32.1119 14.6079C32.039 14.5674 31.9809 14.5363 31.9398 14.5149C31.9193 14.5041 31.903 14.4957 31.8913 14.4898C31.8854 14.4868 31.8807 14.4844 31.8772 14.4826C31.8754 14.4817 31.8739 14.481 31.8727 14.4804C31.8721 14.4801 31.8716 14.4798 31.8711 14.4796C31.8709 14.4795 31.8706 14.4794 31.8705 14.4793C31.8703 14.4792 31.87 14.4791 31.537 15.1511ZM36.1631 22.0101C36.3783 23.9306 35.6311 25.4318 34.7957 26.4804C34.3779 27.005 33.9446 27.4068 33.6164 27.6767C33.4529 27.8112 33.3171 27.9115 33.2247 27.9768C33.1785 28.0093 33.1433 28.033 33.121 28.0477C33.1098 28.0551 33.1019 28.0602 33.0975 28.063C33.0953 28.0644 33.094 28.0652 33.0936 28.0655C33.0934 28.0656 33.0934 28.0656 33.0937 28.0654C33.0938 28.0654 33.094 28.0652 33.0942 28.0651C33.0943 28.065 33.0946 28.0649 33.0946 28.0648C33.0949 28.0647 33.0951 28.0645 33.4901 28.7021C33.885 29.3397 33.8853 29.3395 33.8856 29.3394C33.8857 29.3393 33.886 29.3391 33.8862 29.3389C33.8867 29.3386 33.8873 29.3383 33.8879 29.3379C33.8891 29.3372 33.8905 29.3363 33.8922 29.3352C33.8955 29.3331 33.8998 29.3304 33.9049 29.3271C33.9153 29.3205 33.9293 29.3115 33.9466 29.3C33.9813 29.2772 34.0296 29.2446 34.0893 29.2025C34.2085 29.1184 34.3741 28.9957 34.5692 28.8352C34.9583 28.5153 35.4712 28.0399 35.9689 27.415C36.9648 26.1649 37.9267 24.2783 37.6537 21.843L36.1631 22.0101ZM12.3776 32.2485L0.3727 50.5672L1.6273 51.3894L13.6322 33.0707L12.3776 32.2485ZM1 51.7283H10.8864V50.2283H1V51.7283ZM10.1562 50.8068L7.33157 62.8284L8.7918 63.1716L11.6165 51.1499L10.1562 50.8068ZM8.67142 63.4367L21.3825 45.6904L20.163 44.817L7.45196 62.5633L8.67142 63.4367ZM20.7727 44.5037H10.8864V46.0037H20.7727V44.5037ZM11.626 45.3781L13.7445 32.784L12.2653 32.5352L10.1468 45.1293L11.626 45.3781Z" fill="#3F6E5B"/>
</svg>
