<svg width="60" height="62" viewBox="0 0 60 62" fill="none" xmlns="http://www.w3.org/2000/svg">
<path d="M21.4706 16.4286V15.6786C21.0564 15.6786 20.7206 16.0144 20.7206 16.4286H21.4706ZM20.7206 40.4286C20.7206 40.8428 21.0564 41.1786 21.4706 41.1786C21.8848 41.1786 22.2206 40.8428 22.2206 40.4286H20.7206ZM35.0505 28.1403L35.5024 28.7388L35.0505 28.1403ZM35.0505 17.7338L34.5985 18.3323L35.0505 17.7338ZM52.9059 9.61015L52.2093 9.88824L52.9059 9.61015ZM14.6471 1.75H40.2353V0.25H14.6471V1.75ZM53.1324 14.7143V42.1429H54.6324V14.7143H53.1324ZM40.2353 55.1071H14.6471V56.6071H40.2353V55.1071ZM1.75 42.1429V14.7143H0.25V42.1429H1.75ZM53.1324 42.1429C53.1324 49.3063 47.3547 55.1071 40.2353 55.1071V56.6071C48.19 56.6071 54.6324 50.1278 54.6324 42.1429H53.1324ZM14.6471 0.25C6.69231 0.25 0.25 6.72936 0.25 14.7143H1.75C1.75 7.55083 7.52768 1.75 14.6471 1.75V0.25ZM21.4706 17.1786H31.1599V15.6786H21.4706V17.1786ZM22.2206 40.4286V29.4455H20.7206V40.4286H22.2206ZM22.2206 29.4455V16.4286H20.7206V29.4455H22.2206ZM31.1599 28.6955H21.4706V30.1955H31.1599V28.6955ZM34.5985 27.5418C33.6065 28.2908 32.3998 28.6955 31.1599 28.6955V30.1955C32.7266 30.1955 34.2506 29.6841 35.5024 28.7388L34.5985 27.5418ZM34.5985 18.3323C37.6491 20.6358 37.6491 25.2383 34.5985 27.5418L35.5024 28.7388C39.3478 25.8352 39.3478 20.0389 35.5024 17.1353L34.5985 18.3323ZM31.1599 17.1786C32.3998 17.1786 33.6065 17.5833 34.5985 18.3323L35.5024 17.1353C34.2506 16.19 32.7266 15.6786 31.1599 15.6786V17.1786ZM58.25 16.4286V47.2857H59.75V16.4286H58.25ZM45.3529 60.25H15.5V61.75H45.3529V60.25ZM58.25 47.2857C58.25 54.4492 52.4723 60.25 45.3529 60.25V61.75C53.3077 61.75 59.75 55.2706 59.75 47.2857H58.25ZM59.75 16.4286C59.75 12.5046 56.7912 9.27079 52.9855 8.86439L52.8262 10.3559C55.8717 10.6811 58.25 13.2736 58.25 16.4286H59.75ZM40.2353 1.75C45.6583 1.75 50.3037 5.11533 52.2093 9.88824L53.6024 9.33205C51.4783 4.01197 46.2962 0.25 40.2353 0.25V1.75ZM52.2093 9.88824C52.8045 11.3789 53.1324 13.0071 53.1324 14.7143H54.6324C54.6324 12.8136 54.2671 10.9967 53.6024 9.33205L52.2093 9.88824ZM15.5 60.25C11.9078 60.25 8.94886 57.4983 8.6066 53.9712L7.11361 54.116C7.52915 58.3984 11.122 61.75 15.5 61.75V60.25ZM14.6471 55.1071C12.3117 55.1071 10.1232 54.4839 8.23502 53.394L7.48519 54.6932C9.59501 55.9109 12.0412 56.6071 14.6471 56.6071V55.1071ZM8.23502 53.394C4.35942 51.1571 1.75 46.9567 1.75 42.1429H0.25C0.25 47.5118 3.16224 52.1981 7.48519 54.6932L8.23502 53.394Z" fill="#3F6E5B"/>
</svg>
