<svg width="15" height="24" viewBox="0 0 15 24" fill="none" xmlns="http://www.w3.org/2000/svg">
<path d="M7.50179 0.5C9.09188 0.5 9.59153 1.62264 10.0107 2.74352C10.1868 3.21949 14.3189 14.3579 14.4432 14.6922C14.4762 14.7855 14.4539 14.9386 14.3082 14.994C14.1616 15.0485 12.0147 15.8703 11.8958 15.9143C11.7769 15.9591 11.6437 15.894 11.6008 15.777C11.5561 15.6618 10.665 13.2335 10.5649 12.9625H4.44047C4.34394 13.2335 3.44208 15.667 3.40186 15.777C3.36074 15.8888 3.23293 15.9644 3.10601 15.9143C2.97908 15.865 0.824097 15.0433 0.695388 14.994C0.572041 14.9465 0.515731 14.8084 0.558634 14.6922C0.710582 14.2752 4.78012 3.31539 4.98749 2.74352C5.39149 1.63935 5.90812 0.5 7.50179 0.5ZM0.231498 20.4303C0.102789 20.4303 0 20.5359 0 20.6644V23.2677C0 23.3962 0.102789 23.5 0.231498 23.5H14.7658C14.8972 23.5 15 23.3962 15 23.2677V20.6644C15 20.5359 14.8972 20.4303 14.7658 20.4303H0.231498ZM7.48749 4.13714L5.41741 10.2562H9.59153L7.5143 4.13714H7.48749Z" fill="#EE2A23"/>
</svg>
