<svg width="19" height="18" viewBox="0 0 19 18" fill="none" xmlns="http://www.w3.org/2000/svg">
<path fill-rule="evenodd" clip-rule="evenodd" d="M0.628906 0.429291H18.0742V17.8691H0.628906V0.429291Z" fill="#FFF22D"/>
<path fill-rule="evenodd" clip-rule="evenodd" d="M9.32659 11.1619L14.7453 16.5661L16.8657 14.4457L11.442 9.02815L12.4989 7.97932L12.4996 5.8715L13.2537 5.11774L13.2549 6.86678L13.9912 7.59196L16.6366 4.94459L17.3517 5.65062C17.3517 5.19584 17.2176 3.62895 15.9592 2.40252C14.5503 1.02888 13.1396 1.83175 12.6535 2.31775L10.0992 4.87188L10.7342 5.50658L9.32659 6.90953L7.92062 5.50636L8.55553 4.87167L6.00148 2.31754C5.51548 1.83154 4.10506 1.02867 2.69558 2.40231C1.43724 3.62873 1.33203 5.19605 1.33203 5.65136L2.01873 4.94448L4.66382 7.59186L5.4009 6.8582L5.40137 5.11763L6.15543 5.87139L6.15356 7.97435L7.21295 9.02815L1.84345 14.3918L3.96142 16.5059L9.32659 11.1619Z" fill="black"/>
<path fill-rule="evenodd" clip-rule="evenodd" d="M0.359375 0L18.3589 0.00179923L18.3594 18L0.361132 17.9942L0.359375 0ZM0.841856 17.4964L0.840098 0.497533L17.8512 0.499333L17.8373 17.5023L0.841856 17.4964Z" fill="black"/>
</svg>
