<svg width="20" height="20" viewBox="0 0 20 20" fill="none" xmlns="http://www.w3.org/2000/svg">
<path d="M17.6661 3.8891C18.1346 4.50293 18.5312 5.16981 18.8478 5.87634L9.86444 12.5876L6.11003 10.2025V7.33302L9.86444 9.71817L17.6661 3.8891Z" fill="#21A038"/>
<path d="M2.27837 10C2.27837 9.87124 2.28147 9.74334 2.28767 9.61617L0.0123916 9.50317C0.00464725 9.66799 2.74957e-06 9.83439 2.74957e-06 10.0023C-0.000965318 11.3145 0.253704 12.6139 0.749407 13.826C1.24511 15.0382 1.97208 16.1393 2.88863 17.066L4.50254 15.4312C3.79701 14.719 3.23732 13.8726 2.85562 12.9405C2.47392 12.0085 2.27775 11.0091 2.27837 10Z" fill="url(#paint0_linear)"/>
<path d="M9.86236 2.31406C9.98935 2.31406 10.1155 2.31877 10.241 2.32505L10.3549 0.0183715C10.1917 0.010523 10.0275 0.00659921 9.86236 0.00659921C8.56699 0.0049983 7.28416 0.262722 6.0874 0.764972C4.89064 1.26722 3.80356 2.00411 2.88859 2.93332L4.5025 4.56895C5.20521 3.85369 6.04049 3.28626 6.96033 2.89929C7.88017 2.51232 8.86637 2.31343 9.86236 2.31406Z" fill="url(#paint1_linear)"/>
<path d="M9.86236 17.6861C9.73537 17.6861 9.60912 17.6861 9.48292 17.6759L9.36907 19.9818C9.53273 19.9901 9.69718 19.9944 9.86236 19.9944C11.1572 19.9957 12.4394 19.7378 13.6355 19.2354C14.8316 18.733 15.918 17.996 16.8323 17.0668L15.2215 15.432C14.5186 16.1469 13.6834 16.714 12.7638 17.1008C11.8441 17.4877 10.8581 17.6866 9.86236 17.6861Z" fill="url(#paint2_linear)"/>
<path d="M14.1373 3.65519L16.0548 2.22284C14.3022 0.784564 12.1145 0.00162275 9.85933 0.00563054V2.31388C11.3864 2.31196 12.8781 2.77967 14.1373 3.65519Z" fill="url(#paint3_linear)"/>
<path d="M19.724 9.99996C19.7253 9.39948 19.6734 8.80005 19.5691 8.20892L17.4464 9.79432C17.4464 9.86264 17.4464 9.9309 17.4464 9.99996C17.447 11.0739 17.2249 12.1359 16.7945 13.1172C16.3641 14.0985 15.735 14.9772 14.9481 15.6964L16.4792 17.4113C17.5022 16.4753 18.3198 15.3319 18.8788 14.0551C19.4378 12.7784 19.7258 11.3968 19.724 9.99996Z" fill="#21A038"/>
<path d="M9.86241 17.6861C8.80269 17.6864 7.7547 17.4612 6.78628 17.0251C5.81791 16.5889 4.95069 15.9515 4.24081 15.1541L2.54946 16.705C3.47294 17.742 4.60116 18.5706 5.86099 19.1373C7.1208 19.7039 8.48406 19.9959 9.86241 19.9943V17.6861Z" fill="url(#paint4_linear)"/>
<path d="M4.77669 4.30346L3.24642 2.58856C2.22306 3.5244 1.40523 4.66778 0.845956 5.94456C0.28669 7.22132 -0.00152476 8.60297 6.06623e-06 9.99991H2.27838C2.27791 8.92607 2.50007 7.86402 2.93044 6.88271C3.36082 5.90142 3.98982 5.02268 4.77669 4.30346Z" fill="url(#paint5_linear)"/>
<defs>
<linearGradient id="paint0_linear" x1="3.34941" y1="16.778" x2="0.80033" y2="9.50696" gradientUnits="userSpaceOnUse">
<stop offset="0.14" stop-color="#F1E813"/>
<stop offset="0.3" stop-color="#E6E418"/>
<stop offset="0.58" stop-color="#C9DA26"/>
<stop offset="0.89" stop-color="#A2CC39"/>
</linearGradient>
<linearGradient id="paint1_linear" x1="3.53911" y1="3.34144" x2="9.97211" y2="0.922461" gradientUnits="userSpaceOnUse">
<stop offset="0.06" stop-color="#0FA7DF"/>
<stop offset="0.54" stop-color="#0098F8"/>
<stop offset="0.92" stop-color="#0290EA"/>
</linearGradient>
<linearGradient id="paint2_linear" x1="9.21886" y1="18.6012" x2="16.4783" y2="16.983" gradientUnits="userSpaceOnUse">
<stop offset="0.12" stop-color="#A2CC39"/>
<stop offset="0.28" stop-color="#86C239"/>
<stop offset="0.87" stop-color="#219F38"/>
</linearGradient>
<linearGradient id="paint3_linear" x1="9.38542" y1="0.778709" x2="15.5982" y2="2.67049" gradientUnits="userSpaceOnUse">
<stop offset="0.06" stop-color="#0290EA"/>
<stop offset="0.79" stop-color="#0C89CA"/>
</linearGradient>
<linearGradient id="paint4_linear" x1="3.12099" y1="16.424" x2="9.88973" y2="18.9201" gradientUnits="userSpaceOnUse">
<stop offset="0.13" stop-color="#F1E813"/>
<stop offset="0.3" stop-color="#EAE616"/>
<stop offset="0.53" stop-color="#D8DF1F"/>
<stop offset="0.8" stop-color="#BAD52D"/>
<stop offset="0.98" stop-color="#A2CC39"/>
</linearGradient>
<linearGradient id="paint5_linear" x1="0.84878" y1="10.2793" x2="3.62068" y2="3.16435" gradientUnits="userSpaceOnUse">
<stop offset="0.07" stop-color="#A2CC39"/>
<stop offset="0.26" stop-color="#81C45E"/>
<stop offset="0.92" stop-color="#0FA7DF"/>
</linearGradient>
</defs>
</svg>
