<svg width="20" height="19" viewBox="0 0 20 19" fill="none" xmlns="http://www.w3.org/2000/svg">
<path d="M19.2204 0.0343809C19.1652 0.0117619 19.1064 0 19.0476 0H15.4286C15.1789 0 14.9762 0.202667 14.9762 0.452381C14.9762 0.702095 15.1789 0.904762 15.4286 0.904762H17.9556L13.4318 5.42857H6.56824L2.04443 0.904762H4.57143C4.82114 0.904762 5.02381 0.702095 5.02381 0.452381C5.02381 0.202667 4.82114 0 4.57143 0H0.952381C0.893571 0 0.834762 0.0117619 0.779571 0.0343809C0.66919 0.0805238 0.580524 0.168286 0.534381 0.279571C0.511762 0.334762 0.5 0.393571 0.5 0.452381V4.07143C0.5 4.32114 0.702667 4.52381 0.952381 4.52381C1.2021 4.52381 1.40476 4.32114 1.40476 4.07143V1.54443L5.92857 6.06824V12.9318L1.40476 17.4556V14.9286C1.40476 14.6789 1.2021 14.4762 0.952381 14.4762C0.702667 14.4762 0.5 14.6789 0.5 14.9286V18.5476C0.5 18.6064 0.511762 18.6652 0.534381 18.7204C0.580524 18.8308 0.668286 18.9195 0.779571 18.9656C0.834762 18.9882 0.893571 19 0.952381 19H4.57143C4.82114 19 5.02381 18.7973 5.02381 18.5476C5.02381 18.2979 4.82114 18.0952 4.57143 18.0952H2.04443L6.56824 13.5714H13.4318L17.9556 18.0952H15.4286C15.1789 18.0952 14.9762 18.2979 14.9762 18.5476C14.9762 18.7973 15.1789 19 15.4286 19H19.0476C19.1064 19 19.1652 18.9882 19.2204 18.9656C19.3308 18.9195 19.4195 18.8317 19.4656 18.7204C19.4882 18.6652 19.5 18.6064 19.5 18.5476V14.9286C19.5 14.6789 19.2973 14.4762 19.0476 14.4762C18.7979 14.4762 18.5952 14.6789 18.5952 14.9286V17.4556L14.0714 12.9318V6.06824L18.5952 1.54443V4.07143C18.5952 4.32114 18.7979 4.52381 19.0476 4.52381C19.2973 4.52381 19.5 4.32114 19.5 4.07143V0.452381C19.5 0.393571 19.4882 0.334762 19.4656 0.279571C19.4195 0.16919 19.3308 0.0805238 19.2204 0.0343809ZM6.83333 6.33333H13.1667V12.6667H6.83333V6.33333Z" fill="white"/>
</svg>
