<svg width="708" height="297" viewBox="0 0 708 297" fill="none" xmlns="http://www.w3.org/2000/svg">
<path d="M14.4232 65.3267C19.7908 64.5827 23.8088 64.094 26.4773 63.8605L27.9476 63.7319C29.0913 63.6318 29.9177 63.6693 30.4269 63.8442C30.9313 63.9647 31.7614 64.3585 32.9173 65.0257C33.8411 65.5485 34.3196 66.0005 34.353 66.3817C34.3815 66.7085 34.3805 67.0104 34.3499 67.2874L34.3397 68.1114L29.2005 68.6434L24.1358 69.0865L23.6212 69.79C23.2828 70.3135 23.0606 70.9091 22.9544 71.5769C22.8012 72.9622 22.9271 75.9694 23.3321 80.5983C23.4464 81.9053 23.8296 85.6582 24.4817 91.857C26.7088 112.295 27.9599 122.832 28.2349 123.466C28.5099 124.101 28.6713 124.69 28.7189 125.235C28.7761 125.888 28.581 126.481 28.1338 127.014C27.5375 127.725 26.3822 128.32 24.6682 128.799C24.2373 128.892 23.9507 128.752 23.8084 128.381C23.6709 128.063 22.7268 118.214 20.9762 98.831C19.2256 79.4485 18.2318 69.6579 17.9949 69.4591C17.8125 69.2556 17.5307 69.1705 17.1495 69.2038C16.7138 69.2419 15.8567 69.4816 14.5783 69.9227C13.2999 70.3638 12.0072 70.6415 10.7002 70.7558C9.82885 70.8321 9.30672 70.8229 9.13382 70.7282C8.72879 70.4893 8.22777 70.0941 7.63077 69.5427L6.54332 68.4032C6.94087 67.9294 7.46981 67.3892 8.13012 66.7827C8.64136 66.3538 10.739 65.8685 14.4232 65.3267ZM57.5696 87.9744C56.0298 86.6824 54.3341 86.1173 52.4825 86.2793C51.121 86.3984 50.0747 86.9839 49.3436 88.0356C48.8112 88.8504 48.4991 89.6734 48.4072 90.5046C48.3105 91.2813 48.3374 92.8429 48.4878 95.1894L48.7992 99.6894L51.74 99.4321C53.2648 99.2987 54.5919 99.1003 55.7213 98.8368C56.1522 98.7443 57.324 98.3399 59.2369 97.6238C61.2042 96.9029 62.24 96.5105 62.3441 96.4465C61.8581 95.2818 61.2808 94.0153 60.6124 92.647C59.8016 90.907 59.2387 89.8039 58.9235 89.3376C58.6083 88.8713 58.157 88.4169 57.5696 87.9744ZM52.1149 83.019C52.328 82.9454 52.734 82.8825 53.3331 82.8301C54.6401 82.7157 55.7139 82.759 56.5546 82.9598C58.5771 83.4962 60.6026 85.322 62.6311 88.437C64.6597 91.5521 65.8312 94.9067 66.1456 98.501C66.3076 100.353 66.4669 101.546 66.6235 102.081C66.7018 102.349 66.7623 102.727 66.8052 103.217C66.8958 104.252 66.618 105.155 65.972 105.924C65.475 106.517 65.1993 106.815 65.1449 106.82C65.0904 106.825 64.8937 106.458 64.5547 105.719C63.9169 104.074 62.9952 102.947 61.7896 102.339C61.098 101.961 60.017 101.836 58.5466 101.964C57.6753 102.041 56.5388 102.222 55.1371 102.51C54.0078 102.773 53.0075 102.943 52.1361 103.019L51.4826 103.076L50.243 103.02L49.6262 105.379C49.085 107.347 48.76 108.336 48.6511 108.345C48.5966 108.35 48.4734 108.196 48.2814 107.884C47.1936 106.113 46.4901 103.403 46.1709 99.7547C45.8993 96.6506 46.0304 93.7581 46.5641 91.0774C47.4403 86.6656 49.2905 83.9794 52.1149 83.019ZM87.347 73.1046C87.2517 72.0154 87.4219 71.4517 87.8576 71.4136C88.1843 71.385 88.715 71.8051 89.4495 72.6737C90.1295 73.5471 90.491 74.2288 90.5338 74.719L90.5767 75.2091C90.7564 79.1444 90.3748 82.9367 89.4319 86.5861C89.1011 87.8224 88.9241 88.9353 88.9009 89.9251L88.951 90.4969C89.0701 91.8584 90.2076 93.5698 92.3634 95.6311C96.6799 99.8081 99.1628 102.472 99.8122 103.622C100.206 104.356 100.161 105.101 99.6784 105.856C98.9923 106.794 98.1863 107.304 97.2605 107.385C97.0426 107.404 96.8769 107.391 96.7632 107.346C96.3037 107.112 95.6723 106.481 94.8691 105.454C94.0066 104.377 93.1513 103.382 92.3031 102.468C91.218 101.356 89.7847 100.027 88.0033 98.4819C86.2218 96.9366 85.1333 96.099 84.7378 95.969C84.2879 95.8437 83.4591 95.779 82.2515 95.7749L80.4472 95.8505L80.2103 97.8467C80.1749 98.0693 80.1395 98.2919 80.1041 98.5145C80.1231 98.7323 80.1126 98.9253 80.0724 99.0935C80.0819 99.2024 80.0666 99.3409 80.0265 99.5091C80.036 99.618 80.0455 99.7269 80.055 99.8358C80.0646 99.9447 80.1428 100.212 80.2899 100.638C80.8685 102.234 81.1673 103.141 81.1864 103.359C81.2054 103.576 81.1476 103.856 81.0128 104.197C80.8378 104.706 80.5444 105.116 80.1326 105.426C79.155 106.17 78.2034 106.583 77.2776 106.664L77.1959 106.671C77.1319 106.567 76.4737 102.18 75.2212 93.509C74.0185 84.7793 73.3861 80.0605 73.3242 79.3525C73.3194 79.298 73.6118 79.1902 74.2013 79.0288C74.7364 78.8723 75.075 78.9798 75.2173 79.3515C75.5849 80.4169 76.5604 82.4717 78.1437 85.5159C79.7815 88.5554 80.6821 90.068 80.8455 90.0537C81.0633 90.0346 81.887 89.4138 83.3166 88.1912C84.8006 86.9639 85.6372 86.1773 85.8264 85.8315C86.2145 85.2488 86.5041 84.4826 86.6954 83.533C86.8915 82.6379 87.0729 80.9483 87.2397 78.4643C87.4018 75.9259 87.4375 74.1393 87.347 73.1046ZM107.702 76.9211C108.237 76.7645 108.531 76.6838 108.586 76.6791C108.913 76.6505 109.332 77.0528 109.844 77.886C110.553 79.0862 111.043 80.3054 111.316 81.5436C111.644 82.7771 112.051 85.2383 112.538 88.9272C113.088 93.324 113.87 96.3012 114.884 97.8588C115.199 98.3251 115.416 98.6079 115.534 98.7073C115.707 98.8019 116.041 98.855 116.536 98.8666L116.699 98.8523C118.66 98.6808 120.783 97.8639 123.07 96.4017C125.728 94.7973 127.727 92.8664 129.066 90.6091C130.455 88.2926 131.042 85.909 130.827 83.4584C130.761 82.696 130.61 81.9135 130.375 81.1109C130.062 80.0408 129.896 79.3968 129.877 79.179C129.858 78.9611 130.075 78.311 130.529 77.2287C131.038 76.1415 131.347 75.5932 131.455 75.5837C131.564 75.5742 132.058 75.8876 132.937 76.5241C133.87 77.1559 134.431 77.6007 134.618 77.8587C134.928 78.2706 135.389 80.3979 135.999 84.2406C136.605 88.0289 137.051 91.5568 137.337 94.8243L137.601 97.8468L136.785 99.8113C136.296 101.116 136.024 101.771 135.969 101.776C135.861 101.785 135.428 101.549 134.673 101.066L133.458 100.349L132.295 97.4056C132.148 96.9794 131.969 96.5012 131.758 95.9709C131.546 95.4406 131.377 95.0713 131.249 94.863L131.132 94.4617C131.077 94.4665 129.884 95.2568 127.553 96.8327C120.866 101.314 116.596 103.635 114.745 103.797C113.656 103.893 112.766 103.449 112.077 102.467C111.333 101.489 110.667 99.2154 110.081 95.645C109.644 93.1589 109.111 90.5167 108.482 87.7182C107.542 83.2457 107.017 80.3833 106.907 79.1307C106.874 78.7495 106.893 78.3363 106.963 77.8911C107.188 77.3227 107.434 76.9993 107.702 76.9211ZM160.378 67.456C160.325 66.857 160.381 66.5503 160.544 66.536C160.653 66.5265 161.009 66.8246 161.61 67.4305C162.267 68.0316 162.691 68.4884 162.883 68.8008C163.518 69.7879 164.011 71.6654 164.363 74.4332L164.819 77.7681L163.78 79.9992C162.708 82.1782 162.069 83.9628 161.861 85.3528C161.729 86.3521 161.68 87.0424 161.713 87.4236C161.799 88.4039 162.549 90.396 163.965 93.4001C164.446 94.5104 164.703 95.2561 164.737 95.6374C164.779 96.1275 164.648 96.8249 164.343 97.7296C164.029 98.5254 163.844 98.9256 163.79 98.9304C163.681 98.9399 163.232 98.5128 162.443 97.6489C161.659 96.8395 161.248 96.217 161.21 95.7813C161.172 95.3456 161.057 94.9716 160.865 94.6591C160.791 94.446 160.588 93.6955 160.256 92.4076C159.905 90.9018 159.488 89.8957 159.004 89.3892C158.571 88.8235 157.918 88.5788 157.047 88.655C155.304 88.8075 153.41 90.6743 151.363 94.2557L150.072 96.4265L150.293 98.9588C150.436 100.593 150.348 101.78 150.029 102.521C149.66 103.322 149.227 104.018 148.73 104.611L147.828 105.595L147.408 104.562C146.688 102.594 146.27 100.957 146.156 99.6501C145.87 96.3825 146.828 93.2257 149.031 90.1794C150.25 88.4265 150.823 87.1417 150.752 86.3248C150.699 85.7257 150.121 84.7611 149.017 83.431C147.908 82.0463 147.29 81.2499 147.162 81.0416C146.782 80.4711 146.247 79.3656 145.554 77.725C144.857 76.03 144.49 74.9646 144.452 74.529C144.433 74.3111 144.615 73.8836 144.998 73.2465C145.381 72.6093 145.627 72.286 145.736 72.2764C145.791 72.2717 146.06 72.5225 146.543 73.029C147.09 73.6396 147.42 74.2693 147.531 74.9181C148.013 77.2904 148.801 79.0872 149.896 80.3085C150.991 81.5297 152.517 82.3565 154.476 82.7888C155.48 82.9753 156.254 83.0447 156.799 82.9971C158.596 82.8399 160.011 81.4539 161.044 78.8392C161.529 77.4798 161.71 76.0921 161.586 74.6762C161.514 73.8593 161.34 72.8045 161.062 71.5118C160.644 69.2436 160.416 67.8917 160.378 67.456ZM205.878 77.057C205.25 76.7826 204.61 76.674 203.956 76.7312C202.431 76.8646 201.268 77.6798 200.466 79.1767C199.659 80.6192 199.366 82.5929 199.585 85.098C199.813 87.712 200.47 89.5752 201.555 90.6875C202.458 91.5963 203.536 91.9959 204.788 91.8864C206.967 91.6958 208.426 90.498 209.166 88.2932C209.591 86.884 209.73 85.3354 209.582 83.6472C209.435 81.9589 209.068 80.5917 208.483 79.5454C207.828 78.3405 206.96 77.511 205.878 77.057ZM193.663 55.9834C193.658 55.9289 193.708 55.8697 193.812 55.8057C193.916 55.7417 194.213 55.6883 194.703 55.6454C196.174 55.5168 197.413 55.5729 198.422 55.8139C200.208 56.1516 202.041 57.0338 203.922 58.4607C209.756 63.0536 212.978 68.8355 213.588 75.8062C213.817 78.4202 213.78 81.1397 213.479 83.9648C213.187 86.8987 212.42 89.106 211.177 90.5866C209.776 92.1359 208.07 93.3278 206.057 94.1624C205.106 94.5749 204.221 94.8169 203.405 94.8884C202.043 95.0075 200.607 94.5844 199.096 93.6191C198.049 92.9424 197.109 91.9271 196.277 90.5731C195.5 89.2144 195.02 87.8022 194.837 86.3366L194.779 85.6831C194.556 83.1235 195.083 80.6902 196.363 78.3833C197.693 76.017 199.45 74.464 201.635 73.724C202.111 73.5178 203.302 73.3313 205.208 73.1645L207.993 73.0032C208.125 72.0039 208.148 71.0141 208.062 70.0339C207.948 68.7269 207.687 67.6247 207.279 66.7275C206.532 65.0917 205.419 63.6526 203.938 62.4103C202.457 61.1679 200.018 59.6254 196.619 57.7826C194.667 56.801 193.682 56.2012 193.663 55.9834ZM237.941 66.5144C238.139 66.2775 238.44 65.9494 238.842 65.5301C239.24 65.0563 239.54 64.7282 239.744 64.5457C240.523 65.3007 241.009 65.8344 241.201 66.1468C241.772 67.0297 243.066 74.2973 245.084 87.9494C245.205 88.707 245.309 89.576 245.394 90.5562C245.466 91.3731 245.412 92.0089 245.232 92.4636C245.102 92.8591 244.696 93.5531 244.015 94.5456C243.284 95.5974 242.881 96.0167 242.808 95.8036C242.744 95.6995 242.26 94.562 241.357 92.3911C240.307 89.7941 239.407 87.9796 238.658 86.9476C237.959 85.8564 237.194 85.2648 236.363 85.1729L235.791 85.2229C235.355 85.261 234.325 85.406 232.701 85.6579L229.789 86.2419C229.598 87.1915 229.476 88.6289 229.425 90.554C229.474 92.3607 229.39 93.6027 229.175 94.28C228.96 94.9573 228.434 95.5247 227.596 95.9821C226.916 96.3708 226.413 96.5795 226.086 96.6081C225.76 96.6367 225.478 96.5516 225.241 96.3528C224.886 96.0546 223.928 89.4985 222.368 76.6843L221.544 70.0891L222.023 68.9771C222.581 67.8307 222.882 67.2007 222.927 67.087L223.517 66.2947L224.349 68.2797C224.835 69.4444 225.255 71.1088 225.609 73.2729C226.141 76.8481 226.882 79.3624 227.833 80.8158C228.778 82.2147 230.149 82.8355 231.947 82.6783C232.437 82.6354 232.816 82.5748 233.083 82.4966C235.451 81.9602 237.012 80.6712 237.766 78.6297C238.076 77.7795 238.187 74.9711 238.099 70.2046L237.941 66.5144ZM268.47 68.206C268.193 68.1754 267.7 68.191 266.992 68.253C265.413 68.3911 263.665 68.7911 261.747 69.4527C259.829 70.1144 258.699 70.6797 258.356 71.1487C257.76 71.8594 257.54 73.1133 257.697 74.9104C257.764 75.6729 257.918 76.1807 258.16 76.4339C258.397 76.6327 259.072 76.8206 260.185 76.9976C260.852 77.1038 261.813 77.1021 263.065 76.9925C264.862 76.8353 267.217 76.4646 270.129 75.8806C270.56 75.788 271.018 75.6931 271.503 75.5957C271.989 75.4984 272.368 75.4378 272.64 75.414L273.041 75.2966C273.096 75.2918 273.29 75.0005 273.623 74.4225L274.124 73.5556L272.631 71.5461C271.074 69.4324 269.687 68.319 268.47 68.206ZM259.347 65.547C260.309 65.2434 261.579 65.0225 263.158 64.8843C265.119 64.7128 266.737 64.7084 268.014 64.8711C269.621 65.0597 270.917 65.4402 271.9 66.0127C272.937 66.5805 273.949 67.4797 274.934 68.7105C275.802 69.8419 276.273 70.8433 276.35 71.7146C276.378 72.0414 276.372 72.2888 276.332 72.4569C276.089 74.0696 274.531 76.0168 271.658 78.2986C270.318 79.2938 268.368 79.9034 265.809 80.1273C264.556 80.2369 263.409 80.6116 262.368 81.2515C261.376 81.8322 260.887 82.2042 260.901 82.3675C260.925 82.6398 261.141 83.2246 261.549 84.1218C262.011 85.0142 262.358 85.5326 262.59 85.6769C263 85.9703 264.501 86.1957 267.094 86.353C269.687 86.5102 272.046 86.496 274.169 86.3102L275.068 86.2315L276.538 86.1029C277.137 86.0505 277.499 86.1012 277.622 86.2551C277.74 86.3544 277.826 86.7037 277.878 87.3027L277.95 88.1196L269.692 88.7597C264.132 89.1912 261.041 89.2971 260.418 89.0772C258.663 88.4625 257.028 87.0142 255.511 84.7324C253.994 82.4505 253.136 80.166 252.936 77.8787C252.698 75.1558 253.189 72.616 254.409 70.2593C255.68 67.8434 257.326 66.2726 259.347 65.547ZM307.382 58.1343C307.858 57.928 308.205 57.8154 308.423 57.7963C308.586 57.782 309.084 58.4519 309.915 59.8058C310.624 61.006 311.132 62.1139 311.441 63.1295C311.804 64.1404 312.395 66.5033 313.213 70.218C314.262 74.6809 314.875 77.2888 315.05 78.0417C315.359 79.0574 315.544 79.9192 315.606 80.6271C315.677 81.444 315.546 82.1414 315.213 82.7194C315.023 83.0652 314.619 83.4573 313.998 83.8956C313.378 84.334 312.905 84.5675 312.578 84.5961L312.415 84.6104C312.356 84.5607 311.674 83.3582 310.371 81.0028C309.067 78.6475 308.41 77.4153 308.401 77.3064C308.396 77.252 307.279 78.2826 305.05 80.3983C301.211 84.1913 298.716 86.4125 297.566 87.0619C295.002 88.4934 293.067 89.2664 291.76 89.3807C291.161 89.4331 290.632 89.3423 290.172 89.1081C289.317 88.7439 288.65 87.7047 288.171 85.9906C287.872 85.0839 287.237 81.9018 286.266 76.4444C285.349 70.9822 284.826 67.5159 284.697 66.0455C284.597 64.9019 284.797 63.732 285.296 62.536L286.14 60.8981C286.259 60.9975 286.685 61.4815 287.42 62.3502C288.159 63.2732 288.672 64.4356 288.959 65.8372C289.807 69.8788 290.576 74.2838 291.268 79.0523C291.52 80.6765 291.783 81.8059 292.058 82.4403C292.328 83.0203 292.775 83.4203 293.398 83.6401C293.739 83.7749 294.154 83.8209 294.645 83.778C296.115 83.6494 298.273 82.2808 301.117 79.6722C304.265 76.7628 306.192 73.384 306.898 69.5359C307.08 68.4773 307.064 66.4208 306.852 63.3664L306.587 58.4508L307.382 58.1343ZM307.181 34.1987C308.159 33.4547 308.729 33.0755 308.893 33.0612C308.947 33.0564 308.977 33.0813 308.981 33.1358C308.991 33.2447 308.111 35.1051 306.342 38.7171C304.433 42.6156 302.601 45.8215 300.845 48.3347C300.109 49.332 299.244 50.4228 298.25 51.6073C297.257 52.7918 296.678 53.3912 296.515 53.4054C296.351 53.4197 296.298 53.1226 296.354 52.514C296.507 49.8667 297.708 46.6611 299.958 42.8974C302.203 39.0792 304.611 36.1796 307.181 34.1987ZM366.015 58.6018C367.243 56.9579 368.62 56.0692 370.145 55.9358C371.942 55.7786 373.478 56.7143 374.753 58.7428C376.096 60.9301 377.759 65.5039 379.74 72.4644C380.375 74.7136 380.715 76.0832 380.758 76.5733C380.805 77.1179 380.66 77.652 380.322 78.1754C379.794 79.0447 378.795 79.5437 377.325 79.6723L377.243 79.6795C377.025 79.6985 376.845 79.5222 376.703 79.1505C376.556 78.7244 376.212 77.3003 375.67 74.8783C374.519 69.8755 373.713 66.928 373.251 66.0355C373.054 65.6686 372.379 64.8497 371.225 63.5787L369.583 61.7469L368.078 63.3602C367.025 64.495 366.286 65.465 365.863 66.2703C365.489 67.0164 365.126 68.2005 364.774 69.8227C364.503 71.1086 364.457 72.7862 364.639 74.8557C364.815 76.8706 364.791 78.1623 364.566 78.7307C364.008 79.8771 362.758 80.6449 360.816 81.0343L359.681 76.5241C358.207 70.3423 357.192 66.8917 356.635 66.1722C356.088 65.5615 355.489 64.9829 354.837 64.4363C354.126 63.8399 353.662 63.5513 353.444 63.5704C353.172 63.5942 352.455 64.1782 351.293 65.3225C350.488 66.1612 349.926 66.9512 349.607 67.6925C349.288 68.4338 348.989 69.7221 348.71 71.5573C348.64 72.0025 348.543 72.7793 348.42 73.8875C348.293 74.9413 348.189 75.6363 348.109 75.9726C347.958 76.754 347.605 78.0471 347.049 79.8517C346.543 81.5971 346.193 82.6155 345.999 82.9068L345.519 82.1257L345.32 81.7315C344.943 80.5573 344.671 79.0171 344.504 77.1111C344.304 74.8238 344.318 73.094 344.544 71.9218C345.321 67.6285 346.84 64.2854 349.1 61.8926C350.609 60.3338 352.167 59.3195 353.772 58.8498C353.985 58.7763 354.255 58.7253 354.582 58.6967C355.399 58.6252 356.16 58.8604 356.866 59.4023C357.567 59.8897 358.556 60.8458 359.833 62.2706C360.385 62.9357 360.965 63.5984 361.571 64.2587C362.178 64.919 362.602 65.3758 362.844 65.629L363.368 64.1014C364.288 61.4418 365.17 59.6086 366.015 58.6018ZM398.658 56.4045C398.203 56.2248 397.621 56.1659 396.914 56.2278C395.606 56.3422 394.625 56.7299 393.97 57.3908C393.513 57.8149 393.256 58.3313 393.2 58.9398C393.138 59.4939 393.164 60.7264 393.276 62.6372L393.383 63.8626C393.803 68.6549 394.755 71.6995 396.24 72.9963C396.714 73.3939 397.33 73.5321 398.088 73.4109C399.44 73.1829 400.652 72.6104 401.724 71.6935C402.791 70.7221 403.438 69.6503 403.665 68.478C403.842 67.365 403.887 66.3184 403.802 65.3382C403.621 63.2687 403.016 61.3736 401.987 59.6527C400.959 57.9318 399.849 56.849 398.658 56.4045ZM395.228 52.0127C395.446 51.9937 395.745 51.9675 396.126 51.9341C396.557 51.8415 396.854 51.7881 397.018 51.7738C397.236 51.7547 397.483 51.7605 397.76 51.7912C398.032 51.7674 398.196 51.7531 398.25 51.7483C400.13 51.9131 402.012 53.038 403.896 55.1231C405.775 57.1537 407.021 59.4866 407.636 62.1217C407.812 62.8746 407.907 63.3328 407.921 63.4961C407.93 63.6051 407.874 64.2136 407.751 65.3219C407.457 67.5975 406.597 70.0049 405.173 72.5441C403.749 75.0832 402.305 76.7734 400.842 77.6148C400.163 78.0035 399.17 78.255 397.863 78.3694C396.501 78.4885 395.48 78.4132 394.798 78.1437C393.216 77.6236 392.006 76.6593 391.17 75.2508C389.748 72.7961 388.815 69.0364 388.372 63.9718C388.262 62.7192 388.209 61.791 388.211 61.1872C388.207 59.2669 388.306 57.8863 388.507 57.0456C388.757 56.1457 389.206 55.3108 389.852 54.5409C391.054 53.2285 392.846 52.3857 395.228 52.0127ZM415.629 53.0265C415.41 50.5214 415.791 49.226 416.771 49.1402C417.261 49.0973 417.833 50.3094 418.488 52.7763C419.288 56.2733 421.521 58.904 425.188 60.6685C426.62 61.3663 427.664 61.6866 428.317 61.6294C429.297 61.5436 429.804 60.4293 429.836 58.2863C429.905 55.317 429.987 53.7458 430.082 53.5729C430.181 53.4545 430.369 53.4106 430.646 53.4412C430.973 53.4126 431.223 53.4456 431.396 53.5403C431.623 53.6301 431.839 54.2149 432.043 55.2945C432.238 56.2653 432.475 57.0951 432.755 57.784C433.604 59.9596 434.192 61.0331 434.518 61.0045C434.895 60.9167 435.631 60.5505 436.727 59.9059C437.873 59.202 438.518 58.734 438.662 58.5019C439.135 57.6373 439.405 55.3913 439.472 51.7637L439.619 47.7997C439.669 47.7405 439.721 47.7085 439.775 47.7038C440.429 47.6466 441.145 47.9955 441.925 48.7504C442.467 49.3066 442.786 50.1292 442.881 51.2184C443.005 52.6343 442.789 54.2446 442.234 56.0492C441.853 57.3447 441.689 58.2919 441.742 58.8909C441.775 59.2722 441.888 59.619 442.08 59.9314C442.272 60.2439 442.432 60.5043 442.559 60.7126C442.737 60.8617 443.065 61.1622 443.544 61.6142C444.018 62.0118 444.373 62.31 444.61 62.5087C446.801 64.3474 448.665 66.5166 450.2 69.0163C450.53 69.6459 450.709 70.1242 450.737 70.4509C450.78 70.941 450.66 71.4455 450.376 71.9642C450.132 72.3147 449.73 72.7341 449.169 73.2221C448.662 73.7055 448.3 73.9566 448.082 73.9757L448.001 73.9829C447.823 73.8338 447.548 73.1993 447.176 72.0795C445.155 66.5492 441.912 63.9794 437.447 64.3701L436.712 64.4344C434.974 64.6414 434.16 65.3711 434.269 66.6236C434.288 66.8415 434.381 67.2724 434.547 67.9164C434.763 68.5011 434.963 69.2244 435.148 70.0862C435.269 70.8439 435.082 71.5188 434.585 72.111C434.088 72.7033 433.73 73.0089 433.512 73.028C433.186 73.0565 432.593 71.9286 431.735 69.644C430.959 67.6815 430.169 66.4885 429.364 66.065C428.791 65.7859 428.044 65.7141 427.122 65.8496C422.839 66.4438 420.953 69.6545 421.462 75.4815C421.52 76.135 421.526 76.5186 421.481 76.6323C421.431 76.6915 421.248 76.7899 420.93 76.9274C420.663 77.0057 420.311 77.0639 419.876 77.102C418.405 77.2306 417.608 76.587 417.484 75.1711C417.479 75.1166 417.472 75.0349 417.463 74.926C417.503 74.7579 417.518 74.6193 417.509 74.5104C417.567 73.298 418.028 71.6663 418.891 69.6153C419.755 67.5642 420.656 65.9489 421.595 64.7692L422.855 63.1773L420.894 61.4557C417.632 58.6681 415.877 55.8583 415.629 53.0265ZM474.126 50.2135C473.849 50.1828 473.356 50.1985 472.648 50.2604C471.069 50.3986 469.32 50.7985 467.403 51.4601C465.485 52.1218 464.355 52.6871 464.012 53.1562C463.415 53.8668 463.196 55.1207 463.353 56.9179C463.42 57.6803 463.574 58.1881 463.816 58.4414C464.052 58.6401 464.727 58.828 465.84 59.005C466.508 59.1112 467.468 59.1095 468.721 59C470.518 58.8427 472.873 58.4721 475.785 57.8881C476.216 57.7955 476.674 57.7005 477.159 57.6032C477.645 57.5058 478.024 57.4453 478.296 57.4214L478.697 57.304C478.752 57.2993 478.946 57.0079 479.279 56.43L479.779 55.5631L478.287 53.5535C476.73 51.4398 475.343 50.3265 474.126 50.2135ZM465.003 47.5544C465.964 47.2508 467.235 47.0299 468.814 46.8918C470.775 46.7202 472.393 46.7158 473.669 46.8785C475.277 47.0671 476.573 47.4477 477.556 48.0202C478.593 48.5879 479.605 49.4872 480.59 50.718C481.458 51.8493 481.929 52.8507 482.006 53.722C482.034 54.0488 482.028 54.2962 481.988 54.4644C481.745 56.077 480.187 58.0243 477.313 60.306C475.974 61.3013 474.024 61.9108 471.465 62.1348C470.212 62.2443 469.065 62.6191 468.023 63.2589C467.032 63.8396 466.543 64.2116 466.557 64.375C466.581 64.6473 466.797 65.232 467.205 66.1292C467.667 67.0217 468.014 67.5401 468.246 67.6844C468.656 67.9778 470.157 68.2031 472.75 68.3604C475.343 68.5177 477.701 68.5034 479.825 68.3176L480.724 68.239L482.194 68.1103C482.793 68.0579 483.154 68.1087 483.278 68.2625C483.396 68.3619 483.482 68.7111 483.534 69.3102L483.605 70.127L475.348 70.7672C469.788 71.1987 466.697 71.3045 466.074 71.0846C464.319 70.4699 462.683 69.0216 461.167 66.7398C459.65 64.458 458.792 62.1734 458.592 59.8862C458.353 57.1632 458.845 54.6234 460.065 52.2667C461.335 49.8508 462.981 48.2801 465.003 47.5544ZM490.261 42.299C490.332 41.8538 490.667 41.605 491.266 41.5526C492.137 41.4764 496.05 41.3536 503.005 41.1841C509.954 40.9603 513.459 40.8732 513.518 40.9229C513.577 40.9726 513.687 41.2922 513.849 41.8817L514.091 42.766L512.365 43.7401C511.319 44.3255 510.231 44.7499 509.101 45.0133C507.541 45.3693 506.542 45.8683 506.105 46.5102C505.667 47.1522 505.505 48.1266 505.619 49.4336C505.648 49.7604 505.788 50.7359 506.04 52.3601C506.351 54.034 506.645 56.4503 506.921 59.6089L507.286 63.775L506.758 66.2083C506.415 67.9394 505.999 68.8263 505.509 68.8692C505.455 68.874 505.15 68.8457 504.596 68.7845C504.205 68.7089 503.922 68.2947 503.747 67.5418C503.148 64.4662 502.53 59.9108 501.892 53.8754C501.583 50.3356 501.236 48.2532 500.852 47.6283C499.892 46.066 498.066 45.2654 495.374 45.2266C494.325 45.1537 493.207 44.9223 492.021 44.5322C491.284 44.2674 490.802 44.0901 490.575 44.0002C490.343 43.8559 490.212 43.6203 490.184 43.2936C490.174 43.1847 490.2 42.8532 490.261 42.299ZM563.807 56.5252C562.166 55.9554 560.637 55.7325 559.221 55.8564C558.459 55.9231 557.491 56.145 556.316 56.5221C555.623 56.7474 554.602 57.0013 553.255 57.2838C551.145 57.633 550.157 58.57 550.291 60.0948C550.31 60.3127 550.402 60.7436 550.568 61.3876L551.024 62.8294C551.242 62.8103 553.795 62.2028 558.684 61.0068C563.628 59.806 566.124 59.176 566.174 59.1168C566.224 59.0576 566.222 58.7285 566.17 58.1294L566.173 57.2237L563.807 56.5252ZM550.57 36.9404C551.926 36.7668 553.823 36.4912 556.259 36.1134C558.75 35.7308 560.567 35.4896 561.711 35.3895C561.874 35.3752 562.111 35.574 562.422 35.9858C562.678 36.4024 562.729 36.6723 562.575 36.7956C562.575 36.7956 562.525 36.8548 562.426 36.9732C562.326 37.0917 561.756 37.4708 560.714 38.1107C559.881 38.6226 558.757 38.9405 557.341 39.0644C555.979 39.1835 554.251 39.4993 552.156 40.0119C550.055 40.47 548.557 40.9029 547.66 41.3107L547.646 43.0404C547.661 43.2038 547.657 43.4785 547.636 43.8645C547.665 44.1912 547.688 44.4635 547.708 44.6813C547.989 47.8944 548.455 50.4053 549.107 52.214C549.181 52.4271 549.262 52.7218 549.349 53.0983C549.487 53.4155 549.59 53.6534 549.659 53.812L549.769 54.1316C550.084 54.5979 551.467 54.7239 553.918 54.5095C555.443 54.3761 556.708 54.1007 557.714 53.6835C558.988 53.1879 560.197 52.8901 561.34 52.79C562.484 52.69 563.397 52.7747 564.079 53.0443C567.079 54.0988 568.761 56.6955 569.123 60.8343C569.199 61.7057 569.106 62.2077 568.843 62.3405C567.906 62.9163 565.818 63.5106 562.579 64.1232C558.79 64.729 554.636 65.2297 550.116 65.6251L548.639 65.6721C548.519 64.3106 547.087 57.6588 544.341 45.7167C543.717 42.9727 543.374 41.2466 543.312 40.5387C543.197 39.2317 543.51 38.4087 544.248 38.0697C545.036 37.6715 546.79 37.326 549.508 37.0333C549.944 36.9952 550.297 36.9642 550.57 36.9404ZM612.749 35.0399C612.794 34.9263 613.088 34.8456 613.633 34.7979C614.178 34.7503 614.702 34.7867 615.206 34.9072C616.883 35.2544 617.998 36.3916 618.551 38.3187C619.504 41.6925 620.513 46.9545 621.578 54.105L621.853 56.3034L621.15 57.6819C620.627 58.6056 620.311 59.0723 620.202 59.0818C619.985 59.1008 619.518 58.785 618.803 58.1342C618.087 57.4834 617.631 56.9745 617.434 56.6076C617.095 55.869 616.87 55.1754 616.758 54.5266C616.661 54.0413 616.071 51.3765 614.989 46.5324C613.56 40.237 612.8 36.5719 612.71 35.5372C612.686 35.2649 612.699 35.0992 612.749 35.0399ZM601.182 50.5391C600.232 50.3478 598.913 50.326 597.225 50.4737C595.918 50.588 594.809 50.7674 593.897 51.0117C589.929 52.0723 587.019 53.6165 585.166 55.6444C584.515 56.3598 584.216 57.0171 584.268 57.6161C584.375 58.2104 584.593 58.8224 584.922 59.452C585.302 60.0225 585.689 60.3727 586.084 60.5028C586.88 60.8173 588.041 60.9078 589.565 60.7744C594.031 60.3837 598.265 58.9158 602.268 56.3706C603.101 55.8587 603.9 55.2675 604.664 54.5969C605.479 53.8672 605.876 53.3934 605.857 53.1756C605.838 52.9578 605.167 52.4952 603.842 51.7879C602.573 51.0758 601.686 50.6596 601.182 50.5391ZM580.876 64.0041C580.817 63.9544 580.376 61.743 579.555 57.37C578.733 52.9969 577.911 48.6239 577.09 44.2509C576.323 39.8731 575.966 37.6818 576.021 37.677C576.674 37.6198 577.539 38.093 578.614 39.0964C579.275 39.7519 579.716 40.3993 579.937 41.0385C580.207 41.6185 580.453 42.8591 580.674 44.7604C581.095 47.6869 581.626 49.369 582.268 49.8067C582.445 49.9558 582.834 50.0041 583.433 49.9517C583.542 49.9422 584.299 49.821 585.706 49.5882C592.52 48.4433 597.316 47.7494 600.093 47.5064C602.435 47.3015 604.06 47.3788 604.97 47.7382C606.725 48.353 607.966 49.3693 608.694 50.7873C608.954 51.2583 609.118 51.8751 609.185 52.6375C609.361 54.6525 608.848 56.3162 607.646 57.6286C606.643 58.7042 604.82 59.824 602.178 60.988C599.586 62.0928 596.913 62.9028 594.159 63.4181C592.862 63.6414 591.532 63.8126 590.171 63.9317C584.398 64.4367 581.3 64.4608 580.876 64.0041ZM628.588 30.197C628.659 29.7518 628.994 29.503 629.593 29.4506C630.464 29.3744 634.377 29.2515 641.332 29.0821C648.281 28.8582 651.786 28.7711 651.845 28.8208C651.904 28.8705 652.014 29.1901 652.176 29.7796L652.418 30.6639L650.692 31.638C649.646 32.2234 648.558 32.6479 647.429 32.9113C645.868 33.2673 644.869 33.7663 644.432 34.4082C643.994 35.0501 643.832 36.0246 643.947 37.3316C643.975 37.6583 644.115 38.6338 644.367 40.2581C644.678 41.932 644.972 44.3482 645.248 47.5068L645.613 51.6729L645.085 54.1062C644.742 55.8373 644.326 56.7243 643.836 56.7672C643.782 56.7719 643.477 56.7437 642.923 56.6824C642.532 56.6068 642.249 56.1926 642.074 55.4397C641.475 52.3642 640.857 47.8087 640.219 41.7733C639.91 38.2335 639.563 36.1511 639.179 35.5262C638.219 33.9639 636.393 33.1634 633.701 33.1245C632.652 33.0517 631.534 32.8202 630.348 32.4302C629.611 32.1653 629.129 31.988 628.902 31.8981C628.67 31.7538 628.539 31.5183 628.511 31.1915C628.501 31.0826 628.527 30.7511 628.588 30.197ZM683.23 40.9737C682.834 40.8437 680.022 41.0074 674.794 41.4648C672.561 41.6601 671.339 41.7945 671.125 41.868C669.793 42.3139 668.89 42.9691 668.416 43.8336C667.839 44.7621 667.61 45.9071 667.729 47.2686C667.872 48.9024 668.442 50.0872 669.44 50.8231C669.913 51.2206 670.454 51.4476 671.063 51.5042C671.721 51.5014 673.639 51.4708 676.817 51.4123C677.584 51.4001 678.621 51.3368 679.928 51.2224C683.087 50.9461 685.42 50.3304 686.928 49.3753C688.485 48.3611 689.403 46.9363 689.682 45.1011C689.753 44.6559 689.779 44.3243 689.759 44.1065C689.698 43.3985 689.311 42.7464 688.601 42.1501C688.013 41.7076 686.863 41.424 685.151 41.2995C684.874 41.2688 684.483 41.1933 683.979 41.0728L683.23 40.9737ZM661.781 28.1985C662.268 27.4973 662.539 27.1444 662.593 27.1396C662.648 27.1349 663.05 27.3466 663.801 27.7748C664.379 28.1083 664.759 28.3769 664.942 28.5804C665.12 28.7295 665.284 29.0443 665.436 29.5249C665.583 29.9511 665.702 30.6815 665.792 31.7162L666.007 34.1669L666.443 39.1498L671.344 38.721C679.622 37.9968 685.211 38.2212 688.112 39.3941C690.218 40.2525 691.887 42.082 693.12 44.8826L693.547 45.9976L693.068 47.1096C692.349 48.9285 690.775 50.3832 688.346 51.4737C684.064 53.33 678.6 54.5488 671.956 55.1301L670.486 55.2587L664.352 55.713L663.975 53.2767C663.361 48.7757 662.586 42.4231 661.649 34.2189L661.049 29.2502L661.781 28.1985ZM92.2214 152.064C93.109 151.548 93.9613 151.253 94.7782 151.182C95.5951 151.111 96.2853 151.16 96.849 151.33C98.0307 151.666 99.2186 152.385 100.413 153.488C101.607 154.59 102.244 155.605 102.325 156.531C102.406 157.456 102.054 158.448 101.268 159.504C100.433 160.62 99.7702 161.199 99.2801 161.242L99.1984 161.249L98.7001 159.317C97.9881 156.197 96.8697 154.703 95.3449 154.837C94.4191 154.918 93.4817 155.493 92.5327 156.564C91.4299 157.758 90.5749 159.589 89.9677 162.057C89.4149 164.52 89.2457 166.976 89.4601 169.427C89.5363 170.298 89.7406 171.378 90.0727 172.666C90.5329 174.162 91.3351 175.491 92.4794 176.653C93.6734 177.756 94.9511 178.248 96.3126 178.129C97.1295 178.057 97.9498 177.711 98.7735 177.09C101.14 175.292 103.114 174.324 104.693 174.185C104.802 174.176 104.863 174.253 104.878 174.416C104.963 175.396 104.464 176.592 103.381 178.004C102.635 178.893 101.501 179.733 99.9793 180.524C98.5069 181.257 97.1444 181.678 95.8919 181.787L95.3201 181.837C93.5086 181.831 91.7442 181.108 90.0267 179.667C88.3589 178.166 87.0935 176.246 86.2303 173.907C85.8818 173.06 85.6075 171.493 85.4074 169.205C85.212 166.972 85.2406 165.104 85.4932 163.6C86.4967 158.135 88.7394 154.289 92.2214 152.064ZM125.506 144.049C125.411 142.96 125.581 142.396 126.017 142.358C126.344 142.329 126.874 142.749 127.609 143.618C128.289 144.491 128.65 145.173 128.693 145.663L128.736 146.153C128.916 150.089 128.534 153.881 127.591 157.53C127.261 158.766 127.084 159.879 127.06 160.869L127.11 161.441C127.23 162.803 128.367 164.514 130.523 166.575C134.839 170.752 137.322 173.416 137.972 174.566C138.365 175.3 138.321 176.045 137.838 176.801C137.152 177.739 136.346 178.248 135.42 178.329C135.202 178.348 135.036 178.335 134.923 178.29C134.463 178.056 133.832 177.425 133.029 176.398C132.166 175.321 131.311 174.326 130.463 173.412C129.377 172.3 127.944 170.971 126.163 169.426C124.381 167.881 123.293 167.043 122.897 166.913C122.447 166.788 121.619 166.723 120.411 166.719L118.607 166.795L118.37 168.791C118.334 169.013 118.299 169.236 118.264 169.459C118.283 169.676 118.272 169.869 118.232 170.038C118.241 170.147 118.226 170.285 118.186 170.453C118.195 170.562 118.205 170.671 118.214 170.78C118.224 170.889 118.302 171.156 118.449 171.583C119.028 173.178 119.327 174.085 119.346 174.303C119.365 174.521 119.307 174.8 119.172 175.141C118.997 175.65 118.704 176.06 118.292 176.37C117.314 177.115 116.363 177.527 115.437 177.608L115.355 177.615C115.291 177.511 114.633 173.124 113.381 164.453C112.178 155.723 111.546 151.005 111.484 150.297C111.479 150.242 111.771 150.134 112.361 149.973C112.896 149.816 113.234 149.924 113.377 150.296C113.744 151.361 114.72 153.416 116.303 156.46C117.941 159.5 118.842 161.012 119.005 160.998C119.223 160.979 120.046 160.358 121.476 159.135C122.96 157.908 123.797 157.121 123.986 156.776C124.374 156.193 124.664 155.427 124.855 154.477C125.051 153.582 125.232 151.892 125.399 149.408C125.561 146.87 125.597 145.083 125.506 144.049ZM156.174 151.902C155.719 151.722 155.138 151.663 154.43 151.725C153.123 151.839 152.142 152.227 151.486 152.888C151.03 153.312 150.773 153.828 150.716 154.437C150.655 154.991 150.681 156.224 150.793 158.134L150.9 159.36C151.319 164.152 152.272 167.197 153.757 168.494C154.231 168.891 154.847 169.029 155.604 168.908C156.956 168.68 158.168 168.108 159.24 167.191C160.308 166.219 160.955 165.147 161.181 163.975C161.359 162.862 161.404 161.816 161.318 160.835C161.137 158.766 160.532 156.871 159.504 155.15C158.475 153.429 157.365 152.346 156.174 151.902ZM152.744 147.51C152.962 147.491 153.262 147.465 153.643 147.431C154.074 147.339 154.371 147.285 154.534 147.271C154.752 147.252 155 147.258 155.277 147.288C155.549 147.265 155.712 147.25 155.767 147.246C157.647 147.41 159.529 148.535 161.412 150.62C163.291 152.651 164.538 154.984 165.153 157.619C165.328 158.372 165.423 158.83 165.437 158.993C165.447 159.102 165.391 159.711 165.268 160.819C164.973 163.095 164.114 165.502 162.69 168.041C161.265 170.58 159.822 172.271 158.359 173.112C157.68 173.501 156.687 173.752 155.38 173.867C154.018 173.986 152.996 173.91 152.314 173.641C150.732 173.121 149.523 172.156 148.686 170.748C147.264 168.293 146.332 164.534 145.889 159.469C145.779 158.216 145.725 157.288 145.727 156.684C145.724 154.764 145.823 153.384 146.023 152.543C146.274 151.643 146.722 150.808 147.368 150.038C148.57 148.726 150.362 147.883 152.744 147.51ZM179.601 145.16C181.182 143.156 183.034 142.061 185.158 141.875C186.138 141.79 187.054 141.902 187.904 142.211C189.599 142.776 190.9 143.842 191.805 145.41C193.287 147.914 194.675 151.551 195.97 156.322C196.293 157.501 196.849 159.785 197.64 163.173C198.425 166.506 198.835 168.364 198.868 168.745C198.892 169.017 198.635 169.533 198.098 170.294C197.516 171.168 197.034 171.622 196.653 171.655C196.49 171.669 196.23 171.527 195.875 171.229C195.155 170.524 194.625 169.802 194.286 169.063C193.947 168.325 193.46 166.831 192.824 164.582C190.433 156.066 189.109 151.599 188.853 151.183C188.396 150.345 187.728 149.608 186.849 148.971C186.025 148.33 185.286 148.038 184.632 148.095C183.815 148.166 182.892 148.906 181.863 150.313C181.281 151.187 180.649 154.315 179.968 159.698C179.687 162.137 179.4 164.192 179.108 165.864C178.916 166.814 178.558 168.052 178.034 169.58C177.504 171.053 177.13 171.799 176.912 171.818C176.586 171.847 176.277 171.764 175.985 171.57C175.639 171.381 175.43 171.18 175.356 170.966C175.283 170.753 175.144 170.107 174.94 169.027C174.847 168.596 174.763 167.945 174.686 167.074C174.334 163.044 174.754 158.754 175.948 154.205C177.15 149.765 178.368 146.75 179.601 145.16ZM227.512 155.126C227.116 154.996 224.305 155.16 219.077 155.618C216.844 155.813 215.621 155.947 215.408 156.021C214.075 156.467 213.172 157.122 212.699 157.986C212.122 158.915 211.892 160.06 212.012 161.421C212.154 163.055 212.725 164.24 213.722 164.976C214.196 165.373 214.737 165.6 215.345 165.657C216.004 165.654 217.922 165.624 221.099 165.565C221.866 165.553 222.904 165.49 224.211 165.375C227.369 165.099 229.702 164.483 231.21 163.528C232.768 162.514 233.686 161.089 233.964 159.254C234.035 158.809 234.061 158.477 234.042 158.259C233.98 157.551 233.594 156.899 232.883 156.303C232.295 155.86 231.146 155.577 229.434 155.452C229.157 155.422 228.766 155.346 228.261 155.226L227.512 155.126ZM206.063 142.351C206.55 141.65 206.821 141.297 206.876 141.292C206.93 141.288 207.333 141.499 208.084 141.928C208.662 142.261 209.042 142.53 209.224 142.733C209.402 142.882 209.567 143.197 209.718 143.678C209.865 144.104 209.984 144.834 210.075 145.869L210.289 148.32L210.725 153.303L215.626 152.874C223.904 152.15 229.494 152.374 232.395 153.547C234.5 154.405 236.169 156.235 237.402 159.035L237.829 160.15L237.35 161.262C236.631 163.081 235.057 164.536 232.629 165.627C228.346 167.483 222.883 168.702 216.239 169.283L214.768 169.412L208.635 169.866L208.257 167.429C207.644 162.928 206.868 156.576 205.931 148.372L205.332 143.403L206.063 142.351ZM258.728 132.393C258.633 131.304 258.803 130.741 259.239 130.702C259.565 130.674 260.096 131.094 260.83 131.962C261.511 132.836 261.872 133.518 261.915 134.008L261.958 134.498C262.137 138.433 261.756 142.226 260.813 145.875C260.482 147.111 260.305 148.224 260.282 149.214L260.332 149.786C260.451 151.147 261.589 152.859 263.744 154.92C268.061 159.097 270.544 161.761 271.193 162.911C271.587 163.645 271.542 164.39 271.059 165.145C270.373 166.083 269.567 166.593 268.641 166.674C268.424 166.693 268.258 166.68 268.144 166.635C267.685 166.401 267.053 165.77 266.25 164.743C265.388 163.666 264.532 162.671 263.684 161.757C262.599 160.645 261.166 159.316 259.384 157.771C257.603 156.225 256.514 155.388 256.119 155.258C255.669 155.132 254.84 155.068 253.632 155.064L251.828 155.139L251.591 157.135C251.556 157.358 251.52 157.581 251.485 157.803C251.504 158.021 251.494 158.214 251.453 158.382C251.463 158.491 251.448 158.63 251.407 158.798C251.417 158.907 251.427 159.016 251.436 159.125C251.446 159.233 251.524 159.501 251.671 159.927C252.25 161.523 252.548 162.43 252.567 162.647C252.586 162.865 252.529 163.145 252.394 163.486C252.219 163.995 251.925 164.405 251.514 164.715C250.536 165.459 249.584 165.872 248.659 165.953L248.577 165.96C248.513 165.856 247.855 161.468 246.602 152.798C245.4 144.068 244.767 139.349 244.705 138.641C244.7 138.587 244.993 138.479 245.582 138.318C246.117 138.161 246.456 138.269 246.598 138.64C246.966 139.706 247.941 141.76 249.525 144.805C251.163 147.844 252.063 149.357 252.227 149.342C252.444 149.323 253.268 148.703 254.698 147.48C256.182 146.253 257.018 145.466 257.207 145.12C257.595 144.538 257.885 143.771 258.076 142.822C258.273 141.927 258.454 140.237 258.621 137.753C258.783 135.215 258.819 133.428 258.728 132.393ZM289.396 140.246C288.941 140.067 288.36 140.008 287.652 140.07C286.345 140.184 285.363 140.572 284.708 141.233C284.251 141.657 283.994 142.173 283.938 142.782C283.877 143.336 283.902 144.568 284.014 146.479L284.122 147.704C284.541 152.497 285.493 155.541 286.979 156.838C287.452 157.236 288.068 157.374 288.826 157.253C290.178 157.025 291.39 156.452 292.462 155.535C293.529 154.564 294.176 153.492 294.403 152.32C294.58 151.207 294.626 150.16 294.54 149.18C294.359 147.111 293.754 145.215 292.726 143.494C291.697 141.774 290.587 140.691 289.396 140.246ZM285.966 135.855C286.184 135.835 286.483 135.809 286.864 135.776C287.295 135.683 287.593 135.63 287.756 135.616C287.974 135.597 288.221 135.602 288.498 135.633C288.771 135.609 288.934 135.595 288.988 135.59C290.869 135.755 292.75 136.88 294.634 138.965C296.513 140.996 297.76 143.328 298.374 145.964C298.55 146.716 298.645 147.175 298.659 147.338C298.669 147.447 298.612 148.055 298.49 149.164C298.195 151.439 297.335 153.847 295.911 156.386C294.487 158.925 293.044 160.615 291.581 161.457C290.901 161.845 289.908 162.097 288.601 162.211C287.24 162.33 286.218 162.255 285.536 161.985C283.954 161.465 282.744 160.501 281.908 159.093C280.486 156.638 279.553 152.878 279.11 147.814C279.001 146.561 278.947 145.633 278.949 145.029C278.945 143.109 279.044 141.728 279.245 140.887C279.496 139.988 279.944 139.153 280.59 138.383C281.792 137.07 283.584 136.228 285.966 135.855ZM338.029 130.888C342.267 130.408 344.436 130.108 344.535 129.99C344.634 129.871 344.988 129.84 345.597 129.897C346.646 129.97 347.297 130.516 347.551 131.537C347.732 132.344 348.161 135.05 348.838 139.655C349.57 144.256 350.051 147.561 350.282 149.571L350.489 151.94C350.608 153.302 350.578 154.21 350.398 154.665C350.218 155.119 349.649 155.828 348.691 156.789C347.931 157.514 347.526 157.906 347.477 157.966C347.427 158.025 347.207 158.017 346.816 157.941C346.416 157.757 346.162 157.367 346.055 156.773C345.393 153.593 344.675 148.525 343.902 141.569C343.517 138.42 343.258 136.714 343.125 136.451C342.717 135.554 342.066 135.007 341.17 134.811C340.725 134.74 338.923 134.843 335.765 135.12C333.369 135.329 331.955 135.48 331.524 135.573C331.143 135.606 330.962 135.732 330.981 135.95C331.019 136.385 331.417 138.738 332.175 143.006C333.452 150.083 334.129 154.057 334.205 154.929C334.248 155.419 334.202 155.835 334.067 156.176C333.713 157.139 332.654 157.891 330.89 158.429C330.033 158.669 329.575 158.764 329.515 158.714C329.16 158.416 328.494 153.316 327.518 143.414C327.302 141.567 327.098 139.554 326.908 137.376C326.736 135.416 326.768 134.206 327.002 133.746C327.236 133.287 327.507 132.934 327.815 132.687C328.539 132.185 331.944 131.585 338.029 130.888ZM368.371 133.337C367.917 133.157 367.335 133.098 366.627 133.16C365.32 133.275 364.339 133.662 363.684 134.323C363.227 134.747 362.97 135.264 362.914 135.872C362.852 136.426 362.878 137.659 362.99 139.57L363.097 140.795C363.517 145.587 364.469 148.632 365.954 149.929C366.428 150.326 367.044 150.464 367.801 150.343C369.153 150.115 370.365 149.543 371.438 148.626C372.505 147.654 373.152 146.583 373.379 145.41C373.556 144.297 373.601 143.251 373.516 142.271C373.335 140.201 372.73 138.306 371.701 136.585C370.673 134.864 369.563 133.781 368.371 133.337ZM364.942 128.945C365.159 128.926 365.459 128.9 365.84 128.866C366.271 128.774 366.568 128.72 366.732 128.706C366.949 128.687 367.197 128.693 367.474 128.724C367.746 128.7 367.91 128.685 367.964 128.681C369.844 128.845 371.726 129.97 373.61 132.055C375.488 134.086 376.735 136.419 377.35 139.054C377.525 139.807 377.62 140.265 377.635 140.429C377.644 140.537 377.588 141.146 377.465 142.254C377.17 144.53 376.311 146.937 374.887 149.476C373.463 152.016 372.019 153.706 370.556 154.547C369.877 154.936 368.884 155.187 367.577 155.302C366.215 155.421 365.194 155.346 364.511 155.076C362.929 154.556 361.72 153.592 360.883 152.183C359.461 149.728 358.529 145.969 358.086 140.904C357.976 139.652 357.922 138.723 357.924 138.12C357.921 136.199 358.02 134.819 358.221 133.978C358.471 133.078 358.919 132.243 359.565 131.473C360.768 130.161 362.56 129.318 364.942 128.945ZM385.343 129.959C385.124 127.454 385.504 126.158 386.485 126.073C386.975 126.03 387.547 127.242 388.202 129.709C389.002 133.206 391.235 135.836 394.901 137.601C396.334 138.299 397.378 138.619 398.031 138.562C399.011 138.476 399.517 137.362 399.549 135.219C399.619 132.249 399.701 130.678 399.796 130.505C399.895 130.387 400.083 130.343 400.36 130.374C400.687 130.345 400.937 130.378 401.11 130.473C401.337 130.562 401.553 131.147 401.757 132.227C401.952 133.198 402.189 134.027 402.469 134.716C403.318 136.892 403.905 137.965 404.232 137.937C404.609 137.849 405.345 137.483 406.441 136.838C407.587 136.134 408.232 135.666 408.376 135.434C408.849 134.57 409.119 132.324 409.186 128.696L409.333 124.732C409.382 124.673 409.435 124.641 409.489 124.636C410.142 124.579 410.859 124.928 411.638 125.683C412.181 126.239 412.5 127.062 412.595 128.151C412.719 129.567 412.503 131.177 411.948 132.982C411.567 134.277 411.403 135.224 411.455 135.823C411.489 136.205 411.601 136.551 411.793 136.864C411.985 137.176 412.145 137.437 412.273 137.645C412.451 137.794 412.779 138.095 413.258 138.547C413.731 138.944 414.087 139.242 414.324 139.441C416.515 141.28 418.378 143.449 419.914 145.949C420.244 146.578 420.423 147.057 420.451 147.383C420.494 147.873 420.374 148.378 420.09 148.897C419.846 149.247 419.444 149.666 418.883 150.155C418.376 150.638 418.014 150.889 417.796 150.908L417.715 150.915C417.537 150.766 417.262 150.132 416.89 149.012C414.869 143.482 411.626 140.912 407.161 141.302L406.425 141.367C404.688 141.574 403.873 142.303 403.983 143.556C404.002 143.774 404.095 144.205 404.261 144.849C404.477 145.433 404.677 146.157 404.862 147.019C404.983 147.776 404.795 148.451 404.298 149.043C403.802 149.636 403.444 149.941 403.226 149.96C402.9 149.989 402.307 148.861 401.449 146.576C400.673 144.614 399.883 143.421 399.078 142.997C398.504 142.718 397.757 142.646 396.836 142.782C392.553 143.376 390.666 146.587 391.176 152.414C391.233 153.067 391.24 153.451 391.195 153.565C391.145 153.624 390.961 153.722 390.644 153.86C390.377 153.938 390.025 153.996 389.589 154.034C388.119 154.163 387.322 153.519 387.198 152.103C387.193 152.049 387.186 151.967 387.177 151.858C387.217 151.69 387.232 151.552 387.223 151.443C387.281 150.23 387.742 148.599 388.605 146.548C389.468 144.497 390.37 142.881 391.309 141.702L392.569 140.11L390.608 138.388C387.346 135.6 385.591 132.791 385.343 129.959ZM443.84 127.146C443.563 127.115 443.07 127.131 442.362 127.193C440.783 127.331 439.034 127.731 437.117 128.393C435.199 129.054 434.069 129.619 433.726 130.089C433.129 130.799 432.91 132.053 433.067 133.85C433.134 134.613 433.288 135.12 433.529 135.374C433.766 135.572 434.441 135.76 435.554 135.937C436.222 136.044 437.182 136.042 438.435 135.932C440.232 135.775 442.587 135.404 445.499 134.82C445.93 134.728 446.388 134.633 446.873 134.536C447.359 134.438 447.737 134.378 448.01 134.354L448.411 134.236C448.465 134.232 448.659 133.94 448.993 133.362L449.493 132.495L448.001 130.486C446.444 128.372 445.057 127.259 443.84 127.146ZM434.717 124.487C435.678 124.183 436.949 123.962 438.528 123.824C440.488 123.653 442.107 123.648 443.383 123.811C444.991 123.999 446.287 124.38 447.269 124.953C448.307 125.52 449.318 126.42 450.304 127.65C451.171 128.782 451.643 129.783 451.719 130.654C451.748 130.981 451.742 131.229 451.702 131.397C451.459 133.009 449.901 134.957 447.027 137.238C445.688 138.234 443.738 138.843 441.178 139.067C439.926 139.177 438.779 139.551 437.737 140.191C436.746 140.772 436.257 141.144 436.271 141.307C436.295 141.58 436.511 142.164 436.918 143.062C437.381 143.954 437.728 144.472 437.96 144.617C438.37 144.91 439.871 145.135 442.464 145.293C445.057 145.45 447.415 145.436 449.539 145.25L450.438 145.171L451.908 145.043C452.507 144.99 452.868 145.041 452.992 145.195C453.11 145.294 453.195 145.643 453.248 146.243L453.319 147.059L445.062 147.7C439.502 148.131 436.411 148.237 435.788 148.017C434.033 147.402 432.397 145.954 430.881 143.672C429.364 141.39 428.506 139.106 428.306 136.819C428.067 134.096 428.558 131.556 429.779 129.199C431.049 126.783 432.695 125.212 434.717 124.487ZM466.387 120.07C467.967 118.066 469.82 116.971 471.943 116.785C472.924 116.699 473.839 116.811 474.689 117.121C476.385 117.686 477.685 118.752 478.591 120.319C480.072 122.824 481.46 126.461 482.756 131.232C483.078 132.411 483.635 134.694 484.425 138.082C485.211 141.416 485.62 143.273 485.653 143.654C485.677 143.927 485.421 144.443 484.883 145.203C484.301 146.077 483.82 146.531 483.439 146.564C483.275 146.579 483.016 146.437 482.661 146.139C481.94 145.433 481.411 144.711 481.072 143.973C480.733 143.234 480.245 141.74 479.61 139.491C477.218 130.975 475.895 126.509 475.639 126.092C475.181 125.254 474.513 124.517 473.634 123.881C472.81 123.239 472.071 122.947 471.417 123.004C470.601 123.076 469.678 123.815 468.648 125.222C468.066 126.096 467.434 129.225 466.753 134.607C466.472 137.046 466.186 139.102 465.893 140.774C465.702 141.723 465.344 142.962 464.819 144.489C464.289 145.962 463.916 146.709 463.698 146.728C463.371 146.756 463.062 146.673 462.771 146.479C462.425 146.29 462.215 146.089 462.142 145.876C462.068 145.663 461.929 145.017 461.725 143.937C461.632 143.506 461.548 142.855 461.472 141.984C461.119 137.954 461.54 133.664 462.733 129.115C463.936 124.674 465.154 121.659 466.387 120.07ZM504.967 123.115C503.427 121.823 501.731 121.258 499.879 121.42C498.518 121.539 497.472 122.124 496.741 123.176C496.208 123.991 495.896 124.814 495.804 125.645C495.708 126.422 495.734 127.983 495.885 130.33L496.196 134.83L499.137 134.573C500.662 134.439 501.989 134.241 503.118 133.977C503.549 133.885 504.721 133.48 506.634 132.764C508.601 132.043 509.637 131.651 509.741 131.587C509.255 130.422 508.678 129.156 508.009 127.787C507.199 126.048 506.636 124.944 506.321 124.478C506.005 124.012 505.554 123.557 504.967 123.115ZM499.512 118.159C499.725 118.086 500.131 118.023 500.73 117.971C502.037 117.856 503.111 117.899 503.952 118.1C505.974 118.637 508 120.462 510.028 123.578C512.057 126.693 513.228 130.047 513.543 133.642C513.705 135.493 513.864 136.686 514.02 137.221C514.099 137.489 514.159 137.868 514.202 138.358C514.293 139.393 514.015 140.295 513.369 141.065C512.872 141.657 512.596 141.956 512.542 141.96C512.487 141.965 512.291 141.598 511.952 140.86C511.314 139.214 510.392 138.088 509.187 137.48C508.495 137.101 507.414 136.976 505.944 137.105C505.072 137.181 503.936 137.363 502.534 137.65C501.405 137.914 500.404 138.083 499.533 138.16L498.88 138.217L497.64 138.161L497.023 140.519C496.482 142.487 496.157 143.476 496.048 143.486C495.994 143.49 495.87 143.337 495.678 143.024C494.591 141.254 493.887 138.544 493.568 134.895C493.296 131.791 493.427 128.899 493.961 126.218C494.837 121.806 496.688 119.12 499.512 118.159ZM537.573 118.945C537.296 118.915 536.804 118.93 536.096 118.992C534.517 119.13 532.768 119.53 530.85 120.192C528.933 120.854 527.802 121.419 527.459 121.888C526.863 122.599 526.643 123.852 526.801 125.65C526.867 126.412 527.022 126.92 527.263 127.173C527.5 127.372 528.175 127.56 529.288 127.737C529.956 127.843 530.916 127.841 532.169 127.732C533.966 127.574 536.32 127.204 539.233 126.62C539.663 126.527 540.122 126.432 540.607 126.335C541.092 126.238 541.471 126.177 541.743 126.153L542.145 126.036C542.199 126.031 542.393 125.74 542.727 125.162L543.227 124.295L541.734 122.285C540.177 120.172 538.79 119.058 537.573 118.945ZM528.451 116.286C529.412 115.983 530.682 115.762 532.262 115.623C534.222 115.452 535.841 115.448 537.117 115.61C538.725 115.799 540.02 116.179 541.003 116.752C542.041 117.32 543.052 118.219 544.038 119.45C544.905 120.581 545.377 121.582 545.453 122.454C545.482 122.781 545.476 123.028 545.436 123.196C545.193 124.809 543.634 126.756 540.761 129.038C539.421 130.033 537.472 130.643 534.912 130.866C533.66 130.976 532.513 131.351 531.471 131.991C530.479 132.571 529.991 132.943 530.005 133.107C530.029 133.379 530.244 133.964 530.652 134.861C531.114 135.753 531.462 136.272 531.694 136.416C532.103 136.71 533.605 136.935 536.198 137.092C538.791 137.249 541.149 137.235 543.273 137.049L544.171 136.971L545.642 136.842C546.241 136.79 546.602 136.84 546.725 136.994C546.844 137.094 546.929 137.443 546.982 138.042L547.053 138.859L538.795 139.499C533.236 139.93 530.145 140.036 529.522 139.816C527.767 139.202 526.131 137.753 524.614 135.472C523.098 133.19 522.239 130.905 522.039 128.618C521.801 125.895 522.292 123.355 523.513 120.998C524.783 118.583 526.429 117.012 528.451 116.286ZM583.448 104.725C583.929 104.573 584.283 104.542 584.51 104.632C584.738 104.722 585.066 105.022 585.495 105.534C586.352 106.556 586.899 107.469 587.134 108.271C587.368 109.074 587.843 111.364 588.558 115.143C589.068 117.842 589.554 120.571 590.015 123.329C590.528 126.687 590.809 128.638 590.856 129.182C591.061 131.524 590.716 133.228 589.822 134.294C589.474 134.708 588.96 135.11 588.281 135.499C587.651 135.828 586.856 136.145 585.895 136.448C584.929 136.697 584.042 136.912 583.235 137.093C582.427 137.273 581.377 137.502 580.085 137.78C578.842 137.998 577.898 138.191 577.254 138.357C573.92 139.142 570.947 139.649 568.333 139.878C565.446 140.131 563.556 140.159 562.66 139.963C560.143 139.415 558.293 138.342 557.111 136.744C555.978 135.087 555.259 132.516 554.954 129.031L554.869 128.05C554.568 124.62 554.322 122.117 554.129 120.542L553.958 118.582C553.844 117.275 553.822 116.399 553.893 115.953C554.018 115.504 554.324 114.928 554.812 114.227L555.319 113.442C556.444 114.386 557.144 115.175 557.419 115.81C557.69 116.39 557.991 117.955 558.324 120.505C559.135 126.635 559.706 130.344 560.038 131.631C560.366 132.865 560.949 133.884 561.787 134.689C563.578 136.343 565.672 137.065 568.068 136.856C569.049 136.77 569.826 136.565 570.401 136.24C571.561 135.699 572.218 134.736 572.371 133.351C572.442 132.906 572.465 132.547 572.442 132.275C572.437 132.22 572.007 129.816 571.152 125.062C570.967 124.2 570.834 123.306 570.753 122.38C570.705 121.836 570.764 121.255 570.93 120.636C571.14 119.905 571.297 119.507 571.401 119.443C571.555 119.32 571.914 119.343 572.478 119.513C573.169 119.892 573.641 120.262 573.892 120.624C574.143 120.986 574.395 121.678 574.649 122.698C575.596 126.621 576.24 129.583 576.579 131.584C576.788 132.718 576.991 133.468 577.188 133.835C577.38 134.148 577.721 134.282 578.211 134.24L578.701 134.197C578.81 134.187 579.946 134.005 582.11 133.651C584.274 133.298 585.486 133.027 585.744 132.84C586.061 132.702 586.391 132.399 586.734 131.93C587.132 131.456 587.341 131.026 587.362 130.64C587.402 130.472 587.391 130.034 587.329 129.326C587.11 126.821 586.364 122.688 585.092 116.928C583.996 111.92 583.366 108.491 583.204 106.639C583.104 105.496 583.186 104.858 583.448 104.725ZM619.758 120.809C619.362 120.679 616.55 120.843 611.322 121.3C609.09 121.496 607.867 121.63 607.654 121.704C606.321 122.15 605.418 122.805 604.945 123.669C604.367 124.598 604.138 125.743 604.257 127.104C604.4 128.738 604.97 129.923 605.968 130.659C606.441 131.056 606.983 131.283 607.591 131.34C608.249 131.337 610.167 131.307 613.345 131.248C614.112 131.236 615.149 131.173 616.456 131.058C619.615 130.782 621.948 130.166 623.456 129.211C625.014 128.197 625.932 126.772 626.21 124.937C626.281 124.492 626.307 124.16 626.288 123.942C626.226 123.234 625.839 122.582 625.129 121.986C624.541 121.543 623.391 121.26 621.679 121.135C621.402 121.105 621.012 121.029 620.507 120.908L619.758 120.809ZM598.309 108.034C598.796 107.333 599.067 106.98 599.121 106.975C599.176 106.971 599.579 107.182 600.329 107.61C600.907 107.944 601.288 108.213 601.47 108.416C601.648 108.565 601.812 108.88 601.964 109.361C602.111 109.787 602.23 110.517 602.321 111.552L602.535 114.003L602.971 118.986L607.872 118.557C616.15 117.833 621.739 118.057 624.641 119.23C626.746 120.088 628.415 121.918 629.648 124.718L630.075 125.833L629.596 126.945C628.877 128.764 627.303 130.219 624.874 131.309C620.592 133.166 615.129 134.385 608.485 134.966L607.014 135.094L600.88 135.549L600.503 133.112C599.889 128.611 599.114 122.259 598.177 114.055L597.578 109.086L598.309 108.034Z" fill="#EDEEF3"/>
<g opacity="0.5">
<path d="M404.153 229.618C400.124 229.971 396.172 228.426 393.466 225.524C392.798 224.807 393.006 223.694 393.814 223.135C394.623 222.576 395.725 222.787 396.43 223.469C398.377 225.351 401.086 226.336 403.845 226.095C406.379 225.873 408.684 224.656 410.281 222.752C410.911 222 411.985 221.676 412.846 222.149C413.707 222.621 414.027 223.707 413.437 224.489C411.233 227.412 407.872 229.293 404.153 229.618Z" fill="#EDEEF3"/>
<path d="M421.527 219.138C423.49 218.967 424.943 217.25 424.772 215.304C424.602 213.358 422.873 211.92 420.91 212.091C418.948 212.263 417.494 213.98 417.665 215.926C417.835 217.872 419.564 219.31 421.527 219.138Z" fill="#EDEEF3"/>
<path d="M384.802 222.351C386.765 222.18 388.218 220.463 388.048 218.517C387.877 216.571 386.148 215.133 384.186 215.304C382.223 215.476 380.77 217.193 380.94 219.139C381.11 221.085 382.839 222.523 384.802 222.351Z" fill="#EDEEF3"/>
<path d="M445.583 231.963C446.594 243.508 440.993 255.663 432.021 265.259C423.053 274.851 410.931 281.654 399.28 282.673C375.897 284.719 355.283 267.422 353.237 244.039C352.227 232.494 357.828 220.34 366.8 210.743C375.768 201.151 387.89 194.348 399.541 193.329C422.924 191.283 443.538 208.581 445.583 231.963Z" stroke="#EDEEF3" stroke-width="3"/>
<path d="M437.648 240.748C439.034 256.594 415.875 274.181 394.41 276.059C372.944 277.937 356.767 268.173 355.38 252.326" stroke="#EDEEF3" stroke-linecap="round"/>
<path d="M420.78 270.843C413.426 275.515 404.671 278.784 396.18 279.527C383.03 280.678 371.887 277.338 365 270.843" stroke="#EDEEF3" stroke-linecap="round"/>
</g>
<g opacity="0.5">
<path d="M314.205 250.508C311.057 250.784 307.971 249.577 305.857 247.31C305.335 246.75 305.497 245.881 306.129 245.444C306.761 245.007 307.622 245.172 308.172 245.705C309.693 247.175 311.809 247.945 313.964 247.756C315.943 247.583 317.744 246.632 318.991 245.145C319.483 244.558 320.322 244.305 320.995 244.674C321.668 245.043 321.917 245.89 321.456 246.502C319.734 248.785 317.109 250.254 314.205 250.508Z" fill="#EDEEF3"/>
<path d="M327.775 242.322C329.309 242.188 330.444 240.847 330.311 239.327C330.178 237.807 328.827 236.684 327.294 236.818C325.761 236.952 324.626 238.293 324.759 239.813C324.892 241.333 326.242 242.456 327.775 242.322Z" fill="#EDEEF3"/>
<path d="M299.089 244.832C300.622 244.698 301.758 243.357 301.625 241.837C301.492 240.317 300.141 239.193 298.608 239.327C297.075 239.462 295.94 240.803 296.073 242.323C296.206 243.843 297.556 244.966 299.089 244.832Z" fill="#EDEEF3"/>
<path d="M346.239 252.369C347.017 261.264 342.701 270.67 335.732 278.124C328.769 285.572 319.371 290.835 310.369 291.623C292.285 293.205 276.343 279.828 274.761 261.744C273.983 252.848 278.299 243.442 285.268 235.989C292.231 228.541 301.629 223.277 310.631 222.49C328.715 220.907 344.657 234.285 346.239 252.369Z" stroke="#EDEEF3" stroke-width="3"/>
<path d="M339.557 259C340.64 271.378 322.55 285.115 305.783 286.582C289.016 288.049 276.38 280.422 275.297 268.044" stroke="#EDEEF3" stroke-linecap="round"/>
<path d="M326.57 281.783C320.826 285.432 313.987 287.986 307.355 288.566C297.083 289.465 288.379 286.856 283 281.783" stroke="#EDEEF3" stroke-linecap="round"/>
</g>
</svg>
