<svg width="150" height="37" viewBox="0 0 150 37" fill="none" xmlns="http://www.w3.org/2000/svg">
<path d="M42.472 15.7368H46.3834L40.4974 2.44568H36.7948L30.9277 15.7368H34.7632L35.8075 13.1545H41.4277L42.472 15.7368ZM36.9087 10.3824L38.6176 6.12922L40.3265 10.3824H36.9087ZM47.4492 15.7368H57.5505V12.7558H51.2087V2.44568H47.4492V15.7368ZM67.7393 12.452C67.0747 12.7558 66.4102 12.8887 65.7076 12.8887C63.4671 12.8887 61.9482 11.3318 61.9482 9.09125C61.9482 6.79378 63.4671 5.29378 65.7456 5.29378C67.0178 5.29378 68.0621 5.76846 68.9735 6.77479L71.3659 4.61023C70.0558 3.03428 68.0431 2.17985 65.5558 2.17985C61.2456 2.17985 58.1507 5.04694 58.1507 9.09125C58.1507 13.1356 61.2456 16.0026 65.4798 16.0026C67.4165 16.0026 69.5241 15.414 71.0621 14.3128V8.80644H67.7393V12.452ZM80.1481 16.0026C84.4013 16.0026 87.5342 13.0786 87.5342 9.09125C87.5342 5.10391 84.4013 2.17985 80.1481 2.17985C75.895 2.17985 72.762 5.10391 72.762 9.09125C72.762 13.0786 75.895 16.0026 80.1481 16.0026ZM80.1481 12.8887C78.1355 12.8887 76.5595 11.3887 76.5595 9.09125C76.5595 6.79378 78.1355 5.29378 80.1481 5.29378C82.1608 5.29378 83.7367 6.79378 83.7367 9.09125C83.7367 11.3887 82.1608 12.8887 80.1481 12.8887ZM97.7248 15.7368H101.75L98.883 11.5596C100.535 10.7621 101.484 9.31909 101.484 7.3634C101.484 4.32542 99.2058 2.44568 95.5792 2.44568H89.5032V15.7368H93.2627V12.2052H95.3134L97.7248 15.7368ZM97.6868 7.3634C97.6868 8.57859 96.9083 9.30011 95.3513 9.30011H93.2627V5.4077H95.3513C96.9083 5.4077 97.6868 6.12922 97.6868 7.3634ZM103.558 15.7368H107.318V2.44568H103.558V15.7368ZM112.822 15.7368H116.581V5.42669H120.644V2.44568H108.739V5.42669H112.822V15.7368ZM137.501 15.7368L137.463 2.44568H134.368L129.811 10.1166L125.14 2.44568H122.045V15.7368H125.52V8.88239L128.918 14.4267H130.589L134.007 8.69251L134.045 15.7368H137.501Z" fill="#DBDCE8"/>
<path d="M51.6767 34.3184C55.6261 34.3184 57.5628 32.3438 57.5628 30.0273C57.5628 25.1286 50.0248 26.6475 50.0248 24.6159C50.0248 23.9513 50.5944 23.4197 52.1704 23.4197C53.3286 23.4197 54.5818 23.7615 55.8539 24.445L57.0122 21.6539C55.702 20.8944 53.9172 20.4957 52.1894 20.4957C48.24 20.4957 46.3033 22.4324 46.3033 24.8058C46.3033 29.7425 53.8603 28.2045 53.8603 30.3121C53.8603 30.9577 53.2527 31.3944 51.6957 31.3944C50.1577 31.3944 48.4868 30.8627 47.3096 30.0843L46.0755 32.8564C47.3286 33.7298 49.4932 34.3184 51.6767 34.3184ZM61.9431 34.0526H65.7026V23.7425H69.7659V20.7615H57.8608V23.7425H61.9431V34.0526ZM79.388 34.0526H83.4133L80.5462 29.8754C82.1981 29.0779 83.1475 27.6349 83.1475 25.6792C83.1475 22.6412 80.869 20.7615 77.2424 20.7615H71.1665V34.0526H74.926V30.521H76.9766L79.388 34.0526ZM79.35 25.6792C79.35 26.8944 78.5715 27.6159 77.0146 27.6159H74.926V23.7235H77.0146C78.5715 23.7235 79.35 24.445 79.35 25.6792ZM88.9431 31.1475V28.7172H94.8481V25.907H88.9431V23.6665H95.6456V20.7615H85.2216V34.0526H95.8925V31.1475H88.9431ZM97.9787 34.0526H108.08V31.0716H101.738V20.7615H97.9787V34.0526ZM118.53 20.7615V27.8438L112.663 20.7615H109.568V34.0526H113.251V26.9703L119.118 34.0526H122.213V20.7615H118.53ZM134.814 34.0526H138.726L132.84 20.7615H129.137L123.27 34.0526H127.106L128.15 31.4703H133.77L134.814 34.0526ZM129.251 28.6982L130.96 24.445L132.669 28.6982H129.251Z" fill="#DBDCE8"/>
<path d="M38.5962 30.3288C39.8304 30.3288 40.7607 29.4364 40.7607 28.1832C40.7607 26.8921 39.8304 26.0566 38.5962 26.0566C37.381 26.0566 36.4316 26.8921 36.4316 28.1832C36.4316 29.4364 37.381 30.3288 38.5962 30.3288Z" fill="#DBDCE8"/>
<path fill-rule="evenodd" clip-rule="evenodd" d="M7.8515 23.6767C7.74737 23.8945 7.6168 24.1359 7.52852 24.3836L12.7089 24.3761L10.8813 19.9563C10.7804 19.7065 10.6788 19.4718 10.5783 19.2248L10.3052 18.5753C10.2654 18.5141 10.2854 18.5386 10.2372 18.4948L7.8515 23.6767Z" fill="#AAA3B4"/>
<path fill-rule="evenodd" clip-rule="evenodd" d="M3.45593 20.3763C3.5699 20.2876 5.56297 17.627 5.8498 17.2336C5.9893 17.0424 6.58465 16.2898 6.64478 16.1561C6.56296 16.0897 6.4836 16.0393 6.39302 15.9683C6.20154 15.818 5.86503 15.5609 5.73368 15.3611C5.47223 15.4114 4.87518 15.377 4.57758 15.377H3.46393C2.70786 15.377 1.95132 15.3738 1.1954 15.377C1.23585 15.5024 1.2926 15.5853 1.3412 15.7102L3.45593 20.3763Z" fill="#AAA3B4"/>
<path fill-rule="evenodd" clip-rule="evenodd" d="M13.8925 16.1822C13.9357 16.2907 13.9945 16.3532 14.0589 16.4433C14.1233 16.5335 14.1666 16.6084 14.2398 16.7075C14.7408 17.3838 15.586 18.6221 16.0666 19.3314C16.1641 19.4748 16.7294 20.3154 16.8102 20.3659C16.8423 20.2544 16.9046 20.1677 16.9517 20.0514C17.0026 19.9257 17.0317 19.8612 17.0889 19.7422C17.1412 19.6332 17.1713 19.5397 17.2237 19.4301L17.6502 18.4876C17.6971 18.3893 17.7374 18.2773 17.7856 18.1765L18.211 17.2339C18.2676 17.1179 18.2931 17.0395 18.3463 16.9218L19.0403 15.3819C18.34 15.3741 17.6362 15.3811 16.9357 15.3811H15.8763C15.6081 15.3811 15.0634 15.413 14.8305 15.3625C14.6968 15.5511 14.5675 15.6544 14.3876 15.7997L13.8925 16.1822Z" fill="#AAA3B4"/>
<path fill-rule="evenodd" clip-rule="evenodd" d="M1.18064 15.3272C1.24862 15.1738 1.41134 14.9533 1.50531 14.8045C1.61789 14.6273 1.72678 14.4613 1.84367 14.2787C2.06683 13.9282 2.28845 13.5814 2.51853 13.2272L3.5196 11.6699C3.59558 11.5519 3.77614 11.2192 3.8878 11.1434L3.85335 10.3354H0.00239563C0.00916275 11.5284 -0.00129552 11.9035 0.296458 13.118C0.395965 13.525 0.54115 13.9064 0.691257 14.2642L1.04499 15.0559C1.09821 15.1727 1.08483 15.2036 1.16526 15.3097C1.16849 15.314 1.17511 15.3215 1.18064 15.3272Z" fill="#AAA3B4"/>
<path fill-rule="evenodd" clip-rule="evenodd" d="M0.0036934 10.335H3.85465L3.96307 9.54985C3.90155 9.50588 3.86264 9.40391 3.80697 9.30401L2.42478 6.86825C2.42171 6.86283 2.41771 6.85566 2.41448 6.8504L2.07028 6.24783L2.06013 6.22999L1.59397 5.43735C1.5426 5.47176 1.58105 5.43639 1.54137 5.47734C1.45386 5.56736 1.0426 6.37115 1.00615 6.44922C0.604275 7.30958 0.389265 7.96711 0.184868 8.88084C0.118427 9.17783 -0.0247593 10.0012 0.0036934 10.335Z" fill="#E5E5E5"/>
<path fill-rule="evenodd" clip-rule="evenodd" d="M16.55 9.12345C16.528 9.31129 16.6006 9.52861 16.6292 9.7155C16.6483 9.83946 16.6753 10.2609 16.7196 10.3259H20.2198C20.2784 10.2564 20.2432 10.194 20.2376 9.96612C20.2202 9.26413 19.9906 8.19363 19.7961 7.55649C19.5709 6.81993 19.2912 6.23026 18.9273 5.60364L18.8207 5.40257C18.763 5.33167 18.8382 5.38664 18.7501 5.34457L17.1058 8.19379C17.0123 8.36092 16.6444 9.02993 16.55 9.12345Z" fill="#E5E5E5"/>
<path fill-rule="evenodd" clip-rule="evenodd" d="M16.6348 11.7258L16.6924 11.6281L18.4491 14.3906C18.5489 14.5525 18.9653 15.2424 19.0629 15.3136C19.2609 14.9921 19.6064 14.109 19.7321 13.7239C19.8041 13.5035 19.849 13.348 19.9113 13.1173C20.0978 12.4265 20.3079 11.0939 20.2215 10.3263H16.7213C16.7027 10.5151 16.7252 10.5358 16.7376 10.6789C16.753 10.8465 16.7183 10.9067 16.7115 11.0426C16.6786 11.7075 16.6595 11.474 16.6346 11.7261" fill="#AAA3B4"/>
<path fill-rule="evenodd" clip-rule="evenodd" d="M13.1012 4.82408C13.1221 4.90518 13.1416 4.90502 13.267 4.9662C13.4987 5.07964 13.713 5.26542 13.8929 5.27051L18.7356 5.26781C18.6628 5.05702 18.1367 4.39614 17.9799 4.21546C17.6989 3.88595 17.3989 3.57438 17.0815 3.28245C16.7494 2.97496 15.4018 1.95273 14.9327 1.78607L13.5639 4.08035C13.4638 4.24446 13.2017 4.7253 13.1005 4.82456" fill="#E5E5E5"/>
<path fill-rule="evenodd" clip-rule="evenodd" d="M1.68832 5.32879L6.71059 5.32002C6.77088 5.25056 6.82409 5.25151 6.91499 5.19256C6.98604 5.1462 7.05095 5.1129 7.11646 5.05459C7.07109 4.93589 7.06879 4.94051 7.00881 4.83679L6.81871 4.49583C6.79841 4.4603 6.80579 4.47385 6.78795 4.44294L6.34301 3.66097C6.30103 3.58545 6.27027 3.54482 6.21997 3.45289L6.17014 3.36239C6.16015 3.34471 6.15 3.32623 6.13938 3.30806L5.49343 2.16937C5.46606 2.12061 5.45591 2.09894 5.43268 2.06134C5.38766 1.99063 5.34865 1.916 5.3161 1.83829C4.97252 1.96862 4.52189 2.31212 4.23613 2.51367C3.62294 2.94624 2.89532 3.66256 2.41716 4.24314L1.75091 5.1309C1.69124 5.22507 1.69677 5.20738 1.68739 5.32926" fill="#E5E5E5"/>
<path fill-rule="evenodd" clip-rule="evenodd" d="M3.45532 20.3764L3.47516 20.456L6.54743 20.4551C6.63341 20.3754 7.2526 18.9686 7.37794 18.7103C7.50329 18.452 8.174 17.0852 8.20399 16.9091C7.92762 16.8112 7.65717 16.6963 7.39409 16.5648C7.2669 16.5 6.76152 16.157 6.64387 16.1562C6.58373 16.2898 5.98838 17.0423 5.84888 17.2337C5.56205 17.627 3.56898 20.2876 3.45502 20.3764" fill="#E5E5E5"/>
<path fill-rule="evenodd" clip-rule="evenodd" d="M5.31898 1.83746C5.35153 1.91517 5.39054 1.9898 5.43556 2.06052C5.45879 2.09812 5.46894 2.11979 5.49631 2.16854L6.14227 3.30724C6.15242 3.3254 6.16257 3.34388 6.17303 3.36157L6.22286 3.45206C6.27238 3.54399 6.30314 3.58462 6.3459 3.66014L6.79083 4.44211C6.80821 4.47302 6.80083 4.45948 6.82159 4.495L7.01169 4.83596C7.07182 4.93968 7.07413 4.93506 7.11935 5.05376C7.19932 5.03783 7.2227 5.00739 7.29668 4.96661C7.33651 4.94478 7.3582 4.93474 7.38896 4.91881C7.4414 4.88997 7.44002 4.90192 7.47293 4.8597C7.47647 4.85157 7.48154 4.8307 7.48354 4.83532C7.51107 4.8973 7.47493 4.83787 7.54337 4.70962L7.72793 4.39606L7.73792 4.37774L9.51506 1.24987L9.5346 1.21386L9.59473 1.10648C9.64764 1.01088 9.69347 0.924849 9.74853 0.839132C9.77283 0.800735 9.79467 0.767117 9.82004 0.720276C9.85311 0.660529 9.87326 0.634878 9.88756 0.566846C8.63611 0.522394 6.6861 1.08895 5.54461 1.69375C5.49847 1.71797 5.46771 1.7382 5.42326 1.76545C5.37712 1.79413 5.35405 1.79827 5.31898 1.83746Z" fill="#AAA3B4"/>
<path fill-rule="evenodd" clip-rule="evenodd" d="M12.5737 4.63775C12.6992 4.7002 12.5405 4.62404 12.707 4.67264C12.8524 4.71486 12.9474 4.79691 13.0989 4.82384C13.2001 4.72458 13.4622 4.24373 13.5622 4.07963L14.931 1.78535L13.9279 1.32729C12.8941 0.895037 12.0991 0.74559 10.9916 0.619723C10.7959 0.597417 10.4927 0.608411 10.3055 0.566986C10.367 0.774109 12.5492 4.43939 12.5737 4.63775Z" fill="#AAA3B4"/>
<path fill-rule="evenodd" clip-rule="evenodd" d="M7.47061 4.85953C7.63456 4.82671 7.86772 4.69303 8.03182 4.63201C9.3068 4.15738 10.6891 4.10162 11.9973 4.45436C12.1788 4.50328 12.4135 4.61178 12.5755 4.63775C12.551 4.43939 10.3682 0.774428 10.3071 0.566986L9.88555 0.566986C9.87124 0.635018 9.8511 0.660669 9.81787 0.720416C9.79188 0.767258 9.77081 0.800876 9.74651 0.839273C9.69222 0.92499 9.64639 1.01118 9.59272 1.10662L9.53258 1.21385C9.52843 1.22118 9.5172 1.24253 9.51305 1.24985L7.73622 4.37757L7.72622 4.39589L7.54167 4.70928C7.47323 4.8377 7.50937 4.89713 7.48184 4.83515C7.47984 4.83053 7.47476 4.85108 7.47123 4.85953" fill="#E5E5E5"/>
<path fill-rule="evenodd" clip-rule="evenodd" d="M13.8577 20.4631L16.7831 20.4671C16.8102 20.4214 16.8 20.4468 16.8093 20.3659C16.7285 20.3154 16.1633 19.4753 16.0657 19.3314C15.585 18.6221 14.7399 17.3838 14.2388 16.7075C14.1655 16.6084 14.1221 16.5322 14.058 16.4433C13.9938 16.3544 13.9349 16.2907 13.8916 16.1822C13.7456 16.187 13.616 16.3084 13.5057 16.3798L12.7584 16.7586C12.63 16.8139 12.3757 16.8717 12.3824 16.9587C12.3933 17.1021 13.705 20.1648 13.8577 20.4639" fill="#E5E5E5"/>
<path fill-rule="evenodd" clip-rule="evenodd" d="M12.3154 30.2631L8.11006 30.2644L8.63759 31.3983C8.83399 31.7784 9.00086 32.1497 9.17235 32.5096C9.39229 32.9733 9.59707 33.4515 9.81745 33.9197C9.98105 34.2672 10.4486 34.2628 10.6125 33.9154C10.8475 33.4177 11.1025 32.8562 11.2705 32.4986C11.4396 32.1391 11.6356 31.7152 11.8088 31.3913L12.3154 30.2631Z" fill="#AAA3B4"/>
<path fill-rule="evenodd" clip-rule="evenodd" d="M1.59496 5.43682L2.06189 6.22947L2.07204 6.24731L2.41562 6.84972L2.42577 6.86772L3.80796 9.30333C3.86379 9.40322 3.90193 9.50519 3.96406 9.54917C4.18169 8.55131 4.48959 7.77922 4.97713 7.07214C5.45529 6.3786 6.01757 5.79069 6.71213 5.31956L1.68985 5.32832C1.59757 5.2877 1.60218 5.37278 1.59496 5.43698" fill="#AAA3B4"/>
<path fill-rule="evenodd" clip-rule="evenodd" d="M1.18084 15.3275C1.1467 15.4191 1.16792 15.3575 1.19361 15.378C1.94952 15.3745 2.70606 15.378 3.46213 15.378H4.57578C4.87338 15.378 5.47104 15.412 5.73188 15.3621C5.57224 15.0701 4.59377 14.3289 4.09378 12.4852C4.01688 12.2011 3.85508 11.4973 3.88799 11.1438C3.77634 11.2196 3.59578 11.5523 3.5198 11.6704L2.51796 13.2284C2.28726 13.582 2.06626 13.9294 1.84309 14.28C1.72698 14.4622 1.61809 14.6282 1.50474 14.8057C1.41015 14.9545 1.24805 15.175 1.18007 15.3285" fill="#E5E5E5"/>
<path fill-rule="evenodd" clip-rule="evenodd" d="M16.5506 9.12355C16.645 9.03003 17.0129 8.36102 17.1064 8.19389L18.7507 5.34484L18.7353 5.26788L13.8925 5.27059C13.9408 5.37113 13.9232 5.31839 14.1003 5.45445L14.4386 5.72435C15.4351 6.59649 16.0352 7.50752 16.4501 8.80123L16.5506 9.12355Z" fill="#AAA3B4"/>
<path fill-rule="evenodd" clip-rule="evenodd" d="M16.6311 11.7257C16.481 12.9476 15.8944 14.0997 15.1576 14.9945C15.0499 15.1251 14.9069 15.2124 14.8277 15.362C15.061 15.4129 15.6057 15.3807 15.8735 15.3807H16.9328C17.6334 15.3807 18.3372 15.3737 19.0374 15.3815L19.0588 15.3136C18.9611 15.2424 18.5448 14.5525 18.445 14.3906L16.6888 11.6281L16.6311 11.7257Z" fill="#E5E5E5"/>
<path fill-rule="evenodd" clip-rule="evenodd" d="M6.54623 20.455L3.47395 20.456C3.4658 20.5557 4.53101 22.7503 4.62575 22.9574L5.01471 23.765L5.80046 22.1088C5.86198 21.9692 6.55976 20.5634 6.54623 20.4553" fill="#AAA3B4"/>
<path fill-rule="evenodd" clip-rule="evenodd" d="M16.7814 20.4678L13.856 20.4638L15.2388 23.7502C15.2651 23.8049 15.2447 23.7651 15.2733 23.8095L15.3041 23.8466C15.3384 23.8121 15.3137 23.8466 15.3488 23.7934L15.6975 22.9917C15.8242 22.7076 15.932 22.4618 16.0615 22.1525C16.1744 21.8826 16.7551 20.619 16.7821 20.4678" fill="#AAA3B4"/>
<path fill-rule="evenodd" clip-rule="evenodd" d="M8.11124 30.2636L12.3165 30.2623L13.8359 26.9021L6.50713 26.9131L8.11124 30.2636Z" fill="#AAA3B4"/>
</svg>
