<svg width="149" height="35" viewBox="0 0 149 35" fill="none" xmlns="http://www.w3.org/2000/svg">
<path d="M41.2308 24.2305C47.7554 24.2305 50.9549 20.9898 50.9549 17.1882C50.9549 9.14864 38.5018 11.6415 38.5018 8.30729C38.5018 7.21666 39.4428 6.34415 42.0464 6.34415C43.9598 6.34415 46.0301 6.90505 48.1318 8.02684L50.0453 3.44618C47.8809 2.19974 44.9322 1.54536 42.0777 1.54536C35.5531 1.54536 32.3536 4.72378 32.3536 8.6189C32.3536 16.7208 44.8381 14.1967 44.8381 17.6556C44.8381 18.7151 43.8344 19.4318 41.2622 19.4318C38.7213 19.4318 35.9609 18.5592 34.0161 17.2816L31.9772 21.8312C34.0475 23.2646 37.6234 24.2305 41.2308 24.2305Z" fill="#DBDCE8"/>
<path d="M63.799 18.9643C63.2971 19.3071 62.6384 19.4941 61.9796 19.4941C60.9131 19.4941 60.1917 18.8085 60.1917 17.5621V11.9531H64.0813V7.52827H60.1917V3.13457H54.2317V7.52827H51.7536V11.9531H54.2317V17.6244C54.2317 21.9558 56.7725 24.0747 61.1327 24.0747C62.7011 24.0747 64.2382 23.7631 65.2733 23.1087L63.799 18.9643Z" fill="#DBDCE8"/>
<path d="M73.2492 8.93051V6.90505H67.5715V23.7943H73.5315V16.0352C73.5315 13.0749 75.194 11.8596 77.6094 11.8596C78.0485 11.8596 78.4249 11.8908 78.9582 11.9531V6.6246C76.4487 6.6246 74.4725 7.40362 73.2492 8.93051Z" fill="#DBDCE8"/>
<path d="M98.6425 15.3808C98.6425 9.80302 94.5646 6.6246 89.5457 6.6246C84.1817 6.6246 80.198 10.2393 80.198 15.3185C80.198 20.3666 84.119 24.0747 90.1731 24.0747C93.404 24.0747 95.788 23.1399 97.4191 21.3326L94.2823 18.0918C93.1217 19.089 92.0238 19.5564 90.3613 19.5564C88.1655 19.5564 86.6912 18.5592 86.1893 16.8454H98.5484C98.5797 16.378 98.6425 15.8171 98.6425 15.3808ZM89.5771 10.8313C91.4278 10.8313 92.7453 11.9531 93.0589 13.7293H86.0952C86.4402 11.9531 87.7263 10.8313 89.5771 10.8313Z" fill="#DBDCE8"/>
<path d="M101.39 23.7943H107.35V0.672852H101.39V23.7943Z" fill="#DBDCE8"/>
<path d="M122.297 6.6246C120.164 6.6246 118.25 7.3413 116.901 8.74354V6.90505H111.224V23.7943H117.184V15.6301C117.184 12.8256 118.658 11.6415 120.571 11.6415C122.297 11.6415 123.363 12.6698 123.363 15.1004V23.7943H129.323V14.1344C129.323 8.89935 126.28 6.6246 122.297 6.6246Z" fill="#DBDCE8"/>
<path d="M140.311 6.6246C137.645 6.6246 134.759 7.31014 132.814 8.58774L134.822 12.6075C135.982 11.7038 137.802 11.1429 139.433 11.1429C141.785 11.1429 142.946 12.1089 143.04 13.8228H139.652C134.382 13.8228 132.093 15.7548 132.093 18.8709C132.093 21.8 134.351 24.0747 138.429 24.0747C140.907 24.0747 142.601 23.2334 143.448 21.613V23.7943H149V14.4148C149 9.05515 145.832 6.6246 140.311 6.6246ZM140.091 20.3354C138.68 20.3354 137.864 19.6187 137.864 18.6216C137.864 17.5933 138.554 16.9077 140.468 16.9077H143.04V18.3723C142.57 19.7122 141.409 20.3354 140.091 20.3354Z" fill="#DBDCE8"/>
<path d="M41.7522 34.9106H42.9497L40.7449 29.7045H39.6178L37.4201 34.9106H38.5894L39.0261 33.795H41.3155L41.7522 34.9106ZM39.3924 32.8802L40.1743 30.887L40.9562 32.8802H39.3924Z" fill="#DBDCE8"/>
<path d="M46.772 34.9106H50.3856V33.9289H47.9131V29.7045H46.772V34.9106Z" fill="#DBDCE8"/>
<path d="M57.5832 33.7504C57.2944 33.914 57.0056 33.9735 56.6957 33.9735C55.7517 33.9735 55.0966 33.2818 55.0966 32.3075C55.0966 31.3184 55.7517 30.6416 56.7097 30.6416C57.2099 30.6416 57.6255 30.8275 57.9847 31.2291L58.7173 30.5151C58.2383 29.9276 57.5198 29.6152 56.6534 29.6152C55.0826 29.6152 53.9414 30.7383 53.9414 32.3075C53.9414 33.8768 55.0826 34.9998 56.6323 34.9998C57.3367 34.9998 58.0833 34.7693 58.6257 34.3379V32.2257H57.5832V33.7504Z" fill="#DBDCE8"/>
<path d="M65.3844 34.9998C66.9341 34.9998 68.0823 33.8619 68.0823 32.3075C68.0823 30.7531 66.9341 29.6152 65.3844 29.6152C63.8277 29.6152 62.6865 30.7606 62.6865 32.3075C62.6865 33.8545 63.8277 34.9998 65.3844 34.9998ZM65.3844 33.9735C64.5039 33.9735 63.8418 33.2967 63.8418 32.3075C63.8418 31.3184 64.5039 30.6416 65.3844 30.6416C66.2649 30.6416 66.9271 31.3184 66.9271 32.3075C66.9271 33.2967 66.2649 33.9735 65.3844 33.9735Z" fill="#DBDCE8"/>
<path d="M76.618 34.9106L75.512 33.2372C76.153 32.9472 76.5264 32.3745 76.5264 31.5936C76.5264 30.4259 75.7022 29.7045 74.385 29.7045H72.2506V34.9106H73.3918V33.4603H74.4413L75.3923 34.9106H76.618ZM75.3711 31.5936C75.3711 32.1588 75.0189 32.5009 74.3216 32.5009H73.3918V30.6862H74.3216C75.0189 30.6862 75.3711 31.0209 75.3711 31.5936Z" fill="#DBDCE8"/>
<path d="M80.7412 34.9106H81.8824V29.7045H80.7412V34.9106Z" fill="#DBDCE8"/>
<path d="M87.3847 34.9106H88.5258V30.6862H90.1037V29.7045H85.8068V30.6862H87.3847V34.9106Z" fill="#DBDCE8"/>
<path d="M99.5861 34.9106L99.5721 29.7045H98.6352L96.8178 32.9397L94.9723 29.7045H94.0284V34.9106H95.0991V31.8539L96.5431 34.3602H97.0573L98.5084 31.7869L98.5154 34.9106H99.5861Z" fill="#DBDCE8"/>
<path d="M112.704 33.7504C112.415 33.914 112.127 33.9735 111.817 33.9735C110.873 33.9735 110.218 33.2818 110.218 32.3075C110.218 31.3184 110.873 30.6416 111.831 30.6416C112.331 30.6416 112.746 30.8275 113.106 31.2291L113.838 30.5151C113.359 29.9276 112.641 29.6152 111.774 29.6152C110.204 29.6152 109.062 30.7383 109.062 32.3075C109.062 33.8768 110.204 34.9998 111.753 34.9998C112.458 34.9998 113.204 34.7693 113.747 34.3379V32.2257H112.704V33.7504Z" fill="#DBDCE8"/>
<path d="M122.485 34.9106L121.379 33.2372C122.02 32.9472 122.393 32.3745 122.393 31.5936C122.393 30.4259 121.569 29.7045 120.252 29.7045H118.117V34.9106H119.259V33.4603H120.308L121.259 34.9106H122.485ZM121.238 31.5936C121.238 32.1588 120.886 32.5009 120.188 32.5009H119.259V30.6862H120.188C120.886 30.6862 121.238 31.0209 121.238 31.5936Z" fill="#DBDCE8"/>
<path d="M128.996 34.9998C130.546 34.9998 131.694 33.8619 131.694 32.3075C131.694 30.7531 130.546 29.6152 128.996 29.6152C127.439 29.6152 126.298 30.7606 126.298 32.3075C126.298 33.8545 127.439 34.9998 128.996 34.9998ZM128.996 33.9735C128.115 33.9735 127.453 33.2967 127.453 32.3075C127.453 31.3184 128.115 30.6416 128.996 30.6416C129.876 30.6416 130.539 31.3184 130.539 32.3075C130.539 33.2967 129.876 33.9735 128.996 33.9735Z" fill="#DBDCE8"/>
<path d="M138.053 34.9998C139.455 34.9998 140.286 34.152 140.286 32.6199V29.7045H139.159V32.5753C139.159 33.5644 138.757 33.9735 138.06 33.9735C137.37 33.9735 136.961 33.5644 136.961 32.5753V29.7045H135.82V32.6199C135.82 34.152 136.651 34.9998 138.053 34.9998Z" fill="#DBDCE8"/>
<path d="M146.859 29.7045H144.724V34.9106H145.865V33.4752H146.859C148.176 33.4752 149 32.7538 149 31.5936C149 30.4259 148.176 29.7045 146.859 29.7045ZM146.795 32.4935H145.865V30.6862H146.795C147.493 30.6862 147.845 31.0209 147.845 31.5936C147.845 32.1588 147.493 32.4935 146.795 32.4935Z" fill="#DBDCE8"/>
<path fill-rule="evenodd" clip-rule="evenodd" d="M8.5117 23.6179C8.40427 23.8343 8.26955 24.0741 8.17846 24.3203L13.5235 24.3128L11.6379 19.9217C11.5338 19.6735 11.4289 19.4404 11.3252 19.195L11.0434 18.5497C11.0023 18.4889 11.0229 18.5133 10.9733 18.4697L8.5117 23.6179Z" fill="#AAA3B4"/>
<path fill-rule="evenodd" clip-rule="evenodd" d="M3.97647 20.3391C4.09406 20.2509 6.15049 17.6076 6.44644 17.2168C6.59037 17.0269 7.20465 16.2791 7.2667 16.1463C7.18227 16.0803 7.10039 16.0303 7.00692 15.9597C6.80936 15.8104 6.46215 15.5549 6.32663 15.3564C6.05686 15.4065 5.44084 15.3723 5.13378 15.3723H3.98472C3.20461 15.3723 2.42403 15.3691 1.64408 15.3723C1.68581 15.4968 1.74437 15.5792 1.79451 15.7033L3.97647 20.3391Z" fill="#AAA3B4"/>
<path fill-rule="evenodd" clip-rule="evenodd" d="M14.7458 16.1728C14.7904 16.2806 14.851 16.3426 14.9175 16.4322C14.984 16.5218 15.0286 16.5962 15.1041 16.6947C15.6211 17.3666 16.4931 18.5968 16.989 19.3016C17.0896 19.444 17.6729 20.2792 17.7562 20.3293C17.7894 20.2185 17.8537 20.1324 17.9022 20.0169C17.9548 19.892 17.9848 19.8279 18.0438 19.7096C18.0977 19.6014 18.1288 19.5084 18.183 19.3995L18.623 18.4633C18.6714 18.3656 18.713 18.2543 18.7626 18.1541L19.2016 17.2177C19.26 17.1024 19.2863 17.0246 19.3412 16.9076L20.0572 15.3777C19.3347 15.37 18.6086 15.3769 17.8857 15.3769H16.7927C16.5159 15.3769 15.9539 15.4086 15.7136 15.3584C15.5757 15.5458 15.4423 15.6484 15.2566 15.7927L14.7458 16.1728Z" fill="#AAA3B4"/>
<path fill-rule="evenodd" clip-rule="evenodd" d="M1.63088 15.3227C1.70102 15.1702 1.86891 14.9512 1.96587 14.8033C2.08203 14.6273 2.19438 14.4624 2.31498 14.281C2.54524 13.9327 2.77391 13.5881 3.0113 13.2362L4.0442 11.6891C4.12259 11.5718 4.30889 11.2413 4.4241 11.166L4.38855 10.3633H0.415176C0.422159 11.5486 0.411368 11.9212 0.718587 13.1278C0.821257 13.5321 0.971058 13.911 1.12594 14.2666L1.49092 15.0531C1.54582 15.1691 1.53202 15.1998 1.61501 15.3053C1.61834 15.3095 1.62517 15.317 1.63088 15.3227Z" fill="#AAA3B4"/>
<path fill-rule="evenodd" clip-rule="evenodd" d="M0.415157 10.3629H4.38853L4.50041 9.58285C4.43693 9.53916 4.39678 9.43786 4.33934 9.33861L2.91322 6.91867C2.91004 6.91329 2.90592 6.90617 2.90258 6.90094L2.54744 6.30229L2.53697 6.28456L2.05599 5.49707C2.00298 5.53126 2.04266 5.49612 2.00171 5.5368C1.91142 5.62624 1.48709 6.42481 1.44948 6.50237C1.03483 7.35713 0.812987 8.0104 0.602091 8.91819C0.533538 9.21324 0.3858 10.0313 0.415157 10.3629Z" fill="#E5E5E5"/>
<path fill-rule="evenodd" clip-rule="evenodd" d="M17.488 9.15959C17.4653 9.34622 17.5402 9.56212 17.5697 9.7478C17.5894 9.87095 17.6173 10.2896 17.663 10.3542H21.2745C21.3349 10.2852 21.2986 10.2231 21.2929 9.99679C21.2749 9.29936 21.038 8.23581 20.8373 7.60281C20.605 6.87104 20.3163 6.28521 19.9408 5.66265L19.8309 5.46289C19.7714 5.39245 19.849 5.44706 19.758 5.40527L18.0615 8.23597C17.965 8.40202 17.5854 9.06668 17.488 9.15959Z" fill="#E5E5E5"/>
<path fill-rule="evenodd" clip-rule="evenodd" d="M17.5736 11.7449L17.6331 11.6479L19.4456 14.3925C19.5486 14.5533 19.9782 15.2387 20.0789 15.3094C20.2832 14.99 20.6397 14.1126 20.7694 13.73C20.8437 13.5111 20.89 13.3566 20.9543 13.1274C21.1468 12.4411 21.3635 11.1171 21.2743 10.3545H17.6629C17.6437 10.5421 17.6669 10.5626 17.6797 10.7048C17.6956 10.8713 17.6598 10.9311 17.6528 11.0662C17.6188 11.7267 17.5991 11.4948 17.5734 11.7452" fill="#AAA3B4"/>
<path fill-rule="evenodd" clip-rule="evenodd" d="M13.9286 4.88839C13.9502 4.96896 13.9703 4.9688 14.0996 5.02958C14.3388 5.14228 14.5598 5.32685 14.7455 5.33192L19.7421 5.32923C19.667 5.11981 19.1242 4.46322 18.9625 4.28372C18.6725 3.95635 18.3629 3.6468 18.0354 3.35678C17.6928 3.05128 16.3024 2.03569 15.8184 1.87012L14.4061 4.14949C14.3028 4.31253 14.0324 4.79025 13.9279 4.88886" fill="#E5E5E5"/>
<path fill-rule="evenodd" clip-rule="evenodd" d="M2.15407 5.38969L7.33601 5.38099C7.39821 5.31197 7.45312 5.31292 7.5469 5.25435C7.62022 5.20829 7.68718 5.17521 7.75478 5.11728C7.70797 4.99935 7.70559 5.00394 7.6437 4.90089L7.44757 4.56215C7.42662 4.52685 7.43424 4.54031 7.41583 4.5096L6.95675 3.73271C6.91342 3.65768 6.88169 3.61732 6.8298 3.52599L6.77838 3.43608C6.76807 3.41851 6.75759 3.40015 6.74664 3.3821L6.08016 2.2508C6.05191 2.20236 6.04144 2.18084 6.01748 2.14348C5.97102 2.07323 5.93078 1.99908 5.89719 1.92188C5.54268 2.05136 5.07773 2.39263 4.78289 2.59287C4.1502 3.02262 3.39945 3.7343 2.90609 4.3111L2.21866 5.1931C2.15709 5.28665 2.1628 5.26908 2.15312 5.39017" fill="#E5E5E5"/>
<path fill-rule="evenodd" clip-rule="evenodd" d="M3.97653 20.3393L3.997 20.4184L7.16694 20.4174C7.25565 20.3383 7.89452 18.9406 8.02385 18.684C8.15318 18.4274 8.84522 17.0695 8.87616 16.8946C8.59101 16.7973 8.31196 16.6831 8.04052 16.5525C7.90928 16.4881 7.38784 16.1473 7.26644 16.1465C7.20439 16.2793 6.59011 17.0269 6.44618 17.217C6.15023 17.6078 4.0938 20.2511 3.97622 20.3393" fill="#E5E5E5"/>
<path fill-rule="evenodd" clip-rule="evenodd" d="M5.89802 1.92105C5.93161 1.99825 5.97185 2.0724 6.01831 2.14265C6.04227 2.18001 6.05274 2.20154 6.08099 2.24997L6.74748 3.38127C6.75795 3.39932 6.76842 3.41768 6.77921 3.43525L6.83063 3.52516C6.88173 3.61649 6.91346 3.65685 6.95758 3.73188L7.41666 4.50877C7.43459 4.53948 7.42698 4.52602 7.4484 4.56132L7.64454 4.90006C7.70658 5.00311 7.70897 4.99852 7.75562 5.11644C7.83814 5.10061 7.86226 5.07038 7.93859 5.02986C7.97969 5.00817 8.00206 4.9982 8.0338 4.98237C8.08791 4.95372 8.08648 4.96559 8.12044 4.92365C8.12409 4.91557 8.12933 4.89484 8.13139 4.89943C8.1598 4.961 8.12251 4.90196 8.19312 4.77454L8.38355 4.46302L8.39386 4.44482L10.2275 1.33728L10.2477 1.3015L10.3097 1.19481C10.3643 1.09984 10.4116 1.01436 10.4684 0.929205C10.4935 0.891057 10.516 0.857658 10.5422 0.811121C10.5763 0.751762 10.5971 0.726277 10.6118 0.658688C9.3206 0.614525 7.3086 1.1774 6.13082 1.77827C6.08321 1.80233 6.05147 1.82243 6.00561 1.8495C5.95801 1.87799 5.9342 1.88211 5.89802 1.92105Z" fill="#AAA3B4"/>
<path fill-rule="evenodd" clip-rule="evenodd" d="M13.3865 4.70348C13.5159 4.76553 13.3522 4.68987 13.524 4.73815C13.674 4.7801 13.7721 4.86162 13.9284 4.88837C14.0328 4.78975 14.3032 4.31203 14.4063 4.149L15.8187 1.86962L14.7837 1.41454C13.717 0.985098 12.8968 0.836623 11.754 0.711574C11.5522 0.689413 11.2393 0.700335 11.0461 0.65918C11.1096 0.864956 13.3612 4.50641 13.3865 4.70348Z" fill="#AAA3B4"/>
<path fill-rule="evenodd" clip-rule="evenodd" d="M8.11939 4.92383C8.28855 4.89122 8.52912 4.75841 8.69844 4.69779C10.014 4.22624 11.4402 4.17084 12.79 4.52129C12.9773 4.56989 13.2194 4.67769 13.3865 4.70349C13.3613 4.50642 11.1091 0.865273 11.0461 0.65918H10.6111C10.5963 0.726769 10.5756 0.752254 10.5413 0.811613C10.5145 0.85815 10.4927 0.891549 10.4676 0.929697C10.4116 1.01486 10.3643 1.10049 10.309 1.19531L10.2469 1.30184C10.2426 1.30912 10.231 1.33033 10.2268 1.33761L8.39345 4.445L8.38313 4.4632L8.19271 4.77456C8.12209 4.90214 8.15938 4.96118 8.13098 4.89961C8.12891 4.89502 8.12368 4.91544 8.12003 4.92383" fill="#E5E5E5"/>
<path fill-rule="evenodd" clip-rule="evenodd" d="M14.7106 20.4259L17.729 20.4299C17.7569 20.3845 17.7465 20.4098 17.756 20.3294C17.6727 20.2792 17.0895 19.4445 16.9887 19.3016C16.4928 18.5969 15.6209 17.3667 15.1039 16.6947C15.0282 16.5963 14.9834 16.5206 14.9172 16.4323C14.8511 16.344 14.7903 16.2806 14.7455 16.1729C14.595 16.1776 14.4612 16.2982 14.3474 16.3691L13.5763 16.7455C13.4438 16.8005 13.1815 16.8579 13.1883 16.9444C13.1996 17.0868 14.5531 20.1296 14.7106 20.4267" fill="#E5E5E5"/>
<path fill-rule="evenodd" clip-rule="evenodd" d="M13.1182 30.1621L8.7792 30.1634L9.3235 31.2899C9.52614 31.6676 9.69832 32.0364 9.87525 32.394C10.0347 32.7176 10.1863 33.0483 10.3413 33.3776C10.595 33.9168 11.3047 33.911 11.5634 33.3743C11.7415 33.005 11.9144 32.6408 12.0401 32.3831C12.2146 32.026 12.4168 31.6048 12.5955 31.283L13.1182 30.1621Z" fill="#AAA3B4"/>
<path fill-rule="evenodd" clip-rule="evenodd" d="M2.05597 5.49721L2.53774 6.2847L2.54822 6.30243L2.90273 6.90092L2.9132 6.91881L4.33932 9.33858C4.39693 9.43783 4.43628 9.53914 4.50039 9.58283C4.72493 8.59146 5.04263 7.82438 5.54566 7.12189C6.03902 6.43286 6.61918 5.84877 7.33582 5.38071L2.15388 5.38941C2.05867 5.34905 2.06343 5.43358 2.05597 5.49737" fill="#AAA3B4"/>
<path fill-rule="evenodd" clip-rule="evenodd" d="M1.63066 15.3226C1.59544 15.4136 1.61733 15.3523 1.64384 15.3727C2.42378 15.3692 3.20437 15.3727 3.98448 15.3727H5.13353C5.44059 15.3727 6.05725 15.4064 6.32638 15.3569C6.16167 15.0668 5.1521 14.3304 4.6362 12.4987C4.55686 12.2164 4.38992 11.5173 4.42388 11.166C4.30867 11.2414 4.12237 11.5719 4.04398 11.6892L3.01029 13.2371C2.77226 13.5883 2.54423 13.9336 2.31397 14.2818C2.19416 14.4629 2.08181 14.6278 1.96486 14.8042C1.86727 14.952 1.70001 15.1711 1.62987 15.3235" fill="#E5E5E5"/>
<path fill-rule="evenodd" clip-rule="evenodd" d="M17.4884 9.15971C17.5858 9.06679 17.9654 8.40214 18.0619 8.23609L19.7584 5.40556L19.7425 5.3291L14.7458 5.33179C14.7956 5.43167 14.7775 5.37928 14.9602 5.51446L15.3093 5.7826C16.3374 6.64908 16.9566 7.55418 17.3848 8.83949L17.4884 9.15971Z" fill="#AAA3B4"/>
<path fill-rule="evenodd" clip-rule="evenodd" d="M17.5737 11.7445C17.4188 12.9584 16.8136 14.103 16.0533 14.992C15.9422 15.1218 15.7946 15.2085 15.7129 15.3571C15.9536 15.4076 16.5157 15.3757 16.792 15.3757H17.885C18.6079 15.3757 19.334 15.3687 20.0565 15.3765L20.0786 15.309C19.9778 15.2383 19.5482 14.5529 19.4453 14.3921L17.6332 11.6475L17.5737 11.7445Z" fill="#E5E5E5"/>
<path fill-rule="evenodd" clip-rule="evenodd" d="M7.16698 20.417L3.99704 20.4179C3.98863 20.517 5.0877 22.6973 5.18545 22.9031L5.58677 23.7055L6.3975 22.06C6.46098 21.9214 7.18095 20.5246 7.16698 20.4173" fill="#AAA3B4"/>
<path fill-rule="evenodd" clip-rule="evenodd" d="M17.729 20.4297L14.7106 20.4258L16.1373 23.6908C16.1645 23.7451 16.1433 23.7056 16.1729 23.7497L16.2046 23.7866C16.24 23.7522 16.2146 23.7866 16.2508 23.7337L16.6105 22.9372C16.7413 22.655 16.8525 22.4107 16.9861 22.1035C17.1026 21.8354 17.7018 20.58 17.7296 20.4297" fill="#AAA3B4"/>
<path fill-rule="evenodd" clip-rule="evenodd" d="M8.77931 30.1619L13.1183 30.1606L14.686 26.8223L7.1242 26.8332L8.77931 30.1619Z" fill="#AAA3B4"/>
</svg>
