<svg width="237" height="58" viewBox="0 0 237 58" fill="none" xmlns="http://www.w3.org/2000/svg">
<path d="M65.6358 20.92H56.7558L55.1058 25H49.0458L58.3158 4H64.1658L73.4658 25H67.2858L65.6358 20.92ZM63.8958 16.54L61.1958 9.82L58.4958 16.54H63.8958ZM75.1498 4H81.0898V20.29H91.1098V25H75.1498V4ZM107.208 14.05H112.458V22.75C111.258 23.61 109.878 24.27 108.318 24.73C106.758 25.19 105.198 25.42 103.638 25.42C101.438 25.42 99.4581 24.96 97.6981 24.04C95.9381 23.1 94.5581 21.8 93.5581 20.14C92.5581 18.48 92.0581 16.6 92.0581 14.5C92.0581 12.4 92.5581 10.52 93.5581 8.86C94.5581 7.2 95.9481 5.91 97.7281 4.99C99.5081 4.05 101.518 3.58 103.758 3.58C105.718 3.58 107.478 3.91 109.038 4.57C110.598 5.23 111.898 6.18 112.938 7.42L109.158 10.84C107.738 9.28 106.038 8.5 104.058 8.5C102.258 8.5 100.808 9.05 99.7081 10.15C98.6081 11.23 98.0581 12.68 98.0581 14.5C98.0581 15.66 98.3081 16.7 98.8081 17.62C99.3081 18.52 100.008 19.23 100.908 19.75C101.808 20.25 102.838 20.5 103.998 20.5C105.138 20.5 106.208 20.27 107.208 19.81V14.05ZM126.814 25.42C124.594 25.42 122.594 24.95 120.814 24.01C119.054 23.07 117.664 21.77 116.644 20.11C115.644 18.45 115.144 16.58 115.144 14.5C115.144 12.42 115.644 10.55 116.644 8.89C117.664 7.23 119.054 5.93 120.814 4.99C122.594 4.05 124.594 3.58 126.814 3.58C129.034 3.58 131.024 4.05 132.784 4.99C134.564 5.93 135.954 7.23 136.954 8.89C137.974 10.55 138.484 12.42 138.484 14.5C138.484 16.58 137.974 18.45 136.954 20.11C135.954 21.77 134.564 23.07 132.784 24.01C131.024 24.95 129.034 25.42 126.814 25.42ZM126.814 20.5C127.874 20.5 128.834 20.25 129.694 19.75C130.554 19.25 131.234 18.55 131.734 17.65C132.234 16.73 132.484 15.68 132.484 14.5C132.484 13.32 132.234 12.28 131.734 11.38C131.234 10.46 130.554 9.75 129.694 9.25C128.834 8.75 127.874 8.5 126.814 8.5C125.754 8.5 124.794 8.75 123.934 9.25C123.074 9.75 122.394 10.46 121.894 11.38C121.394 12.28 121.144 13.32 121.144 14.5C121.144 15.68 121.394 16.73 121.894 17.65C122.394 18.55 123.074 19.25 123.934 19.75C124.794 20.25 125.754 20.5 126.814 20.5ZM150.775 19.42H147.535V25H141.595V4H151.195C153.095 4 154.745 4.32 156.145 4.96C157.545 5.58 158.625 6.48 159.385 7.66C160.145 8.82 160.525 10.19 160.525 11.77C160.525 13.29 160.165 14.62 159.445 15.76C158.745 16.88 157.735 17.76 156.415 18.4L160.945 25H154.585L150.775 19.42ZM154.525 11.77C154.525 10.79 154.215 10.03 153.595 9.49C152.975 8.95 152.055 8.68 150.835 8.68H147.535V14.83H150.835C152.055 14.83 152.975 14.57 153.595 14.05C154.215 13.51 154.525 12.75 154.525 11.77ZM163.802 4H169.742V25H163.802V4ZM178.438 8.71H171.988V4H190.798V8.71H184.378V25H178.438V8.71ZM211.971 25L211.911 13.87L206.511 22.93H203.871L198.501 14.17V25H193.011V4H197.901L205.281 16.12L212.481 4H217.371L217.431 25H211.971Z" fill="#DBDCE8"/>
<path d="M81.6792 54.42C79.9792 54.42 78.3292 54.21 76.7292 53.79C75.1292 53.37 73.8292 52.81 72.8292 52.11L74.7792 47.73C75.7192 48.35 76.8092 48.85 78.0492 49.23C79.2892 49.61 80.5092 49.8 81.7092 49.8C83.9892 49.8 85.1292 49.23 85.1292 48.09C85.1292 47.49 84.7992 47.05 84.1392 46.77C83.4992 46.47 82.4592 46.16 81.0192 45.84C79.4392 45.5 78.1192 45.14 77.0592 44.76C75.9992 44.36 75.0892 43.73 74.3292 42.87C73.5692 42.01 73.1892 40.85 73.1892 39.39C73.1892 38.11 73.5392 36.96 74.2392 35.94C74.9392 34.9 75.9792 34.08 77.3592 33.48C78.7592 32.88 80.4692 32.58 82.4892 32.58C83.8692 32.58 85.2292 32.74 86.5692 33.06C87.9092 33.36 89.0892 33.81 90.1092 34.41L88.2792 38.82C86.2792 37.74 84.3392 37.2 82.4592 37.2C81.2792 37.2 80.4192 37.38 79.8792 37.74C79.3392 38.08 79.0692 38.53 79.0692 39.09C79.0692 39.65 79.3892 40.07 80.0292 40.35C80.6692 40.63 81.6992 40.92 83.1192 41.22C84.7192 41.56 86.0392 41.93 87.0792 42.33C88.1392 42.71 89.0492 43.33 89.8092 44.19C90.5892 45.03 90.9792 46.18 90.9792 47.64C90.9792 48.9 90.6292 50.04 89.9292 51.06C89.2292 52.08 88.1792 52.9 86.7792 53.52C85.3792 54.12 83.6792 54.42 81.6792 54.42ZM97.9001 37.71H91.4501V33H110.26V37.71H103.84V54H97.9001V37.71ZM121.653 48.42H118.413V54H112.473V33H122.073C123.973 33 125.623 33.32 127.023 33.96C128.423 34.58 129.503 35.48 130.263 36.66C131.023 37.82 131.403 39.19 131.403 40.77C131.403 42.29 131.043 43.62 130.323 44.76C129.623 45.88 128.613 46.76 127.293 47.4L131.823 54H125.463L121.653 48.42ZM125.403 40.77C125.403 39.79 125.093 39.03 124.473 38.49C123.853 37.95 122.933 37.68 121.713 37.68H118.413V43.83H121.713C122.933 43.83 123.853 43.57 124.473 43.05C125.093 42.51 125.403 41.75 125.403 40.77ZM151.54 49.41V54H134.68V33H151.15V37.59H140.56V41.13H149.89V45.57H140.56V49.41H151.54ZM154.836 33H160.776V49.29H170.796V54H154.836V33ZM193.127 33V54H188.237L178.967 42.81V54H173.147V33H178.037L187.307 44.19V33H193.127ZM211.387 49.92H202.507L200.857 54H194.797L204.067 33H209.917L219.217 54H213.037L211.387 49.92ZM209.647 45.54L206.947 38.82L204.247 45.54H209.647Z" fill="#DBDCE8"/>
<path d="M60.982 47.27C60.022 47.27 59.212 46.95 58.552 46.31C57.892 45.67 57.562 44.86 57.562 43.88C57.562 42.88 57.882 42.07 58.522 41.45C59.182 40.83 60.002 40.52 60.982 40.52C61.982 40.52 62.802 40.83 63.442 41.45C64.082 42.07 64.402 42.88 64.402 43.88C64.402 44.86 64.072 45.67 63.412 46.31C62.772 46.95 61.962 47.27 60.982 47.27Z" fill="#DBDCE8"/>
<path fill-rule="evenodd" clip-rule="evenodd" d="M12.4053 36.9048C12.2408 37.2496 12.0345 37.6318 11.895 38.0241L20.08 38.0122L17.1924 31.0142C17.033 30.6186 16.8724 30.247 16.7137 29.856L16.2822 28.8275C16.2192 28.7307 16.2508 28.7695 16.1748 28.7001L12.4053 36.9048Z" fill="#AAA3B4"/>
<path fill-rule="evenodd" clip-rule="evenodd" d="M5.46037 31.6792C5.64043 31.5387 8.78948 27.3261 9.24268 26.7033C9.46308 26.4006 10.4037 25.2089 10.4988 24.9972C10.3695 24.892 10.2441 24.8123 10.101 24.6998C9.79842 24.4619 9.26674 24.0547 9.05922 23.7384C8.64611 23.8181 7.70278 23.7636 7.23257 23.7636H5.473C4.27841 23.7636 3.08308 23.7586 1.88873 23.7636C1.95264 23.9622 2.04231 24.0933 2.1191 24.2911L5.46037 31.6792Z" fill="#AAA3B4"/>
<path fill-rule="evenodd" clip-rule="evenodd" d="M21.9501 25.0386C22.0184 25.2104 22.1112 25.3092 22.2131 25.452C22.3149 25.5948 22.3832 25.7134 22.4988 25.8703C23.2905 26.9411 24.6258 28.9017 25.3852 30.0248C25.5393 30.2519 26.4325 31.5828 26.5601 31.6628C26.6109 31.4862 26.7093 31.349 26.7837 31.1648C26.8641 30.9658 26.91 30.8636 27.0004 30.6752C27.083 30.5026 27.1307 30.3545 27.2135 30.181L27.8874 28.6888C27.9615 28.5332 28.0252 28.3558 28.1012 28.1962L28.7733 26.7038C28.8628 26.5201 28.9031 26.396 28.9872 26.2096L30.0836 23.7714C28.9772 23.7591 27.8653 23.7702 26.7584 23.7702H25.0846C24.6608 23.7702 23.8001 23.8206 23.4322 23.7407C23.221 24.0393 23.0167 24.2028 22.7324 24.4329L21.9501 25.0386Z" fill="#AAA3B4"/>
<path fill-rule="evenodd" clip-rule="evenodd" d="M1.86541 23.6848C1.97282 23.4419 2.22992 23.0927 2.37839 22.8571C2.55627 22.5766 2.72831 22.3137 2.91299 22.0246C3.26559 21.4697 3.61575 20.9205 3.97928 20.3597L5.56097 17.894C5.68102 17.7071 5.9663 17.1804 6.14272 17.0603L6.08829 15.7811L0.00378418 15.7811C0.0144762 17.67 -0.00204784 18.2639 0.468402 20.1869C0.625624 20.8312 0.855017 21.4351 1.09219 22.0017L1.65109 23.2552C1.73517 23.4401 1.71403 23.489 1.84111 23.657C1.84622 23.6639 1.85667 23.6757 1.86541 23.6848Z" fill="#AAA3B4"/>
<path fill-rule="evenodd" clip-rule="evenodd" d="M0.00583557 15.7804H6.09034L6.26165 14.5372C6.16445 14.4676 6.10298 14.3061 6.01501 14.148L3.83116 10.2913C3.8263 10.2828 3.81998 10.2714 3.81488 10.2631L3.27104 9.30903L3.255 9.28077L2.51847 8.02576C2.4373 8.08025 2.49805 8.02424 2.43536 8.08908C2.29709 8.23161 1.64731 9.50428 1.58972 9.62789C0.954755 10.9901 0.615039 12.0312 0.292091 13.478C0.187114 13.9482 -0.0391196 15.2519 0.00583557 15.7804Z" fill="#E5E5E5"/>
<path fill-rule="evenodd" clip-rule="evenodd" d="M26.149 13.8621C26.1142 14.1595 26.2289 14.5036 26.2741 14.7995C26.3043 14.9958 26.347 15.663 26.417 15.766H31.9472C32.0398 15.656 31.9842 15.5571 31.9754 15.1964C31.948 14.0849 31.5852 12.3899 31.2778 11.3811C30.922 10.2149 30.48 9.28125 29.905 8.28909L29.7366 7.97073C29.6455 7.85847 29.7644 7.9455 29.6251 7.87891L27.0272 12.3902C26.8794 12.6548 26.2982 13.714 26.149 13.8621Z" fill="#E5E5E5"/>
<path fill-rule="evenodd" clip-rule="evenodd" d="M26.2829 17.9825L26.374 17.8279L29.1496 22.2019C29.3073 22.4582 29.9651 23.5505 30.1194 23.6632C30.4321 23.1542 30.9782 21.7559 31.1767 21.1461C31.2904 20.7973 31.3614 20.5511 31.4598 20.1858C31.7546 19.092 32.0865 16.982 31.9499 15.7666L26.4197 15.7666C26.3903 16.0655 26.4258 16.0983 26.4455 16.3249C26.4698 16.5902 26.4148 16.6856 26.4042 16.9008C26.3522 17.9535 26.322 17.5839 26.2827 17.983" fill="#AAA3B4"/>
<path fill-rule="evenodd" clip-rule="evenodd" d="M20.6998 7.05482C20.7329 7.18322 20.7637 7.18297 20.9618 7.27984C21.328 7.45945 21.6665 7.75359 21.9508 7.76166L29.6022 7.75737C29.4872 7.42363 28.6559 6.37723 28.4083 6.09116C27.9643 5.56944 27.4902 5.07611 26.9887 4.6139C26.4641 4.12703 24.3349 2.5085 23.5937 2.24463L21.431 5.87724C21.2728 6.13708 20.8587 6.89841 20.6989 7.05557" fill="#E5E5E5"/>
<path fill-rule="evenodd" clip-rule="evenodd" d="M2.66753 7.85396L10.6027 7.84008C10.698 7.73009 10.7821 7.73161 10.9257 7.63827C11.0379 7.56486 11.1405 7.51214 11.244 7.41981C11.1723 7.23187 11.1687 7.23919 11.0739 7.07496L10.7736 6.53511C10.7415 6.47886 10.7531 6.5003 10.725 6.45136L10.022 5.21324C9.95562 5.09367 9.90702 5.02934 9.82756 4.88379L9.74882 4.7405C9.73303 4.7125 9.71699 4.68324 9.70022 4.65448L8.67962 2.85154C8.63637 2.77435 8.62033 2.74004 8.58363 2.6805C8.5125 2.56854 8.45087 2.45037 8.39944 2.32733C7.85658 2.53368 7.14458 3.07757 6.69309 3.39668C5.72424 4.08158 4.57461 5.21577 3.81912 6.13502L2.76644 7.54064C2.67215 7.68973 2.6809 7.66173 2.66608 7.85471" fill="#E5E5E5"/>
<path fill-rule="evenodd" clip-rule="evenodd" d="M5.45941 31.6792L5.49076 31.8054L10.3449 31.8038C10.4808 31.6777 11.4591 29.4502 11.6571 29.0413C11.8552 28.6324 12.9149 26.4682 12.9623 26.1895C12.5256 26.0345 12.0983 25.8524 11.6827 25.6443C11.4817 25.5416 10.6832 24.9985 10.4973 24.9973C10.4023 25.2089 9.46163 26.4003 9.24123 26.7033C8.78804 27.3262 5.63899 31.5387 5.45892 31.6792" fill="#E5E5E5"/>
<path fill-rule="evenodd" clip-rule="evenodd" d="M8.40399 2.326C8.45542 2.44904 8.51705 2.56721 8.58819 2.67917C8.62488 2.7387 8.64092 2.77301 8.68417 2.8502L9.70478 4.65314C9.72082 4.6819 9.73685 4.71116 9.75338 4.73916L9.83211 4.88245C9.91036 5.02801 9.95896 5.09233 10.0265 5.21191L10.7295 6.45002C10.757 6.49896 10.7453 6.47752 10.7781 6.53377L11.0785 7.07362C11.1735 7.23784 11.1771 7.23053 11.2486 7.41847C11.3749 7.39324 11.4119 7.34506 11.5287 7.28048C11.5917 7.24592 11.6259 7.23002 11.6745 7.2048C11.7574 7.15914 11.7552 7.17806 11.8072 7.11121C11.8128 7.09834 11.8208 7.0653 11.824 7.07261C11.8675 7.17074 11.8104 7.07665 11.9185 6.87357L12.2101 6.37712L12.2259 6.34811L15.0338 1.39565L15.0647 1.33863L15.1597 1.16861C15.2433 1.01725 15.3157 0.881027 15.4027 0.745308C15.4411 0.684512 15.4756 0.631285 15.5157 0.557119C15.5679 0.462519 15.5997 0.421905 15.6223 0.314188C13.645 0.243806 10.564 1.14086 8.76047 2.09846C8.68757 2.1368 8.63897 2.16884 8.56875 2.21197C8.49585 2.25738 8.4594 2.26394 8.40399 2.326Z" fill="#AAA3B4"/>
<path fill-rule="evenodd" clip-rule="evenodd" d="M19.8664 6.75976C20.0647 6.85865 19.8139 6.73807 20.0771 6.81501C20.3068 6.88186 20.4569 7.01177 20.6963 7.05441C20.8562 6.89724 21.2703 6.13591 21.4282 5.87608L23.5909 2.24346L22.0061 1.5182C20.3726 0.833806 19.1165 0.597181 17.3667 0.397892C17.0576 0.362575 16.5784 0.379981 16.2827 0.314392C16.3799 0.642336 19.8278 6.44569 19.8664 6.75976Z" fill="#AAA3B4"/>
<path fill-rule="evenodd" clip-rule="evenodd" d="M11.8036 7.11092C12.0626 7.05895 12.431 6.8473 12.6903 6.75068C14.7048 5.99918 16.8889 5.91089 18.9558 6.46941C19.2426 6.54685 19.6134 6.71864 19.8693 6.75976C19.8306 6.44569 16.3817 0.642841 16.2853 0.314392L15.6192 0.314392C15.5966 0.422109 15.5648 0.462724 15.5123 0.557323C15.4712 0.631489 15.4379 0.684717 15.3995 0.745513C15.3137 0.881231 15.2413 1.01771 15.1565 1.16881L15.0615 1.33859C15.0549 1.35019 15.0372 1.384 15.0306 1.3956L12.2233 6.34781L12.2075 6.37682L11.9159 6.87303C11.8077 7.07636 11.8648 7.17045 11.8213 7.07232C11.8182 7.065 11.8101 7.09755 11.8046 7.11092" fill="#E5E5E5"/>
<path fill-rule="evenodd" clip-rule="evenodd" d="M21.8952 31.8166L26.5173 31.8229C26.5601 31.7505 26.544 31.7908 26.5586 31.6627C26.4311 31.5827 25.538 30.2525 25.3837 30.0247C24.6243 28.9016 23.2891 26.941 22.4974 25.8702C22.3815 25.7133 22.3129 25.5927 22.2116 25.4519C22.1103 25.3112 22.0172 25.2102 21.9487 25.0385C21.7181 25.046 21.5132 25.2382 21.339 25.3513L20.1582 25.9511C19.9553 26.0387 19.5537 26.1303 19.5641 26.268C19.5814 26.495 21.6539 31.3443 21.8952 31.8178" fill="#E5E5E5"/>
<path fill-rule="evenodd" clip-rule="evenodd" d="M19.4583 47.3333L12.8139 47.3353L13.6474 49.1306C13.9577 49.7325 14.2214 50.3203 14.4923 50.8902C14.8397 51.6242 15.1632 52.3812 15.5113 53.1223C15.7696 53.6721 16.5092 53.6652 16.768 53.1156C17.1392 52.3277 17.542 51.4389 17.8073 50.8728C18.0746 50.3037 18.3842 49.6324 18.6578 49.1195L19.4583 47.3333Z" fill="#AAA3B4"/>
<path fill-rule="evenodd" clip-rule="evenodd" d="M2.52002 8.02502L3.25777 9.28004L3.27381 9.30829L3.81667 10.2621L3.83271 10.2906L6.01656 14.147C6.10477 14.3052 6.16504 14.4666 6.26321 14.5362C6.60705 12.9563 7.09354 11.7338 7.86385 10.6143C8.61935 9.51616 9.50776 8.5853 10.6051 7.83936L2.66995 7.85323C2.52415 7.7889 2.53144 7.92361 2.52002 8.02528" fill="#AAA3B4"/>
<path fill-rule="evenodd" clip-rule="evenodd" d="M1.86573 23.6853C1.81179 23.8303 1.84532 23.7327 1.8859 23.7652C3.08025 23.7597 4.27558 23.7652 5.47017 23.7652H7.22974C7.69995 23.7652 8.64425 23.819 9.05638 23.74C8.80414 23.2776 7.25817 22.1041 6.46817 19.1849C6.34667 18.7351 6.09104 17.6208 6.14304 17.061C5.96662 17.1811 5.68134 17.7078 5.56129 17.8948L3.97839 20.3617C3.61388 20.9214 3.26469 21.4716 2.9121 22.0266C2.72863 22.3152 2.55659 22.5781 2.37749 22.8591C2.22805 23.0947 1.97193 23.4438 1.86452 23.6868" fill="#E5E5E5"/>
<path fill-rule="evenodd" clip-rule="evenodd" d="M26.1499 13.8623C26.2991 13.7142 26.8804 12.655 27.0281 12.3903L29.626 7.87935L29.6017 7.75751L21.9501 7.7618C22.0264 7.92097 21.9987 7.83747 22.2784 8.05291L22.813 8.48025C24.3874 9.86114 25.3356 11.3036 25.9912 13.352L26.1499 13.8623Z" fill="#AAA3B4"/>
<path fill-rule="evenodd" clip-rule="evenodd" d="M26.2771 17.9825C26.0399 19.9171 25.1131 21.7412 23.9489 23.1579C23.7788 23.3648 23.5528 23.503 23.4277 23.7399C23.7963 23.8204 24.657 23.7694 25.0801 23.7694H26.7539C27.8608 23.7694 28.9727 23.7583 30.0791 23.7707L30.1129 23.6632C29.9586 23.5505 29.3008 22.4581 29.1431 22.2018L26.3682 17.8278L26.2771 17.9825Z" fill="#E5E5E5"/>
<path fill-rule="evenodd" clip-rule="evenodd" d="M10.343 31.8038L5.48884 31.8053C5.47596 31.9632 7.15899 35.4379 7.30868 35.7658L7.92323 37.0446L9.16472 34.4223C9.26192 34.2013 10.3644 31.9753 10.343 31.8043" fill="#AAA3B4"/>
<path fill-rule="evenodd" clip-rule="evenodd" d="M26.5147 31.8241L21.8925 31.8177L24.0773 37.0212C24.1189 37.1077 24.0866 37.0447 24.1318 37.1151L24.1804 37.1738C24.2346 37.1191 24.1957 37.1738 24.2511 37.0896L24.802 35.8202C25.0022 35.3704 25.1726 34.9812 25.3772 34.4915C25.5555 34.0642 26.4731 32.0635 26.5156 31.8241" fill="#AAA3B4"/>
<path fill-rule="evenodd" clip-rule="evenodd" d="M12.8158 47.334L19.4601 47.332L21.8607 42.0117L10.2812 42.0291L12.8158 47.334Z" fill="#AAA3B4"/>
</svg>
