<svg width="259" height="280" viewBox="0 0 259 280" fill="none" xmlns="http://www.w3.org/2000/svg">
<path d="M84.4057 192C88.139 192 94.4983 189.472 106.713 167.844C113.752 164.616 121.477 161.723 129.115 159.46C134.665 157.816 140.22 156.524 145.647 155.62C154.596 161.112 164.994 164.628 172.397 164.628C180.583 164.628 181.428 159.998 181.492 158.58C181.581 156.638 180.889 154.84 179.491 153.377C176.522 150.269 170.471 148.694 161.506 148.694C157.045 148.694 152.115 149.097 146.838 149.889C141.498 146.367 137.087 142.216 134.042 137.843C131.18 133.737 128.641 129.245 126.483 124.477C132.327 107.362 133.464 96.1212 129.862 91.0588C128.437 89.0585 126.327 88 123.756 88C120.886 88 118.54 89.2688 116.972 91.6689C112.314 98.7964 115.933 113.68 120.604 124.707C118.428 130.851 115.712 137.473 112.72 143.929C109.345 151.212 106.008 157.835 102.797 163.63C93.6256 167.969 79.0012 176.037 77.6131 183.888C77.212 186.163 77.8824 188.249 79.5525 189.919C80.9141 191.28 82.5923 192 84.4057 192ZM161.505 154.168C171.869 154.168 174.86 156.455 175.531 157.157C175.99 157.636 176.037 158.02 176.017 158.394C175.913 158.556 174.997 159.153 172.396 159.153C168.332 159.153 161.907 157.668 154.992 154.443C157.267 154.261 159.442 154.168 161.505 154.168ZM121.556 94.6629C122.1 93.8298 122.759 93.4739 123.756 93.4739C124.673 93.4739 125.076 93.7766 125.4 94.2308C127.005 96.4876 127.113 103.453 123.304 116.412C119.784 105.857 119.606 97.6454 121.556 94.6629ZM117.687 146.23C119.891 141.473 121.951 136.625 123.764 131.931L123.837 132.094L123.953 131.76C125.654 134.986 127.525 138.067 129.548 140.971C132.046 144.558 135.326 147.991 139.201 151.097L138.652 151.182L138.887 151.333C135.133 152.128 131.343 153.091 127.56 154.212C122.034 155.85 116.46 157.807 111.114 159.981L111.286 159.672L111.069 159.774C113.245 155.57 115.46 151.039 117.687 146.23ZM83.0049 184.84C83.458 182.277 88.154 177.72 97.5924 172.445C89.1399 185.751 85.2021 186.526 84.4057 186.526C84.1434 186.526 83.8429 186.468 83.4233 186.05C82.9749 185.599 82.9298 185.267 83.0049 184.84Z" fill="#3F6E5B"/>
</svg>
