<svg width="30" height="27" viewBox="0 0 30 27" fill="none" xmlns="http://www.w3.org/2000/svg">
<path d="M24.6744 0H10.9349C9.45378 0 8.13025 0.59375 7.18487 1.5625C6.20798 2.5 5.60924 3.84375 5.60924 5.28125C5.60924 7.40625 6.90126 9.25 8.72899 10.0938V6.71875C8.72899 5.8125 9.07563 4.9375 9.7374 4.3125C10.3992 3.65625 11.25 3.3125 12.1639 3.3125C14.0546 3.3125 15.5987 4.84375 15.5987 6.71875V10.5625H24.6744C26.1555 10.5625 27.479 9.96875 28.4244 9C29.4013 8.0625 30 6.71875 30 5.28125C30 2.375 27.605 0 24.6744 0ZM26.6282 5.71875L24.7374 7.59375C24.6113 7.71875 24.4538 7.78125 24.2962 7.78125C24.1387 7.78125 23.9811 7.71875 23.855 7.59375C23.6029 7.34375 23.6029 6.9375 23.855 6.71875L24.6744 5.90625H18.687C18.3403 5.90625 18.0567 5.625 18.0567 5.28125C18.0567 4.9375 18.3403 4.65625 18.687 4.65625H24.6429L23.8235 3.84375C23.5714 3.59375 23.5714 3.1875 23.8235 2.96875C24.0756 2.71875 24.4853 2.71875 24.7059 2.96875L26.5966 4.84375C26.7227 4.96875 26.7857 5.125 26.7857 5.28125C26.8172 5.4375 26.7542 5.59375 26.6282 5.71875Z" fill="#463848"/>
<path d="M18.7185 16.1562C17.9622 15.6562 16.9853 15.75 16.355 16.375L14.4643 18.2187C14.4013 18.2812 14.2752 18.3125 14.1807 18.2812C14.0861 18.25 14.0231 18.1562 14.0231 18.0312V6.71875C14.0231 5.71875 13.2038 4.875 12.1639 4.875C11.6597 4.875 11.2185 5.0625 10.8403 5.40625C10.4937 5.75 10.3046 6.21875 10.3046 6.71875V12.875C9.9895 12.3437 9.39076 12 8.72899 12C7.72059 12 6.86975 12.8125 6.86975 13.8437V13.875C6.55462 13.3437 5.95588 13 5.29412 13C4.28572 13 3.43487 13.8125 3.43487 14.8437V14.9062C3.11975 14.375 2.52101 14.0312 1.85924 14.0312C0.85084 14.0312 0 14.8437 0 15.875V20.9375C0 22.5625 0.630252 24.0625 1.79622 25.2188C2.96219 26.375 4.47479 27 6.11345 27H9.01261C11.0924 27 13.0462 26.0937 14.3697 24.5L19.0336 18.9062C19.3803 18.5 19.5063 17.9688 19.4433 17.4687C19.4433 16.9375 19.1597 16.4687 18.7185 16.1562Z" fill="#463848"/>
</svg>
