<svg width="20" height="20" viewBox="0 0 20 20" fill="none" xmlns="http://www.w3.org/2000/svg">
<path d="M1.25 2.90728C1.25 1.85392 2.1183 1 3.18939 1H8.03788C9.10898 1 9.97727 1.85392 9.97727 2.90728V3.3245V4.69536V7.6755C9.97727 8.72886 9.10898 9.58278 8.03788 9.58278H4.70455H3.2197H3.18939C2.1183 9.58278 1.25 8.72886 1.25 7.6755V2.90728Z" fill="#AAA3B4"/>
<path fill-rule="evenodd" clip-rule="evenodd" d="M3.2197 5.23179C3.2197 4.17842 4.08799 3.3245 5.15909 3.3245H9.97727V4.69536V7.6755C9.97727 8.72886 9.10898 9.58278 8.03788 9.58278H4.70455H3.2197V5.23179Z" fill="#AAA3B4"/>
<path d="M14.7783 4.69536C14.8289 4.86552 14.8561 5.04554 14.8561 5.23179V12.8609C14.8561 13.9143 13.9878 14.7682 12.9167 14.7682H5.15909C5.00255 14.7682 4.85034 14.75 4.70455 14.7155M14.7783 4.69536C14.5427 3.90315 13.7984 3.3245 12.9167 3.3245H9.97727M14.7783 4.69536H17.3106C18.3817 4.69536 19.25 5.54928 19.25 6.60265V17.0927C19.25 18.1461 18.3817 19 17.3106 19H6.64394C5.57284 19 4.70455 18.1461 4.70455 17.0927V14.7155M9.97727 4.69536V3.3245M9.97727 4.69536V7.6755C9.97727 8.72886 9.10898 9.58278 8.03788 9.58278H4.70455M9.97727 4.69536H6.64394C5.57284 4.69536 4.70455 5.54928 4.70455 6.60265V9.58278M9.97727 3.3245H5.15909C4.08799 3.3245 3.2197 4.17842 3.2197 5.23179V9.58278M9.97727 3.3245V2.90728C9.97727 1.85392 9.10898 1 8.03788 1H3.18939C2.1183 1 1.25 1.85392 1.25 2.90728V7.6755C1.25 8.72886 2.1183 9.58278 3.18939 9.58278H3.2197M4.70455 9.58278H3.2197M4.70455 14.7155C3.85274 14.5144 3.2197 13.7603 3.2197 12.8609V9.58278" stroke="#AAA3B4"/>
</svg>
