<svg width="20" height="20" viewBox="0 0 20 20" fill="none" xmlns="http://www.w3.org/2000/svg">
<path d="M5.89286 7.85714C5.89286 6.91037 6.66037 6.14286 7.60714 6.14286H10.1786H14.4643H17.0357C17.9825 6.14286 18.75 6.91037 18.75 7.85714V17.2857C18.75 18.2325 17.9825 19 17.0357 19H7.60714C6.66037 19 5.89286 18.2325 5.89286 17.2857V14.7143V10.4286V7.85714Z" fill="#AAA3B4"/>
<path fill-rule="evenodd" clip-rule="evenodd" d="M5.89286 14.7143V10.4286V7.85714C5.89286 6.91037 6.66037 6.14286 7.60714 6.14286H10.1786H14.4643V13C14.4643 13.9468 13.6968 14.7143 12.75 14.7143H5.89286Z" fill="#AAA3B4"/>
<path d="M3.32143 10.4286V5.28571C3.32143 4.33894 4.08894 3.57143 5.03571 3.57143H10.1786M3.32143 10.4286V13C3.32143 13.9468 4.08894 14.7143 5.03571 14.7143H5.89286M3.32143 10.4286H2.46429C1.51751 10.4286 0.75 9.66106 0.75 8.71429V2.71429C0.75 1.76751 1.51751 1 2.46429 1H8.46429C9.41106 1 10.1786 1.76751 10.1786 2.71429V3.57143M10.1786 3.57143H12.75C13.6968 3.57143 14.4643 4.33894 14.4643 5.28571V6.14286M10.1786 6.14286H7.60714C6.66037 6.14286 5.89286 6.91037 5.89286 7.85714V10.4286M10.1786 6.14286V8.71429C10.1786 9.66106 9.41106 10.4286 8.46429 10.4286H5.89286M10.1786 6.14286H14.4643M5.89286 10.4286V14.7143M5.89286 14.7143H12.75C13.6968 14.7143 14.4643 13.9468 14.4643 13V6.14286M5.89286 14.7143V17.2857C5.89286 18.2325 6.66037 19 7.60714 19H17.0357C17.9825 19 18.75 18.2325 18.75 17.2857V7.85714C18.75 6.91037 17.9825 6.14286 17.0357 6.14286H14.4643" stroke="#AAA3B4"/>
</svg>
